<?xml version="1.0" encoding="UTF-8"?>
<!-- Generator: visioncortex VTracer 0.6.3 -->
<svg version="1.1" xmlns="http://www.w3.org/2000/svg" width="1280" height="958">
<path d="M0 0 C422.4 0 844.8 0 1280 0 C1280 316.14 1280 632.28 1280 958 C857.6 958 435.2 958 0 958 C0 641.86 0 325.72 0 0 Z " fill="#FCFCFC" transform="translate(0,0)"/>
<path d="M0 0 C35.32 -0.04 35.32 -0.04 50.07 -0.05 C60.28 -0.05 70.48 -0.06 80.68 -0.08 C88.11 -0.09 95.54 -0.09 102.97 -0.09 C106.91 -0.1 110.85 -0.1 114.78 -0.11 C118.48 -0.11 122.18 -0.11 125.88 -0.11 C127.9 -0.11 129.91 -0.12 131.93 -0.12 C133.12 -0.12 134.3 -0.12 135.53 -0.12 C136.57 -0.12 137.6 -0.12 138.67 -0.12 C141 0 141 0 142 1 C143.29 7.46 143.14 13.93 143.13 20.5 C143.13 22.36 143.13 22.36 143.13 24.27 C143.14 27.67 143.14 31.06 143.13 34.46 C143.13 38.02 143.13 41.58 143.14 45.14 C143.14 51.11 143.14 57.08 143.13 63.05 C143.12 69.96 143.13 76.86 143.13 83.76 C143.14 89.7 143.14 95.63 143.13 101.57 C143.13 105.11 143.13 108.65 143.14 112.19 C143.14 116.13 143.13 120.08 143.13 124.02 C143.13 125.2 143.13 126.37 143.14 127.58 C143.13 128.65 143.13 129.72 143.13 130.83 C143.13 132.23 143.13 132.23 143.13 133.65 C143 136 143 136 142 139 C134.45 139.93 127 140.15 119.39 140.15 C117.56 140.15 117.56 140.15 115.69 140.16 C112.38 140.16 109.06 140.17 105.74 140.17 C103.66 140.17 101.59 140.17 99.51 140.17 C92.25 140.18 85 140.19 77.74 140.19 C70.99 140.18 64.24 140.2 57.49 140.21 C51.68 140.22 45.87 140.23 40.06 140.23 C36.59 140.23 33.13 140.23 29.66 140.24 C25.81 140.25 21.95 140.25 18.09 140.24 C16.38 140.25 16.38 140.25 14.63 140.26 C13.58 140.26 12.52 140.25 11.44 140.25 C10.53 140.25 9.62 140.25 8.68 140.25 C6 140 6 140 0 138 C0 92.46 0 46.92 0 0 Z " fill="#AB0917" transform="translate(1034,409)"/>
<path d="M0 0 C16.65 -0.07 33.31 -0.12 49.96 -0.16 C57.7 -0.17 65.43 -0.19 73.16 -0.23 C79.9 -0.26 86.64 -0.28 93.38 -0.28 C96.94 -0.29 100.51 -0.3 104.08 -0.32 C108.06 -0.34 112.04 -0.34 116.02 -0.34 C117.81 -0.36 117.81 -0.36 119.63 -0.37 C121.25 -0.37 121.25 -0.37 122.9 -0.36 C123.84 -0.36 124.78 -0.37 125.75 -0.37 C126.87 -0.19 126.87 -0.19 128 0 C130.26 3.38 130.25 4.52 130.25 8.48 C130.25 9.62 130.26 10.76 130.26 11.93 C130.25 13.18 130.25 14.43 130.24 15.72 C130.24 17.03 130.25 18.35 130.25 19.7 C130.25 23.31 130.25 26.92 130.24 30.53 C130.23 34.3 130.23 38.08 130.23 41.85 C130.23 48.18 130.22 54.52 130.21 60.85 C130.19 68.18 130.18 75.51 130.19 82.84 C130.19 89.89 130.18 96.93 130.17 103.98 C130.17 106.98 130.17 109.98 130.17 112.98 C130.17 117.17 130.16 121.36 130.15 125.54 C130.15 126.8 130.15 128.05 130.15 129.34 C130.14 130.47 130.14 131.61 130.13 132.77 C130.13 133.77 130.13 134.76 130.13 135.78 C130 138 130 138 129 139 C127.36 139.11 125.72 139.16 124.07 139.17 C122.47 139.19 122.47 139.19 120.84 139.21 C119.66 139.22 118.48 139.23 117.26 139.24 C115.41 139.26 115.41 139.26 113.52 139.28 C110.12 139.31 106.72 139.34 103.32 139.37 C101.2 139.39 99.08 139.41 96.96 139.42 C89.56 139.49 82.17 139.55 74.77 139.61 C67.87 139.67 60.97 139.73 54.07 139.8 C48.15 139.86 42.23 139.91 36.31 139.96 C32.78 139.99 29.24 140.02 25.7 140.06 C21.76 140.1 17.81 140.13 13.87 140.15 C12.1 140.17 12.1 140.17 10.3 140.2 C9.23 140.2 8.16 140.2 7.06 140.21 C6.12 140.22 5.19 140.23 4.23 140.23 C2 140 2 140 0 138 C-0.32 135.3 -0.32 135.3 -0.41 131.76 C-0.43 131.11 -0.45 130.46 -0.47 129.78 C-0.53 127.57 -0.57 125.35 -0.62 123.13 C-0.66 121.53 -0.69 119.94 -0.73 118.34 C-1.18 97.79 -1.15 77.23 -1.13 56.67 C-1.12 50.92 -1.13 45.17 -1.13 39.41 C-1.14 34.94 -1.14 30.48 -1.13 26.01 C-1.13 23.88 -1.13 21.76 -1.14 19.63 C-1.14 16.7 -1.13 13.77 -1.13 10.84 C-1.13 9.96 -1.13 9.09 -1.14 8.2 C-1.11 2.23 -1.11 2.23 0 0 Z " fill="#050608" transform="translate(499,409)"/>
<path d="M0 0 C4.03 -0.15 8.06 -0.24 12.09 -0.32 C13.8 -0.38 13.8 -0.38 15.54 -0.44 C25.03 -0.58 25.03 -0.58 28.94 2.36 C31.59 5.09 33.79 7.91 36 11 C37.33 12.28 38.7 13.51 40.12 14.69 C40.75 15.23 41.38 15.77 42.03 16.32 C42.68 16.88 43.33 17.43 44 18 C48.88 22.18 53.4 26.31 57.47 31.29 C59.77 33.87 62.41 36 65.05 38.23 C67.52 40.48 69.55 42.96 71.58 45.62 C73.49 47.48 74.3 47.92 77 48 C79.22 46.22 81.07 44.49 83.02 42.44 C83.59 41.85 84.16 41.27 84.76 40.67 C86.6 38.79 88.43 36.9 90.25 35 C92.65 32.54 95.05 30.08 97.45 27.62 C98.03 27.03 98.61 26.44 99.2 25.84 C103.29 21.67 107.49 17.71 112 14 C112.79 13.35 113.58 12.7 114.39 12.03 C115.64 11.01 116.89 9.98 118.14 8.97 C120.71 6.25 122.23 3.29 124 0 C128.12 -0.06 132.25 -0.09 136.38 -0.12 C137.55 -0.14 138.73 -0.16 139.94 -0.18 C141.62 -0.19 141.62 -0.19 143.34 -0.2 C144.37 -0.21 145.41 -0.22 146.48 -0.23 C149 0 149 0 151 2 C151.25 4.39 151.25 4.39 151.24 7.44 C151.24 9.17 151.24 9.17 151.25 10.94 C151.24 12.85 151.24 12.85 151.23 14.8 C151.23 16.15 151.23 17.5 151.23 18.85 C151.23 22.52 151.22 26.2 151.2 29.87 C151.19 33.7 151.19 37.54 151.19 41.37 C151.18 48.63 151.16 55.9 151.14 63.16 C151.12 71.43 151.11 79.7 151.1 87.97 C151.08 104.98 151.04 121.99 151 139 C147.02 139.03 143.04 139.05 139.06 139.06 C137.93 139.07 136.79 139.08 135.62 139.09 C134.54 139.09 133.46 139.09 132.35 139.1 C130.85 139.11 130.85 139.11 129.32 139.11 C127 139 127 139 126 138 C125.9 134.83 125.87 131.69 125.89 128.52 C125.89 127.53 125.89 126.53 125.89 125.51 C125.89 122.2 125.89 118.9 125.9 115.59 C125.9 113.3 125.91 111.02 125.91 108.73 C125.91 102.71 125.92 96.68 125.93 90.65 C125.94 84.5 125.95 78.36 125.95 72.21 C125.96 60.14 125.98 48.07 126 36 C122.81 37.5 121 38.89 118.75 41.62 C113.32 48.03 107.39 53.75 101.01 59.2 C98.17 61.75 95.56 64.51 92.96 67.3 C90.75 69.21 88.71 69.97 86 71 C82.95 73.76 80.36 76.64 78 80 C75.25 79.88 75.25 79.88 72 79 C69.94 76.19 69.94 76.19 68 73 C65.84 71.03 63.65 69.39 61.15 67.88 C54.13 63.54 48.62 57.9 42.94 52 C36.98 45.84 31.13 39.84 24 35 C24.24 36.44 24.24 36.44 24.49 37.9 C25.14 42.47 25.14 46.99 25.13 51.59 C25.13 52.53 25.13 53.46 25.13 54.43 C25.14 57.5 25.14 60.57 25.13 63.65 C25.13 65.79 25.13 67.93 25.14 70.07 C25.14 74.54 25.14 79.02 25.13 83.49 C25.12 89.24 25.13 94.98 25.13 100.73 C25.14 105.14 25.14 109.56 25.13 113.97 C25.13 116.09 25.13 118.21 25.14 120.33 C25.14 123.28 25.13 126.23 25.13 129.19 C25.13 130.07 25.13 130.95 25.14 131.86 C25.11 137.89 25.11 137.89 24 139 C20.56 139.41 17.09 139.52 13.62 139.69 C12.65 139.75 11.68 139.81 10.68 139.87 C9.28 139.94 9.28 139.94 7.85 140.01 C6.99 140.06 6.14 140.1 5.25 140.15 C3 140 3 140 0 138 C-0.37 135.6 -0.37 135.6 -0.36 132.52 C-0.36 131.36 -0.37 130.19 -0.37 128.99 C-0.36 127.71 -0.35 126.43 -0.34 125.1 C-0.34 123.75 -0.34 122.39 -0.34 121.03 C-0.34 117.33 -0.33 113.63 -0.3 109.93 C-0.29 106.07 -0.28 102.21 -0.28 98.34 C-0.27 91.03 -0.25 83.71 -0.22 76.39 C-0.18 68.06 -0.17 59.74 -0.15 51.41 C-0.12 34.27 -0.07 17.14 0 0 Z " fill="#040507" transform="translate(326,409)"/>
<path d="M0 0 C1.15 -0.04 2.29 -0.07 3.47 -0.11 C11.98 -0.2 11.98 -0.2 15.82 2.68 C16.46 3.57 17.1 4.46 17.75 5.38 C18.68 6.27 18.68 6.27 19.63 7.18 C20.18 7.72 20.74 8.26 21.31 8.81 C21.87 9.35 22.43 9.88 23 10.43 C24.75 12.38 24.75 12.38 26.49 15.14 C29.34 19.21 32.71 22.3 36.38 25.62 C37.82 26.95 39.25 28.27 40.69 29.6 C41.39 30.24 42.08 30.89 42.8 31.55 C45.38 33.96 47.85 36.47 50.31 39 C53.93 42.63 57.28 45.83 61.75 48.38 C66.24 48.14 68.26 46.36 71.31 43.19 C72.06 42.43 72.8 41.67 73.57 40.89 C75.82 38.42 75.82 38.42 77.58 35.54 C79.73 32.41 81.98 29.9 84.67 27.22 C85.14 26.76 85.6 26.3 86.08 25.82 C87.05 24.85 88.03 23.88 89.01 22.91 C90.49 21.45 91.96 19.98 93.42 18.52 C98.21 13.75 103.06 9.1 108.2 4.71 C109.43 3.65 110.6 2.52 111.75 1.38 C116.36 -0 121.16 0.19 125.94 0.19 C127.17 0.17 127.17 0.17 128.42 0.15 C130.53 0.15 132.64 0.25 134.75 0.38 C136.75 2.38 136.75 2.38 137 4.74 C137 5.74 137 6.74 137 7.77 C137 8.92 137.01 10.06 137.01 11.24 C137 12.51 137 13.77 136.99 15.07 C136.99 16.41 137 17.75 137 19.09 C137 22.73 137 26.37 136.99 30.01 C136.98 33.81 136.98 37.61 136.98 41.42 C136.98 47.8 136.97 54.19 136.96 60.58 C136.94 67.97 136.93 75.36 136.94 82.76 C136.94 89.86 136.93 96.96 136.92 104.06 C136.92 107.09 136.92 110.12 136.92 113.14 C136.92 116.71 136.91 120.27 136.9 123.83 C136.9 125.77 136.9 127.7 136.9 129.64 C136.89 130.78 136.89 131.93 136.88 133.11 C136.88 134.1 136.88 135.1 136.88 136.13 C136.75 138.38 136.75 138.38 135.75 139.38 C132.44 139.63 129.13 139.56 125.81 139.56 C124.88 139.57 123.95 139.59 122.99 139.6 C122.09 139.6 121.2 139.6 120.29 139.61 C119.46 139.61 118.64 139.61 117.8 139.62 C115.75 139.38 115.75 139.38 113.75 137.38 C113.49 135.54 113.49 135.54 113.47 133.26 C113.46 132.4 113.45 131.54 113.44 130.65 C113.44 129.71 113.43 128.76 113.43 127.78 C113.42 126.79 113.41 125.79 113.4 124.77 C113.37 121.47 113.35 118.17 113.34 114.87 C113.32 112.58 113.3 110.3 113.28 108.02 C113.23 101.99 113.19 95.97 113.15 89.95 C113.11 83.81 113.06 77.67 113.01 71.54 C112.91 59.48 112.83 47.43 112.75 35.38 C112.27 35.79 111.79 36.2 111.29 36.62 C110.66 37.16 110.03 37.7 109.38 38.26 C108.45 39.06 108.45 39.06 107.49 39.88 C106.19 40.99 104.9 42.1 103.6 43.21 C99.46 46.78 95.58 50.52 91.75 54.41 C89.83 56.3 87.85 58.06 85.81 59.81 C80.23 64.62 75.15 69.92 70 75.19 C67.7 77.43 65.27 79.39 62.75 81.38 C62.16 80.82 61.56 80.26 60.95 79.69 C56.55 75.64 52.16 71.86 47.25 68.44 C42.32 64.96 38.19 61.03 34.04 56.67 C31.79 54.32 31.79 54.32 29.18 52.35 C26.77 50.39 25.13 48.49 23.31 46 C18.11 38.82 18.11 38.82 10.75 34.38 C10.75 69.36 10.75 104.34 10.75 140.38 C-0.63 139.88 -0.63 139.88 -12.25 139.38 C-13.55 136.78 -13.38 134.89 -13.38 131.98 C-13.38 130.83 -13.38 129.69 -13.39 128.51 C-13.38 127.24 -13.38 125.98 -13.38 124.68 C-13.38 123.34 -13.38 122 -13.38 120.66 C-13.39 117.02 -13.39 113.38 -13.38 109.74 C-13.38 105.94 -13.38 102.14 -13.39 98.33 C-13.39 91.95 -13.39 85.56 -13.38 79.17 C-13.37 71.78 -13.38 64.39 -13.38 56.99 C-13.39 50.65 -13.39 44.32 -13.38 37.98 C-13.38 34.19 -13.38 30.4 -13.39 26.61 C-13.39 23.04 -13.39 19.48 -13.38 15.92 C-13.38 13.98 -13.38 12.05 -13.39 10.11 C-13.38 8.97 -13.38 7.82 -13.38 6.64 C-13.38 5.65 -13.38 4.65 -13.38 3.62 C-13.06 -2.07 -4.32 0.05 0 0 Z " fill="#8E949B" transform="translate(664.25,408.625)"/>
<path d="M0 0 C3.85 -0.12 7.71 -0.19 11.56 -0.25 C12.65 -0.28 13.73 -0.32 14.85 -0.35 C21.49 -0.43 25.66 -0.06 31 4 C31.91 5.4 32.81 6.8 33.65 8.24 C35.56 10.72 37.9 12.4 40.38 14.31 C44.82 17.82 47.65 21.09 50.56 25.89 C52.55 28.81 55 30.81 57.71 33.04 C61.56 36.34 65.04 40.02 68.58 43.64 C70.96 46.11 70.96 46.11 74 48 C78.12 47.82 80.1 45.17 82.81 42.31 C85.71 39.31 88.54 36.46 91.81 33.88 C94.3 31.82 95.83 29.85 97.44 27.06 C99.66 23.25 102.23 20.84 105.62 18.06 C109.14 15.01 112.33 11.65 115.52 8.26 C120.41 3.23 124.85 -0.11 131.99 -0.5 C133.76 -0.5 135.54 -0.48 137.31 -0.44 C138.22 -0.44 139.12 -0.45 140.06 -0.46 C145.01 -0.41 145.01 -0.41 147 0 C149.26 3.38 149.25 4.52 149.25 8.48 C149.25 9.62 149.26 10.76 149.26 11.93 C149.25 13.18 149.25 14.43 149.24 15.72 C149.24 17.03 149.25 18.35 149.25 19.7 C149.25 23.31 149.25 26.92 149.24 30.53 C149.23 34.3 149.23 38.08 149.23 41.85 C149.23 48.18 149.22 54.52 149.21 60.85 C149.19 68.18 149.18 75.51 149.19 82.84 C149.19 89.89 149.18 96.93 149.17 103.98 C149.17 106.98 149.17 109.98 149.17 112.98 C149.17 117.17 149.16 121.36 149.15 125.54 C149.15 126.8 149.15 128.05 149.15 129.34 C149.14 130.47 149.14 131.61 149.13 132.77 C149.13 133.77 149.13 134.76 149.13 135.78 C149 138 149 138 148 139 C146.52 139.1 145.04 139.13 143.56 139.13 C142.22 139.13 142.22 139.13 140.85 139.14 C139.91 139.13 138.97 139.13 138 139.12 C137.06 139.13 136.12 139.13 135.15 139.14 C134.25 139.14 133.36 139.13 132.44 139.13 C131.61 139.13 130.78 139.13 129.93 139.13 C128 139 128 139 127 138 C126.87 134.83 126.81 131.69 126.79 128.52 C126.78 127.53 126.77 126.53 126.76 125.51 C126.73 122.2 126.71 118.9 126.68 115.59 C126.66 113.3 126.64 111.02 126.62 108.73 C126.57 102.71 126.52 96.68 126.47 90.65 C126.42 84.5 126.36 78.36 126.31 72.21 C126.2 60.14 126.1 48.07 126 36 C122.94 35.68 122.94 35.68 120.98 37.7 C120.22 38.47 119.47 39.25 118.69 40.05 C117.86 40.89 117.03 41.74 116.18 42.61 C115.31 43.5 114.45 44.39 113.56 45.31 C111.86 47.06 110.15 48.81 108.44 50.55 C107.69 51.33 106.93 52.11 106.15 52.92 C104 55 104 55 101.8 56.6 C99.75 57.97 99.75 57.97 98.75 60.81 C95.84 66.11 90.92 68.81 85.88 71.94 C82.29 74.51 79.73 77.56 77 81 C71.9 79.25 68.49 76.53 64.75 72.69 C62.45 70.44 60.18 68.56 57.62 66.62 C52.7 62.85 47.69 58.94 44.56 53.5 C42.59 50.34 40.11 48.37 37.27 45.98 C33.31 42.53 29.67 38.75 26 35 C23.85 36.75 23.85 36.75 23.76 38.82 C23.76 39.56 23.76 40.3 23.77 41.07 C23.76 41.92 23.76 42.77 23.76 43.65 C23.78 45.05 23.78 45.05 23.79 46.48 C23.79 47.47 23.79 48.45 23.79 49.46 C23.8 52.73 23.82 55.99 23.84 59.25 C23.85 61.51 23.85 63.77 23.86 66.03 C23.87 71.99 23.89 77.94 23.92 83.9 C23.96 93.44 23.99 102.97 24.02 112.51 C24.03 115.85 24.04 119.2 24.06 122.54 C24.07 124.57 24.08 126.61 24.08 128.65 C24.09 129.58 24.1 130.52 24.1 131.49 C24.11 133.66 24.06 135.83 24 138 C22.35 139.65 20.4 139.13 18.12 139.13 C17.14 139.13 16.16 139.14 15.14 139.14 C14.1 139.13 13.07 139.13 12 139.12 C10.96 139.13 9.93 139.13 8.86 139.14 C7.87 139.14 6.89 139.13 5.88 139.13 C4.96 139.13 4.05 139.13 3.12 139.13 C1 139 1 139 0 138 C-0.1 136.22 -0.12 134.43 -0.12 132.64 C-0.12 131.48 -0.12 130.32 -0.12 129.12 C-0.12 127.83 -0.12 126.54 -0.11 125.22 C-0.11 123.86 -0.11 122.5 -0.11 121.14 C-0.11 117.44 -0.11 113.73 -0.1 110.03 C-0.1 106.17 -0.09 102.3 -0.09 98.44 C-0.09 91.11 -0.08 83.79 -0.07 76.47 C-0.06 68.13 -0.06 59.79 -0.05 51.46 C-0.04 34.3 -0.02 17.15 0 0 Z " fill="#17171B" transform="translate(154,409)"/>
<path d="M0 0 C1.42 -0.01 1.42 -0.01 2.86 -0.02 C4.41 -0.01 4.41 -0.01 5.99 -0 C7.08 -0.01 8.17 -0.01 9.29 -0.02 C12.9 -0.02 16.51 -0.02 20.12 -0.01 C22.63 -0.01 25.13 -0.01 27.63 -0.02 C32.88 -0.02 38.12 -0.02 43.37 -0.01 C49.44 0 55.51 0 61.58 -0.01 C67.41 -0.02 73.25 -0.02 79.08 -0.01 C81.57 -0.01 84.05 -0.01 86.54 -0.02 C90.01 -0.02 93.47 -0.02 96.94 -0 C97.98 -0.01 99.01 -0.01 100.08 -0.02 C101.49 -0.01 101.49 -0.01 102.93 0 C104.16 0 104.16 0 105.41 0 C107.4 0.25 107.4 0.25 109.4 2.25 C109.4 9.18 109.4 16.11 109.4 23.25 C78.38 23.25 47.36 23.25 15.4 23.25 C15.73 53.61 16.06 83.97 16.4 115.25 C27.77 115.11 39.13 114.97 50.84 114.82 C54.43 114.77 58.02 114.73 61.73 114.69 C64.94 114.64 64.94 114.64 68.15 114.6 C69.58 114.58 71.02 114.56 72.45 114.55 C74.62 114.52 76.79 114.49 78.95 114.46 C80.79 114.44 80.79 114.44 82.66 114.41 C85.31 114.56 85.31 114.56 86.4 113.25 C86.5 111.19 86.53 109.13 86.53 107.07 C86.53 105.81 86.54 104.56 86.54 103.26 C86.54 102.6 86.53 101.95 86.53 101.27 C86.53 99.26 86.53 97.25 86.54 95.25 C86.54 93.99 86.53 92.74 86.53 91.44 C86.53 89.7 86.53 89.7 86.53 87.92 C86.7 85.33 86.7 85.33 85.4 84.25 C82.61 84.12 79.85 84.04 77.06 84.01 C75.34 83.97 73.62 83.94 71.9 83.91 C69.18 83.86 66.46 83.82 63.73 83.78 C61.11 83.74 58.49 83.69 55.87 83.63 C55.06 83.62 54.24 83.62 53.4 83.61 C47.63 83.48 47.63 83.48 45.4 81.25 C45.16 79.39 45.16 79.39 45.17 77.16 C45.17 76.36 45.17 75.55 45.18 74.73 C45.19 73.47 45.19 73.47 45.21 72.19 C45.21 71.35 45.21 70.51 45.22 69.64 C45.26 63.39 45.26 63.39 46.4 62.25 C48.29 62.15 50.19 62.13 52.08 62.12 C53.9 62.12 53.9 62.12 55.76 62.12 C57.1 62.12 58.44 62.12 59.77 62.12 C61.13 62.12 62.49 62.12 63.86 62.12 C66.71 62.12 69.57 62.12 72.43 62.12 C76.09 62.13 79.76 62.13 83.43 62.12 C86.24 62.12 89.05 62.12 91.87 62.12 C93.22 62.12 94.57 62.12 95.92 62.12 C97.81 62.12 99.7 62.12 101.59 62.12 C102.67 62.13 103.74 62.13 104.85 62.13 C107.4 62.25 107.4 62.25 109.4 63.25 C109.42 73.02 109.44 82.78 109.45 92.54 C109.46 97.07 109.46 101.6 109.48 106.14 C109.49 110.51 109.49 114.88 109.5 119.25 C109.5 120.92 109.5 122.59 109.51 124.26 C109.51 126.59 109.51 128.92 109.51 131.26 C109.52 131.95 109.52 132.65 109.53 133.37 C109.51 138.14 109.51 138.14 108.4 139.25 C106.91 139.35 105.41 139.38 103.91 139.37 C102.95 139.38 101.98 139.38 100.98 139.38 C99.37 139.37 99.37 139.37 97.73 139.37 C96.05 139.37 96.05 139.37 94.33 139.37 C90.6 139.37 86.87 139.36 83.15 139.35 C80.57 139.35 77.99 139.35 75.42 139.35 C69.31 139.34 63.21 139.34 57.11 139.33 C50.16 139.31 43.22 139.31 36.27 139.3 C21.98 139.29 7.69 139.28 -6.6 139.25 C-7.89 136.67 -7.73 134.8 -7.74 131.9 C-7.75 130.77 -7.75 129.63 -7.76 128.46 C-7.76 127.21 -7.76 125.96 -7.76 124.67 C-7.77 123.35 -7.77 122.04 -7.78 120.68 C-7.79 117.08 -7.8 113.47 -7.8 109.86 C-7.8 107.6 -7.81 105.35 -7.81 103.1 C-7.82 96.05 -7.83 89.01 -7.84 81.97 C-7.84 73.82 -7.86 65.68 -7.89 57.54 C-7.91 51.25 -7.92 44.97 -7.92 38.68 C-7.92 34.92 -7.93 31.16 -7.95 27.41 C-7.97 23.22 -7.96 19.03 -7.96 14.84 C-7.96 13.59 -7.97 12.34 -7.98 11.05 C-7.98 9.91 -7.97 8.78 -7.97 7.61 C-7.97 6.62 -7.97 5.62 -7.97 4.6 C-7.85 3.83 -7.73 3.05 -7.6 2.25 C-4.42 0.13 -3.64 0 0 0 Z " fill="#8E949B" transform="translate(878.5992584228516,408.74603271484375)"/>
<path d="M0 0 C10.27 -0.02 20.53 -0.04 30.8 -0.05 C35.56 -0.06 40.33 -0.06 45.1 -0.08 C49.69 -0.09 54.29 -0.09 58.89 -0.09 C60.64 -0.1 62.4 -0.1 64.16 -0.11 C66.61 -0.11 69.07 -0.11 71.52 -0.11 C72.25 -0.12 72.98 -0.12 73.74 -0.12 C78.77 -0.11 78.77 -0.11 81 1 C81.18 12.57 81.34 24.14 81.49 35.71 C81.57 41.08 81.64 46.45 81.72 51.82 C81.8 57 81.87 62.19 81.94 67.37 C81.96 69.35 81.99 71.33 82.03 73.31 C82.07 76.07 82.11 78.84 82.14 81.6 C82.16 82.84 82.16 82.84 82.19 84.1 C82.2 86.07 82.11 88.04 82 90 C79.55 92.45 78.19 92.24 74.83 92.27 C74.12 92.27 73.4 92.26 72.66 92.26 C71.9 92.26 71.15 92.27 70.37 92.27 C67.86 92.28 65.35 92.27 62.85 92.27 C61.11 92.27 59.37 92.27 57.63 92.27 C53.98 92.27 50.34 92.27 46.69 92.26 C42.01 92.25 37.33 92.26 32.65 92.27 C29.06 92.28 25.47 92.27 21.88 92.27 C20.15 92.27 18.43 92.27 16.7 92.27 C14.29 92.28 11.88 92.27 9.47 92.26 C8.4 92.26 8.4 92.26 7.3 92.27 C3.64 92.24 2.14 92.09 -1 90 C-1.26 87.1 -1.32 84.41 -1.25 81.51 C-1.24 80.63 -1.23 79.76 -1.22 78.85 C-1.19 75.94 -1.13 73.03 -1.07 70.12 C-1.05 68.1 -1.02 66.09 -0.99 64.07 C-0.92 58.76 -0.83 53.45 -0.74 48.14 C-0.65 42.73 -0.58 37.31 -0.5 31.89 C-0.35 21.26 -0.18 10.63 0 0 Z " fill="#FCFCFC" transform="translate(523,432)"/>
<path d="M0 0 C4.97 3.6 8.19 7.75 11.71 12.75 C14.81 17.15 18.02 21.46 21.23 25.78 C24.43 30.13 27.23 34.5 29.69 39.31 C31.88 43.22 34.9 46.01 38.2 49.01 C40.2 51.22 40.95 53.24 42 56 C43.32 56.7 44.65 57.37 46 58 C47.25 60.13 47.25 60.13 48 62 C44.29 63.24 40.69 63.36 36.81 63.56 C36.06 63.61 35.31 63.65 34.54 63.69 C32.69 63.8 30.85 63.9 29 64 C29.01 64.9 29.01 65.81 29.02 66.74 C29.03 70.08 29.05 73.42 29.05 76.76 C29.06 78.21 29.07 79.66 29.08 81.11 C29.09 83.18 29.09 85.26 29.1 87.34 C29.1 88.59 29.11 89.84 29.11 91.13 C29 94 29 94 28 95 C26.38 95.1 24.76 95.14 23.14 95.15 C22.11 95.15 21.08 95.16 20.01 95.16 C18.32 95.17 18.32 95.17 16.6 95.17 C15.45 95.17 14.3 95.17 13.12 95.18 C10.69 95.18 8.25 95.19 5.82 95.19 C2.08 95.19 -1.65 95.21 -5.39 95.22 C-7.75 95.23 -10.11 95.23 -12.46 95.23 C-13.59 95.24 -14.71 95.24 -15.87 95.25 C-16.91 95.25 -17.95 95.25 -19.02 95.24 C-19.93 95.24 -20.85 95.25 -21.79 95.25 C-24 95 -24 95 -26 93 C-26.3 90.22 -26.3 90.22 -26.38 86.71 C-26.41 85.46 -26.45 84.21 -26.48 82.92 C-26.51 81.61 -26.54 80.29 -26.56 78.94 C-26.62 76.34 -26.69 73.75 -26.75 71.15 C-26.78 70 -26.8 68.84 -26.83 67.65 C-26.7 65.08 -26.7 65.08 -28 64 C-30.53 63.76 -33.03 63.58 -35.56 63.44 C-36.27 63.39 -36.98 63.35 -37.72 63.31 C-39.48 63.2 -41.24 63.1 -43 63 C-43.49 61.51 -43.49 61.51 -44 60 C-42.5 57.81 -42.5 57.81 -40 55 C-39.45 54.36 -38.91 53.73 -38.35 53.07 C-35.76 50.06 -33.16 47.15 -30.31 44.38 C-27.78 41.78 -25.95 39.05 -24 36 C-23.48 35.36 -22.97 34.72 -22.44 34.06 C-20.81 31.88 -20.81 31.88 -19.56 28.56 C-17.79 24.53 -15.67 21.6 -12.5 18.56 C-10.3 16.27 -8.72 13.66 -7 11 C-6.32 9.99 -5.64 8.98 -4.94 7.94 C-3.22 5.33 -1.58 2.69 0 0 Z " fill="#FCFCFC" transform="translate(1103,430)"/>
<path d="M0 0 C3.85 -0.12 7.71 -0.19 11.56 -0.25 C12.65 -0.28 13.73 -0.32 14.85 -0.35 C21.49 -0.43 25.66 -0.06 31 4 C31.91 5.4 32.81 6.8 33.65 8.24 C35.56 10.72 37.9 12.4 40.38 14.31 C44.82 17.82 47.65 21.09 50.56 25.89 C52.55 28.81 55 30.81 57.71 33.04 C61.56 36.34 65.04 40.02 68.58 43.64 C70.96 46.11 70.96 46.11 74 48 C78.12 47.82 80.1 45.17 82.81 42.31 C85.71 39.31 88.54 36.46 91.81 33.88 C94.3 31.82 95.83 29.85 97.44 27.06 C99.66 23.25 102.23 20.84 105.62 18.06 C109.14 15.01 112.33 11.65 115.52 8.26 C120.41 3.23 124.85 -0.11 131.99 -0.5 C133.76 -0.5 135.54 -0.48 137.31 -0.44 C138.22 -0.44 139.12 -0.45 140.06 -0.46 C145.01 -0.41 145.01 -0.41 147 0 C149.26 3.38 149.25 4.52 149.25 8.48 C149.25 9.62 149.26 10.76 149.26 11.93 C149.25 13.18 149.25 14.43 149.24 15.72 C149.24 17.03 149.25 18.35 149.25 19.7 C149.25 23.31 149.25 26.92 149.24 30.53 C149.23 34.3 149.23 38.08 149.23 41.85 C149.23 48.18 149.22 54.52 149.21 60.85 C149.19 68.18 149.18 75.51 149.19 82.84 C149.19 89.89 149.18 96.93 149.17 103.98 C149.17 106.98 149.17 109.98 149.17 112.98 C149.17 117.17 149.16 121.36 149.15 125.54 C149.15 126.8 149.15 128.05 149.15 129.34 C149.14 130.47 149.14 131.61 149.13 132.77 C149.13 133.77 149.13 134.76 149.13 135.78 C149 138 149 138 148 139 C146.52 139.1 145.04 139.13 143.56 139.13 C142.22 139.13 142.22 139.13 140.85 139.14 C139.91 139.13 138.97 139.13 138 139.12 C137.06 139.13 136.12 139.13 135.15 139.14 C134.25 139.14 133.36 139.13 132.44 139.13 C131.61 139.13 130.78 139.13 129.93 139.13 C128 139 128 139 127 138 C126.9 134.86 126.86 131.73 126.87 128.59 C126.87 127.1 126.87 127.1 126.87 125.59 C126.86 122.3 126.86 119.02 126.87 115.73 C126.87 113.45 126.87 111.18 126.86 108.9 C126.86 104.12 126.86 99.34 126.87 94.57 C126.88 88.43 126.87 82.3 126.87 76.17 C126.86 71.47 126.86 66.77 126.87 62.06 C126.87 59.8 126.87 57.54 126.86 55.28 C126.86 52.12 126.87 48.96 126.87 45.8 C126.87 44.86 126.87 43.93 126.86 42.96 C126.87 42.1 126.87 41.24 126.87 40.35 C126.87 39.23 126.87 39.23 126.87 38.08 C127.01 35.88 127.24 34.07 128 32 C131 30 131 30 134 30 C135.06 35.18 135.14 40.14 135.11 45.4 C135.11 46.33 135.11 47.26 135.11 48.21 C135.11 51.26 135.11 54.32 135.1 57.37 C135.1 59.49 135.09 61.61 135.09 63.73 C135.09 69.3 135.08 74.88 135.07 80.45 C135.06 86.14 135.05 91.83 135.05 97.52 C135.04 108.68 135.02 119.84 135 131 C136.32 130.67 137.64 130.34 139 130 C138.65 129.22 138.3 128.43 137.94 127.62 C137.63 126.76 137.32 125.89 137 125 C137.33 124.34 137.66 123.68 138 123 C138.09 120.25 138.13 117.53 138.11 114.79 C138.11 113.51 138.11 113.51 138.11 112.21 C138.11 109.4 138.11 106.59 138.1 103.77 C138.1 101.83 138.09 99.88 138.09 97.93 C138.09 92.8 138.08 87.67 138.07 82.53 C138.06 77.3 138.05 72.06 138.05 66.83 C138.04 56.55 138.02 46.28 138 36 C138.33 36 138.66 36 139 36 C139.65 25.65 140.16 15.37 140 5 C137.75 5.42 135.5 5.87 133.25 6.31 C132 6.56 130.74 6.8 129.45 7.05 C126.13 7.96 124.52 8.74 122 11 C121.39 11.51 120.77 12.02 120.14 12.54 C111.36 20.02 111.36 20.02 104.09 28.88 C101.9 32.15 99.44 35.01 96.75 37.88 C96.27 38.39 95.79 38.91 95.29 39.45 C93.87 40.97 92.44 42.49 91 44 C89.85 45.21 89.85 45.21 88.68 46.45 C80.64 54.72 80.64 54.72 74.5 55.38 C70.67 54.97 68.97 54.41 66 52 C64.63 50.03 63.3 48.02 62 46 C60.36 44.31 58.69 42.64 57 41 C56.04 40.06 55.09 39.11 54.13 38.17 C53.4 37.44 53.4 37.44 52.65 36.7 C48.16 32.25 43.83 27.75 39.71 22.95 C33.6 15.92 33.6 15.92 26.23 10.36 C25.49 9.91 24.76 9.46 24 9 C24 8.34 24 7.68 24 7 C15.9 5.54 11.47 6.69 3 9 C3 49.92 3 90.84 3 133 C7.95 133 12.9 133 18 133 C18 131.84 17.99 130.67 17.99 129.47 C17.95 118.5 17.92 107.52 17.9 96.54 C17.89 90.9 17.87 85.26 17.85 79.61 C17.83 74.17 17.82 68.72 17.81 63.27 C17.81 61.2 17.8 59.12 17.79 57.04 C17.77 54.13 17.77 51.22 17.77 48.31 C17.77 47.45 17.76 46.6 17.75 45.71 C17.77 41.07 18.22 37.37 20 33 C20.99 33 21.98 33 23 33 C23.81 35.84 24.13 38.36 24.13 41.31 C24.13 42.16 24.13 43.02 24.14 43.9 C24.13 44.82 24.13 45.75 24.13 46.71 C24.13 47.69 24.13 48.68 24.13 49.69 C24.14 52.94 24.14 56.2 24.13 59.45 C24.13 61.71 24.13 63.96 24.14 66.22 C24.14 70.95 24.14 75.67 24.13 80.4 C24.12 86.47 24.13 92.55 24.13 98.62 C24.14 103.28 24.14 107.93 24.13 112.59 C24.13 114.83 24.13 117.07 24.14 119.31 C24.14 122.43 24.13 125.56 24.13 128.68 C24.13 129.61 24.13 130.55 24.14 131.51 C24.11 137.89 24.11 137.89 23 139 C21.38 139.1 19.75 139.13 18.12 139.13 C17.14 139.13 16.16 139.14 15.14 139.14 C14.1 139.13 13.07 139.13 12 139.12 C10.96 139.13 9.93 139.13 8.86 139.14 C7.87 139.14 6.89 139.13 5.88 139.13 C4.96 139.13 4.05 139.13 3.12 139.13 C1 139 1 139 0 138 C-0.1 136.22 -0.12 134.43 -0.12 132.64 C-0.12 131.48 -0.12 130.32 -0.12 129.12 C-0.12 127.83 -0.12 126.54 -0.11 125.22 C-0.11 123.86 -0.11 122.5 -0.11 121.14 C-0.11 117.44 -0.11 113.73 -0.1 110.03 C-0.1 106.17 -0.09 102.3 -0.09 98.44 C-0.09 91.11 -0.08 83.79 -0.07 76.47 C-0.06 68.13 -0.06 59.79 -0.05 51.46 C-0.04 34.3 -0.02 17.15 0 0 Z " fill="#020305" transform="translate(154,409)"/>
<path d="M0 0 C1.14 0.03 2.27 0.06 3.44 0.09 C4.57 0.1 5.71 0.11 6.88 0.12 C10.76 0.54 12.86 1.28 15.57 4.09 C16.09 4.73 16.6 5.37 17.13 6.02 C20.64 10.18 24.52 13.71 28.59 17.3 C33.16 21.38 37.38 25.69 41.38 30.34 C44.72 34.22 48.29 37.83 51.94 41.42 C53.55 43.01 55.1 44.66 56.63 46.34 C59.6 48.99 62.29 50.08 66 51.46 C71.2 47.11 76.09 42.56 80.88 37.77 C81.94 36.72 81.94 36.72 83.02 35.64 C86.83 31.8 90.37 27.92 93.69 23.65 C97.87 18.31 102.74 14.21 107.99 9.97 C111.04 7.52 111.04 7.52 113.71 4.7 C117.18 1.31 119.97 1.32 124.63 1.34 C125.61 1.33 126.59 1.33 127.61 1.33 C130 1.46 130 1.46 131 2.46 C131.1 4.07 131.13 5.67 131.13 7.28 C131.13 8.33 131.14 9.37 131.14 10.44 C131.14 12.17 131.14 12.17 131.13 13.94 C131.14 15.75 131.14 15.75 131.14 17.6 C131.14 20.92 131.14 24.25 131.14 27.57 C131.14 31.04 131.14 34.51 131.14 37.98 C131.14 43.8 131.14 49.63 131.13 55.46 C131.13 62.21 131.13 68.95 131.14 75.7 C131.14 81.48 131.14 87.26 131.14 93.05 C131.14 96.51 131.14 99.96 131.14 103.42 C131.14 107.27 131.14 111.13 131.13 114.98 C131.14 116.13 131.14 117.29 131.14 118.48 C131.14 119.52 131.13 120.56 131.13 121.64 C131.13 123.01 131.13 123.01 131.13 124.4 C131 126.46 131 126.46 130 127.46 C127.57 127.71 127.57 127.71 125 127.46 C122.96 124.4 122.75 123.82 122.76 120.38 C122.76 119.14 122.76 119.14 122.76 117.87 C122.77 116.51 122.77 116.51 122.78 115.12 C122.78 114.17 122.78 113.21 122.78 112.23 C122.78 109.06 122.79 105.9 122.81 102.73 C122.81 100.54 122.82 98.34 122.82 96.15 C122.82 90.38 122.84 84.6 122.87 78.83 C122.89 72.93 122.9 67.04 122.91 61.15 C122.93 49.59 122.96 38.02 123 26.46 C120.54 27.61 118.96 28.51 117 30.46 C115.02 28.81 113.04 27.16 111 25.46 C108.45 27.92 106.14 30.49 103.88 33.21 C99.8 37.92 95.14 41.93 90 45.46 C89.34 45.46 88.68 45.46 88 45.46 C87.67 46.45 87.34 47.44 87 48.46 C86.34 48.46 85.68 48.46 85 48.46 C84.34 49.78 83.68 51.1 83 52.46 C82.34 52.46 81.68 52.46 81 52.46 C80.68 53.31 80.68 53.31 80.34 54.17 C78.57 57.21 76.32 58.9 73.57 61.09 C72.6 61.86 71.63 62.64 70.63 63.44 C68.81 64.84 66.92 66.18 65 67.46 C66.59 63.19 69.51 61.2 73 58.46 C72.67 57.47 72.34 56.48 72 55.46 C74.49 50.98 77.51 47.89 81.38 44.59 C85.92 40.57 89.66 36.51 93 31.46 C88.31 32.86 85.78 35.53 82.69 39.15 C79.46 42.83 76.31 46.17 72.44 49.21 C68.4 52.56 68.01 55.41 67 60.46 C65.19 62.52 65.19 62.52 63 63.46 C58.6 63.08 56.22 61.38 52.88 58.59 C52.03 57.89 51.18 57.19 50.31 56.47 C46.42 53.08 46.42 53.08 45 51.46 C45 50.8 45 50.14 45 49.46 C44.36 49.19 43.73 48.92 43.07 48.65 C41 47.46 41 47.46 40 44.46 C38.68 43.77 37.35 43.11 36 42.46 C34.28 41.03 32.59 39.54 30.94 38.02 C30.08 37.24 29.23 36.46 28.34 35.65 C27.57 34.93 26.8 34.21 26 33.46 C25.41 32.91 24.81 32.37 24.2 31.8 C23 30.46 23 30.46 23 28.46 C21.69 27.76 20.35 27.1 19 26.46 C18.08 26 18.08 26 17.13 25.52 C14.65 25.24 14.65 25.24 11.82 27.65 C8.7 30.76 8.15 32.17 7.88 36.41 C7.88 37.09 7.88 37.77 7.88 38.47 C7.88 39.26 7.88 40.05 7.88 40.86 C7.88 41.72 7.89 42.57 7.89 43.45 C7.89 44.36 7.89 45.27 7.89 46.2 C7.89 49.2 7.9 52.2 7.91 55.2 C7.91 57.27 7.91 59.35 7.91 61.43 C7.91 66.9 7.92 72.38 7.94 77.85 C7.95 83.43 7.95 89.01 7.96 94.6 C7.97 105.55 7.98 116.51 8 127.46 C3.76 128.64 -0.93 129.49 -5 127.46 C-4.99 126.35 -4.99 125.23 -4.99 124.09 C-4.97 113.46 -4.95 102.83 -4.94 92.2 C-4.94 86.73 -4.93 81.27 -4.92 75.81 C-4.91 69.49 -4.9 63.17 -4.9 56.86 C-4.9 55.83 -4.9 54.8 -4.9 53.75 C-4.89 43.85 -4.91 33.97 -5.33 24.08 C-5.36 23.38 -5.39 22.69 -5.42 21.97 C-5.55 18.86 -5.71 15.75 -5.91 12.64 C-5.96 11.6 -6.02 10.55 -6.07 9.48 C-6.13 8.6 -6.19 7.71 -6.25 6.8 C-5.79 2.56 -4.18 0.64 0 0 Z " fill="#17171B" transform="translate(336.99609375,413.5390625)"/>
<path d="M0 0 C1.7 0.03 1.7 0.03 3.44 0.05 C5.28 0.09 5.28 0.09 7.17 0.12 C8.42 0.14 9.68 0.17 10.98 0.19 C13.64 0.23 16.3 0.28 18.97 0.33 C22.38 0.4 25.8 0.46 29.22 0.51 C32.47 0.57 35.72 0.63 38.98 0.69 C40.82 0.72 40.82 0.72 42.71 0.75 C43.84 0.77 44.98 0.79 46.14 0.82 C47.65 0.84 47.65 0.84 49.18 0.87 C51.57 1.04 51.57 1.04 53.57 2.04 C53.57 5.01 53.57 7.98 53.57 11.04 C54.54 11.33 55.51 11.62 56.51 11.91 C59.57 13.04 59.57 13.04 60.57 15.04 C60.68 17.66 60.72 20.26 60.72 22.88 C60.72 23.69 60.72 24.5 60.73 25.33 C60.74 28.02 60.74 30.71 60.74 33.4 C60.74 35.26 60.75 37.13 60.75 39 C60.76 42.91 60.76 46.83 60.76 50.75 C60.76 55.76 60.77 60.78 60.79 65.79 C60.8 69.65 60.8 73.51 60.8 77.36 C60.8 79.21 60.81 81.06 60.81 82.91 C60.82 85.5 60.82 88.09 60.82 90.68 C60.82 91.44 60.83 92.2 60.83 92.98 C60.81 97.37 60.33 101 58.57 105.04 C56.29 106.72 56.29 106.72 53.63 107.91 C52.76 108.32 51.88 108.73 50.98 109.15 C48.57 110.04 48.57 110.04 45.57 110.04 C46.38 112.22 46.38 112.22 48.57 112.78 C50.19 113.24 51.82 113.7 53.44 114.16 C55.57 115.04 55.57 115.04 57.57 118.04 C37.44 118.04 17.31 118.04 -3.43 118.04 C-3.76 117.05 -4.09 116.06 -4.43 115.04 C-9.61 113.79 -14.8 113.74 -20.1 113.61 C-25.63 113.37 -29.72 112.16 -34.18 108.66 C-37.42 104.45 -37.65 100.38 -37.55 95.2 C-37.54 93.89 -37.52 92.58 -37.51 91.23 C-37.47 89.16 -37.43 87.1 -37.39 85.03 C-37.35 83.03 -37.33 81.02 -37.3 79.01 C-37.28 77.82 -37.26 76.62 -37.23 75.39 C-37.43 71.93 -38.26 69.29 -39.43 66.04 C-39.55 62.66 -39.55 62.66 -39.43 60.04 C-40.23 60.22 -41.04 60.41 -41.87 60.6 C-42.71 60.74 -43.56 60.89 -44.43 61.04 C-45.43 60.04 -45.43 60.04 -45.55 58.21 C-45.55 57.41 -45.54 56.61 -45.54 55.79 C-45.54 54.89 -45.54 53.99 -45.54 53.06 C-45.54 52.08 -45.53 51.11 -45.53 50.1 C-45.52 49.1 -45.52 48.1 -45.52 47.07 C-45.52 43.87 -45.5 40.67 -45.49 37.48 C-45.49 35.31 -45.48 33.15 -45.48 30.98 C-45.47 25.67 -45.45 20.35 -45.43 15.04 C-44.11 15.37 -42.79 15.7 -41.43 16.04 C-41.43 16.7 -41.43 17.36 -41.43 18.04 C-40.77 18.04 -40.11 18.04 -39.43 18.04 C-39.43 18.7 -39.43 19.36 -39.43 20.04 C-38.77 20.04 -38.11 20.04 -37.43 20.04 C-37.65 19.16 -37.88 18.27 -38.12 17.37 C-38.59 12.35 -36.39 10.08 -33.48 6.18 C-30.55 3.12 -28.57 2.61 -24.43 2.04 C-23.77 1.71 -23.11 1.38 -22.43 1.04 C-19.23 0.98 -16.04 1.02 -12.84 1.08 C-8.28 1.13 -4.56 -0.08 0 0 Z M-31.43 13.04 C-31.63 24.74 -31.81 36.44 -31.97 48.14 C-32.05 53.57 -32.13 59 -32.23 64.43 C-32.32 69.67 -32.39 74.91 -32.46 80.15 C-32.49 82.15 -32.52 84.16 -32.56 86.16 C-32.61 88.96 -32.65 91.75 -32.68 94.55 C-32.7 95.38 -32.72 96.22 -32.74 97.08 C-32.79 99.61 -32.79 99.61 -32.43 103.04 C-28.8 105.46 -26.15 105.32 -21.96 105.3 C-21.2 105.3 -20.44 105.3 -19.66 105.31 C-17.16 105.32 -14.65 105.31 -12.14 105.3 C-10.4 105.3 -8.66 105.31 -6.92 105.31 C-3.28 105.31 0.37 105.31 4.01 105.3 C8.69 105.29 13.37 105.29 18.05 105.31 C21.65 105.31 25.24 105.31 28.83 105.31 C30.56 105.3 32.28 105.31 34.01 105.31 C36.42 105.32 38.82 105.31 41.23 105.3 C42.31 105.3 42.31 105.3 43.41 105.31 C47.44 105.39 47.44 105.39 50.57 103.04 C50.73 100.2 50.76 97.47 50.71 94.64 C50.7 93.77 50.69 92.9 50.68 92.01 C50.65 89.13 50.6 86.25 50.55 83.37 C50.52 81.38 50.5 79.39 50.47 77.4 C50.41 72.14 50.33 66.89 50.25 61.64 C50.17 56.29 50.1 50.93 50.03 45.58 C49.89 35.06 49.73 24.55 49.57 14.04 C46.54 12.52 43.41 12.91 40.09 12.92 C38.94 12.92 38.94 12.92 37.76 12.92 C35.2 12.92 32.65 12.93 30.1 12.94 C28.33 12.94 26.56 12.94 24.79 12.94 C20.13 12.95 15.47 12.96 10.81 12.97 C6.06 12.98 1.31 12.98 -3.44 12.99 C-12.77 13 -22.1 13.02 -31.43 13.04 Z " fill="#040507" transform="translate(554.427734375,418.96240234375)"/>
<path d="M0 0 C0.89 -0 1.78 -0 2.7 -0 C3.63 -0 4.57 0 5.54 0.01 C6.47 0 7.4 0 8.36 -0 C9.25 -0 10.14 -0 11.06 0 C11.88 0 12.7 0 13.55 0 C15.6 0.13 15.6 0.13 17.6 1.13 C17.75 18.98 17.9 36.82 18.04 54.67 C18.11 62.95 18.17 71.24 18.25 79.52 C18.31 86.74 18.37 93.96 18.42 101.18 C18.45 105.01 18.48 108.83 18.52 112.66 C18.55 116.25 18.58 119.85 18.6 123.44 C18.62 125.4 18.64 127.36 18.66 129.31 C18.67 130.47 18.67 131.62 18.68 132.81 C18.69 133.82 18.7 134.83 18.71 135.87 C18.6 138.13 18.6 138.13 17.6 139.13 C16.04 139.22 14.47 139.24 12.91 139.23 C11.96 139.23 11.02 139.22 10.04 139.22 C9.05 139.21 8.06 139.2 7.04 139.2 C6.04 139.19 5.04 139.19 4.01 139.18 C1.54 139.17 -0.93 139.15 -3.4 139.13 C-5.36 135.84 -5.65 133.38 -5.65 129.57 C-5.65 128.44 -5.66 127.31 -5.66 126.14 C-5.66 124.91 -5.65 123.67 -5.65 122.39 C-5.65 121.09 -5.65 119.78 -5.65 118.44 C-5.66 114.86 -5.65 111.28 -5.64 107.7 C-5.63 103.96 -5.63 100.22 -5.63 96.48 C-5.63 90.2 -5.62 83.92 -5.61 77.64 C-5.59 70.37 -5.59 63.1 -5.59 55.83 C-5.59 48.84 -5.58 41.85 -5.58 34.86 C-5.57 31.89 -5.57 28.91 -5.57 25.93 C-5.57 21.78 -5.56 17.63 -5.55 13.48 C-5.55 12.24 -5.55 11 -5.55 9.72 C-5.54 8.59 -5.54 7.47 -5.54 6.31 C-5.53 5.33 -5.53 4.35 -5.53 3.34 C-5.3 -0.61 -3.49 0 0 0 Z " fill="#060709" transform="translate(112.40234375,408.8671875)"/>
<path d="M0 0 C1.4 -0.03 1.4 -0.03 2.83 -0.06 C3.72 -0.07 4.61 -0.07 5.53 -0.08 C6.76 -0.09 6.76 -0.09 8.02 -0.11 C8.69 0.01 9.37 0.13 10.06 0.25 C12.27 3.57 12.31 4.56 12.31 8.42 C12.31 9.49 12.32 10.56 12.32 11.66 C12.31 13.42 12.31 13.42 12.31 15.22 C12.31 16.45 12.31 17.69 12.31 18.96 C12.31 22.35 12.31 25.74 12.3 29.13 C12.29 32.68 12.29 36.22 12.29 39.77 C12.29 45.72 12.28 51.67 12.27 57.63 C12.25 64.51 12.25 71.4 12.25 78.29 C12.25 84.91 12.24 91.53 12.24 98.15 C12.23 100.97 12.23 103.79 12.23 106.61 C12.23 110.54 12.22 114.48 12.21 118.41 C12.21 120.18 12.21 120.18 12.21 121.97 C12.2 123.04 12.2 124.11 12.2 125.21 C12.19 126.14 12.19 127.07 12.19 128.03 C12.06 130.25 12.06 130.25 11.06 132.25 C11.02 134.58 11.02 136.92 11.06 139.25 C7.58 139.28 4.1 139.3 0.62 139.31 C-0.37 139.32 -1.36 139.33 -2.38 139.34 C-3.33 139.34 -4.27 139.34 -5.25 139.35 C-6.12 139.35 -7 139.36 -7.9 139.36 C-9.94 139.25 -9.94 139.25 -10.94 138.25 C-11.04 136.48 -11.06 134.71 -11.06 132.94 C-11.07 131.78 -11.07 130.63 -11.07 129.44 C-11.07 128.17 -11.07 126.89 -11.07 125.58 C-11.07 124.23 -11.07 122.88 -11.07 121.53 C-11.08 117.86 -11.07 114.19 -11.07 110.52 C-11.07 106.68 -11.07 102.85 -11.07 99.02 C-11.08 92.58 -11.07 86.14 -11.07 79.7 C-11.06 72.24 -11.06 64.79 -11.07 57.33 C-11.07 50.94 -11.07 44.55 -11.07 38.16 C-11.07 34.34 -11.07 30.52 -11.07 26.7 C-11.08 23.11 -11.07 19.51 -11.07 15.92 C-11.07 13.97 -11.07 12.01 -11.07 10.06 C-11.07 8.9 -11.07 7.75 -11.06 6.56 C-11.06 5.56 -11.06 4.55 -11.06 3.51 C-10.77 -1.83 -4.14 0.02 0 0 Z " fill="#8F959C" transform="translate(835.9375,408.75)"/>
<path d="M0 0 C0.33 0.66 0.66 1.32 1 2 C1.66 2.33 2.32 2.66 3 3 C2.99 3.95 2.99 4.91 2.98 5.89 C2.93 18.45 3.2 31 3.5 43.56 C3.55 45.65 3.6 47.74 3.64 49.83 C3.76 54.89 3.88 59.94 4 65 C5.65 65 7.3 65 9 65 C12.13 74.94 12.25 84.05 11.94 94.39 C11.88 96.35 11.85 98.31 11.81 100.27 C11.78 101.42 11.74 102.57 11.71 103.76 C12.12 108.33 13.58 111.71 17 114.81 C21.79 117.65 27.01 117.32 32.4 117.52 C37.51 117.76 42.07 118.62 47 120 C46.01 120.5 46.01 120.5 45 121 C45 121.66 45 122.32 45 123 C45.97 122.93 46.93 122.86 47.93 122.78 C60.14 121.94 72.32 121.88 84.56 121.94 C86.56 121.94 88.55 121.95 90.54 121.95 C95.36 121.96 100.18 121.98 105 122 C102.77 119.77 101.34 119.31 98.38 118.38 C97.56 118.11 96.74 117.85 95.9 117.59 C95.27 117.39 94.65 117.2 94 117 C94 116.34 94 115.68 94 115 C94.6 114.73 95.21 114.47 95.83 114.2 C96.63 113.84 97.43 113.49 98.25 113.12 C99.04 112.78 99.83 112.43 100.64 112.07 C101.42 111.72 102.2 111.36 103 111 C104.11 110.59 104.11 110.59 105.23 110.18 C107.2 109.14 107.2 109.14 107.6 106.94 C108.11 103.2 108.14 99.52 108.13 95.75 C108.13 94.94 108.13 94.12 108.13 93.28 C108.14 90.59 108.14 87.9 108.13 85.21 C108.13 83.34 108.13 81.46 108.14 79.59 C108.14 75.68 108.14 71.76 108.13 67.84 C108.12 62.82 108.13 57.79 108.13 52.76 C108.14 48.9 108.14 45.04 108.13 41.18 C108.13 39.32 108.13 37.47 108.14 35.62 C108.14 33.03 108.13 30.44 108.13 27.86 C108.13 26.7 108.13 26.7 108.14 25.52 C108.2 21.63 108.2 21.63 107 18 C105.02 17.27 103.02 16.6 101 16 C101.33 13.03 101.66 10.06 102 7 C101.03 7.01 100.05 7.01 99.05 7.02 C90.77 7.06 82.5 6.97 74.22 6.75 C73.31 6.72 72.4 6.7 71.46 6.67 C67.69 6.57 63.93 6.46 60.16 6.35 C57.37 6.27 54.58 6.2 51.79 6.12 C50.93 6.09 50.08 6.07 49.19 6.04 C44.97 5.8 44.97 5.8 41 7 C38.59 7.15 36.17 7.22 33.75 7.25 C32.45 7.28 31.14 7.3 29.8 7.33 C25.82 6.98 23.41 6.01 20 4 C23.02 0.98 26.47 1.67 30.53 1.63 C31.42 1.62 32.3 1.6 33.21 1.59 C36.14 1.54 39.07 1.51 42 1.48 C44.03 1.45 46.06 1.43 48.09 1.4 C52.35 1.35 56.61 1.3 60.87 1.26 C66.33 1.2 71.8 1.12 77.26 1.04 C81.46 0.98 85.65 0.93 89.84 0.89 C91.86 0.87 93.88 0.84 95.89 0.81 C98.71 0.76 101.52 0.74 104.34 0.72 C105.17 0.7 106.01 0.69 106.87 0.67 C112.55 0.66 112.55 0.66 114.73 2.32 C116.79 5.05 116.03 7.96 115.69 11.18 C115.12 18.25 114.89 25.25 114.89 32.34 C114.89 33.35 114.89 34.36 114.88 35.4 C114.89 38.63 114.89 41.86 114.9 45.09 C114.9 47.36 114.91 49.64 114.91 51.92 C114.91 57.86 114.92 63.8 114.93 69.74 C114.94 75.81 114.95 81.88 114.95 87.95 C114.96 99.33 114.98 110.7 115 122.07 C115 123.71 115 125.36 115 127 C77.05 127 39.1 127 0 127 C-2.25 119.14 -2.25 119.14 -1.98 114.34 C-1.9 112.7 -1.9 112.7 -1.82 111.02 C-1.76 109.82 -1.69 108.62 -1.62 107.39 C-1.06 94.3 -0.91 81.24 -0.94 68.14 C-0.94 66.72 -0.94 66.72 -0.94 65.28 C-0.95 58.45 -0.98 51.63 -1 44.81 C-1.02 37.89 -1.04 30.98 -1.06 24.06 C-1.06 21.32 -1.07 18.58 -1.09 15.83 C-1.09 14.17 -1.09 12.51 -1.1 10.85 C-1.1 10.1 -1.11 9.34 -1.11 8.56 C-1.11 5.43 -1 3 0 0 Z " fill="#17171B" transform="translate(506,414)"/>
<path d="M0 0 C18.37 -0.02 36.73 -0.04 55.1 -0.05 C63.63 -0.06 72.16 -0.06 80.68 -0.08 C88.11 -0.09 95.54 -0.09 102.97 -0.09 C106.91 -0.1 110.85 -0.1 114.78 -0.11 C118.48 -0.11 122.18 -0.11 125.88 -0.11 C127.9 -0.11 129.91 -0.12 131.93 -0.12 C133.12 -0.12 134.3 -0.12 135.53 -0.12 C136.57 -0.12 137.6 -0.12 138.67 -0.12 C141 0 141 0 142 1 C143.29 7.46 143.14 13.93 143.13 20.5 C143.13 22.36 143.13 22.36 143.13 24.27 C143.14 27.67 143.14 31.06 143.13 34.46 C143.13 38.02 143.13 41.58 143.14 45.14 C143.14 51.11 143.14 57.08 143.13 63.05 C143.12 69.96 143.13 76.86 143.13 83.76 C143.14 89.7 143.14 95.63 143.13 101.57 C143.13 105.11 143.13 108.65 143.14 112.19 C143.14 116.13 143.13 120.08 143.13 124.02 C143.13 125.2 143.13 126.37 143.14 127.58 C143.13 128.65 143.13 129.72 143.13 130.83 C143.13 132.23 143.13 132.23 143.13 133.65 C143 136 143 136 142 139 C139.03 139 136.06 139 133 139 C133.66 138.67 134.32 138.34 135 138 C136.08 134.95 136.13 132.04 136.13 128.82 C136.14 127.78 136.14 126.73 136.15 125.66 C136.15 124.51 136.15 123.37 136.15 122.19 C136.15 120.99 136.15 119.78 136.16 118.54 C136.16 115.23 136.17 111.93 136.17 108.62 C136.17 105.86 136.17 103.1 136.18 100.34 C136.18 93.84 136.19 87.33 136.19 80.83 C136.18 74.11 136.2 67.4 136.21 60.68 C136.22 54.92 136.23 49.15 136.23 43.39 C136.23 39.94 136.23 36.5 136.24 33.05 C136.25 29.22 136.25 25.38 136.24 21.55 C136.25 20.4 136.25 19.25 136.26 18.07 C136.26 17.03 136.25 15.99 136.25 14.92 C136.25 14.01 136.25 13.11 136.25 12.17 C136.2 9.79 136.2 9.79 134 8 C131.18 7.67 131.18 7.67 127.83 7.7 C126.53 7.68 125.23 7.66 123.89 7.65 C122.46 7.64 121.03 7.63 119.61 7.62 C118.14 7.6 116.67 7.59 115.2 7.57 C111.32 7.52 107.44 7.49 103.56 7.46 C97.39 7.41 91.22 7.34 85.05 7.27 C82.91 7.25 80.78 7.23 78.64 7.21 C71.33 7.15 64.09 6.84 56.8 6.22 C53.36 5.95 49.98 5.87 46.53 5.87 C45.28 5.87 44.03 5.86 42.74 5.86 C41.49 5.87 40.23 5.87 38.94 5.88 C37 5.87 37 5.87 35.03 5.86 C33.79 5.86 32.55 5.87 31.28 5.87 C30.17 5.87 29.05 5.87 27.91 5.87 C24.78 5.91 24.78 5.91 21 7 C15.06 7.33 9.12 7.66 3 8 C3 49.25 3 90.5 3 133 C5.31 133.99 7.62 134.98 10 136 C10.66 136.99 11.32 137.98 12 139 C10.19 139.03 8.38 139.05 6.56 139.06 C5.55 139.07 4.54 139.09 3.5 139.1 C1 139 1 139 0 138 C-0.1 136.22 -0.12 134.43 -0.12 132.64 C-0.12 131.48 -0.12 130.32 -0.12 129.12 C-0.12 127.83 -0.12 126.54 -0.11 125.22 C-0.11 123.86 -0.11 122.5 -0.11 121.14 C-0.11 117.44 -0.11 113.73 -0.1 110.03 C-0.1 106.17 -0.09 102.3 -0.09 98.44 C-0.09 91.11 -0.08 83.79 -0.07 76.47 C-0.06 68.13 -0.06 59.79 -0.05 51.46 C-0.04 34.3 -0.02 17.15 0 0 Z " fill="#840609" transform="translate(1034,409)"/>
<path d="M0 0 C0.96 0.01 1.93 0.01 2.92 0.02 C5.25 0.19 5.25 0.19 6.25 1.19 C6.35 2.79 6.38 4.4 6.38 6.01 C6.38 7.57 6.38 7.57 6.39 9.17 C6.38 10.9 6.38 10.9 6.38 12.67 C6.38 14.48 6.38 14.48 6.38 16.33 C6.39 19.65 6.39 22.97 6.38 26.3 C6.38 29.76 6.38 33.23 6.39 36.7 C6.39 42.53 6.39 48.36 6.38 54.19 C6.37 60.93 6.38 67.68 6.38 74.43 C6.39 80.21 6.39 85.99 6.38 91.77 C6.38 95.23 6.38 98.69 6.39 102.15 C6.39 106 6.38 109.85 6.38 113.71 C6.38 114.86 6.38 116.02 6.39 117.2 C6.38 118.25 6.38 119.29 6.38 120.37 C6.38 121.73 6.38 121.73 6.38 123.13 C6.25 125.19 6.25 125.19 5.25 126.19 C2.81 126.44 2.81 126.44 0.25 126.19 C-1.79 123.13 -2 122.54 -1.99 119.11 C-1.99 118.28 -2 117.45 -2 116.6 C-1.99 115.69 -1.98 114.78 -1.98 113.85 C-1.98 112.89 -1.98 111.94 -1.98 110.95 C-1.98 107.79 -1.96 104.62 -1.95 101.46 C-1.94 99.26 -1.94 97.07 -1.94 94.88 C-1.93 89.1 -1.91 83.33 -1.89 77.55 C-1.87 71.66 -1.86 65.77 -1.85 59.88 C-1.83 48.31 -1.79 36.75 -1.75 25.19 C-4.22 26.34 -5.8 27.24 -7.75 29.19 C-9.73 27.54 -11.71 25.89 -13.75 24.19 C-16.31 26.64 -18.61 29.22 -20.88 31.94 C-24.95 36.64 -29.62 40.66 -34.75 44.19 C-35.41 44.19 -36.07 44.19 -36.75 44.19 C-37.08 45.18 -37.41 46.17 -37.75 47.19 C-38.41 47.19 -39.07 47.19 -39.75 47.19 C-40.41 48.51 -41.07 49.83 -41.75 51.19 C-42.41 51.19 -43.07 51.19 -43.75 51.19 C-43.97 51.75 -44.19 52.32 -44.41 52.9 C-46.19 55.93 -48.44 57.63 -51.19 59.81 C-52.64 60.98 -52.64 60.98 -54.12 62.16 C-55.95 63.57 -57.83 64.91 -59.75 66.19 C-58.17 61.91 -55.24 59.92 -51.75 57.19 C-52.25 55.7 -52.25 55.7 -52.75 54.19 C-50.26 49.71 -47.24 46.62 -43.38 43.31 C-38.83 39.3 -35.1 35.24 -31.75 30.19 C-32.74 30.52 -33.73 30.85 -34.75 31.19 C-33.51 27.48 -31.75 26.59 -28.75 24.19 C-28.42 23.2 -28.09 22.21 -27.75 21.19 C-29.4 23.17 -31.05 25.15 -32.75 27.19 C-32.75 22.94 -30.79 21.51 -28.02 18.44 C-24.68 15.12 -21.03 12.24 -17.3 9.36 C-14.67 7.27 -14.67 7.27 -12.73 4.54 C-9.15 0.28 -5.36 -0.08 0 0 Z " fill="#17171B" transform="translate(461.75,414.8125)"/>
<path d="M0 0 C2.19 2.94 1.6 5.66 1.2 9.12 C1.06 10.67 0.93 12.22 0.81 13.77 C0.75 14.6 0.68 15.44 0.61 16.3 C0.31 20.94 0.32 25.58 0.33 30.23 C0.33 31.23 0.33 32.24 0.33 33.28 C0.33 36.49 0.34 39.69 0.34 42.9 C0.35 45.17 0.35 47.43 0.35 49.69 C0.35 55.59 0.36 61.49 0.37 67.38 C0.38 73.42 0.39 79.46 0.39 85.5 C0.4 97.31 0.42 109.12 0.44 120.93 C-0.99 121.01 -2.43 121.07 -3.87 121.12 C-5.07 121.17 -5.07 121.17 -6.3 121.22 C-9.08 120.86 -9.76 120 -11.56 117.93 C-13.82 116.94 -13.82 116.94 -16.25 116.24 C-17.05 115.99 -17.86 115.74 -18.69 115.48 C-19.31 115.3 -19.92 115.12 -20.56 114.93 C-20.56 114.27 -20.56 113.61 -20.56 112.93 C-19.95 112.67 -19.35 112.4 -18.73 112.13 C-17.93 111.77 -17.13 111.42 -16.31 111.06 C-15.52 110.71 -14.73 110.36 -13.92 110 C-13.14 109.65 -12.36 109.3 -11.56 108.93 C-10.45 108.53 -10.45 108.53 -9.32 108.11 C-7.36 107.07 -7.36 107.07 -6.96 104.87 C-6.45 101.14 -6.42 97.45 -6.43 93.68 C-6.43 92.87 -6.43 92.05 -6.42 91.21 C-6.42 88.52 -6.42 85.83 -6.43 83.14 C-6.42 81.27 -6.42 79.4 -6.42 77.52 C-6.42 73.61 -6.42 69.69 -6.43 65.78 C-6.43 60.75 -6.43 55.72 -6.42 50.69 C-6.42 46.83 -6.42 42.97 -6.42 39.11 C-6.42 37.26 -6.42 35.4 -6.42 33.55 C-6.42 30.96 -6.42 28.38 -6.43 25.79 C-6.43 24.63 -6.43 24.63 -6.42 23.46 C-6.36 19.57 -6.36 19.57 -7.56 15.93 C-9.54 15.2 -11.54 14.53 -13.56 13.93 C-13.23 10.96 -12.9 7.99 -12.56 4.93 C-13.53 4.94 -14.5 4.94 -15.51 4.95 C-23.79 4.99 -32.06 4.9 -40.34 4.68 C-41.25 4.65 -42.16 4.63 -43.1 4.6 C-46.87 4.5 -50.63 4.39 -54.4 4.28 C-57.19 4.2 -59.98 4.13 -62.77 4.05 C-63.63 4.03 -64.48 4 -65.36 3.97 C-69.59 3.73 -69.59 3.73 -73.56 4.93 C-75.97 5.08 -78.39 5.15 -80.81 5.18 C-82.11 5.21 -83.42 5.23 -84.76 5.26 C-88.74 4.92 -91.15 3.94 -94.56 1.93 C-91.55 -1.07 -88.17 -0.4 -84.13 -0.43 C-82.83 -0.46 -82.83 -0.46 -81.49 -0.48 C-78.6 -0.53 -75.71 -0.56 -72.82 -0.59 C-70.81 -0.61 -68.81 -0.64 -66.8 -0.67 C-62.59 -0.72 -58.38 -0.77 -54.17 -0.81 C-48.78 -0.87 -43.38 -0.94 -37.99 -1.03 C-33.84 -1.09 -29.7 -1.14 -25.56 -1.18 C-23.57 -1.2 -21.58 -1.23 -19.59 -1.26 C-16.81 -1.3 -14.02 -1.33 -11.24 -1.35 C-10.42 -1.37 -9.59 -1.38 -8.74 -1.4 C-5.56 -1.41 -2.96 -1.23 0 0 Z " fill="#17171B" transform="translate(620.5579986572266,416.0682067871094)"/>
<path d="M0 0 C0 40.92 0 81.84 0 124 C4.95 124 9.9 124 15 124 C15 122.84 14.99 121.67 14.99 120.47 C14.95 109.5 14.92 98.52 14.9 87.54 C14.89 81.9 14.87 76.26 14.85 70.61 C14.83 65.17 14.82 59.72 14.81 54.27 C14.81 52.2 14.8 50.12 14.79 48.04 C14.77 45.13 14.77 42.22 14.77 39.31 C14.77 38.45 14.76 37.6 14.75 36.71 C14.77 32.07 15.22 28.37 17 24 C17.99 24 18.98 24 20 24 C20.81 26.84 21.13 29.36 21.13 32.31 C21.13 33.16 21.13 34.02 21.14 34.9 C21.13 35.82 21.13 36.75 21.13 37.71 C21.13 38.69 21.13 39.68 21.13 40.69 C21.14 43.94 21.14 47.2 21.13 50.45 C21.13 52.71 21.13 54.96 21.14 57.22 C21.14 61.95 21.14 66.67 21.13 71.4 C21.12 77.47 21.13 83.55 21.13 89.62 C21.14 94.28 21.14 98.93 21.13 103.59 C21.13 105.83 21.13 108.07 21.14 110.31 C21.14 113.43 21.13 116.56 21.13 119.68 C21.13 120.61 21.13 121.55 21.14 122.51 C21.11 128.89 21.11 128.89 20 130 C18.38 130.1 16.75 130.13 15.12 130.13 C14.14 130.13 13.16 130.14 12.14 130.14 C11.1 130.13 10.07 130.13 9 130.12 C7.96 130.13 6.93 130.13 5.86 130.14 C4.87 130.14 3.89 130.13 2.88 130.13 C1.96 130.13 1.05 130.13 0.12 130.13 C-2 130 -2 130 -3 129 C-3.1 127.34 -3.12 125.68 -3.12 124.02 C-3.12 122.4 -3.12 122.4 -3.12 120.75 C-3.12 119.56 -3.12 118.37 -3.11 117.14 C-3.11 115.89 -3.11 114.64 -3.11 113.35 C-3.11 109.92 -3.11 106.49 -3.1 103.05 C-3.1 99.47 -3.09 95.88 -3.09 92.3 C-3.09 85.5 -3.08 78.71 -3.07 71.92 C-3.06 64.19 -3.06 56.46 -3.05 48.72 C-3.04 32.82 -3.02 16.91 -3 1 C-1 0 -1 0 0 0 Z " fill="#040508" transform="translate(157,418)"/>
<path d="M0 0 C2.62 0.94 2.62 0.94 5 2 C4.75 3.88 4.75 3.88 4 6 C3.41 6.29 2.82 6.58 2.21 6.88 C-0.45 8.23 -2.1 9.89 -4.19 12.03 C-5.36 13.22 -5.36 13.22 -6.55 14.43 C-7.36 15.26 -8.17 16.08 -9 16.94 C-10.6 18.57 -12.21 20.21 -13.81 21.84 C-14.52 22.57 -15.23 23.29 -15.96 24.04 C-18 26 -18 26 -20.18 27.58 C-22.25 28.96 -22.25 28.96 -23.25 31.81 C-26.16 37.11 -31.08 39.81 -36.12 42.94 C-39.71 45.51 -42.27 48.56 -45 52 C-50.1 50.25 -53.51 47.53 -57.25 43.69 C-59.55 41.44 -61.82 39.56 -64.38 37.62 C-69.3 33.85 -74.31 29.94 -77.44 24.5 C-79.4 21.36 -81.85 19.42 -84.66 17.04 C-87.36 14.69 -89.94 12.25 -92.5 9.75 C-93.36 8.92 -94.21 8.09 -95.09 7.23 C-97 5 -97 5 -97 2 C-94.64 1.16 -93.44 0.83 -91.06 1.75 C-88.76 3.15 -87.44 4.6 -85.75 6.69 C-83.29 9.6 -80.79 12.16 -77.88 14.62 C-73.93 17.98 -70.78 21.71 -67.6 25.8 C-63.94 30.27 -59.87 33.97 -55.38 37.56 C-54.55 38.24 -54.55 38.24 -53.71 38.94 C-51.23 40.85 -49.61 42 -46.43 42 C-35.62 37.56 -27.44 27.88 -19.99 19.21 C-15.86 14.62 -11.4 10.34 -7 6 C-5.66 4.63 -5.66 4.63 -4.29 3.23 C-2 1 -2 1 0 0 Z " fill="#020305" transform="translate(276,438)"/>
<path d="M0 0 C0.33 0.66 0.66 1.32 1 2 C2.06 1.98 3.12 1.95 4.21 1.93 C5.6 1.91 6.99 1.89 8.38 1.88 C9.42 1.85 9.42 1.85 10.49 1.82 C12.33 1.81 14.17 1.9 16 2 C18.75 4.75 18.3 6.43 18.38 10.29 C18.43 12.16 18.43 12.16 18.48 14.08 C18.51 15.39 18.54 16.71 18.56 18.06 C18.62 20.66 18.69 23.25 18.75 25.85 C18.78 27 18.8 28.16 18.83 29.35 C18.7 31.92 18.7 31.92 20 33 C21.63 33.09 23.26 33.12 24.89 33.11 C26.45 33.11 26.45 33.11 28.04 33.11 C29.74 33.11 29.74 33.11 31.47 33.1 C32.63 33.1 33.78 33.09 34.97 33.09 C38.66 33.09 42.36 33.08 46.06 33.06 C48.56 33.06 51.06 33.05 53.56 33.05 C59.71 33.04 65.85 33.02 72 33 C72.33 23.1 72.66 13.2 73 3 C76.33 1.89 78.87 1.87 82.38 1.88 C84.06 1.87 84.06 1.87 85.77 1.87 C88.64 1.99 91.21 2.34 94 3 C93.67 4.65 93.34 6.3 93 8 C92.08 8.06 91.17 8.12 90.23 8.18 C89.04 8.27 87.85 8.35 86.62 8.44 C84.85 8.56 84.85 8.56 83.04 8.68 C80.08 8.81 80.08 8.81 78 10 C77.99 10.71 77.98 11.42 77.97 12.16 C77.92 15.38 77.83 18.59 77.75 21.81 C77.74 22.93 77.72 24.05 77.71 25.21 C77.67 26.28 77.64 27.35 77.61 28.46 C77.59 29.45 77.57 30.44 77.55 31.46 C77 34 77 34 75.24 35.8 C67.39 40 55.71 38.04 47.1 37.87 C42.4 37.82 38.1 37.79 33.55 39.08 C29.88 40.03 28.37 40.02 24.88 38.75 C24.04 38.45 23.2 38.15 22.34 37.84 C21.57 37.56 20.79 37.29 20 37 C18.85 36.77 17.69 36.55 16.5 36.31 C14 35 14 35 12.88 31.57 C11.77 26.58 11.55 21.6 11.38 16.5 C11.34 15.58 11.3 14.66 11.26 13.72 C11.16 11.48 11.08 9.24 11 7 C9.73 7.18 8.46 7.37 7.16 7.56 C3.8 8.05 1.87 8.03 -1 6 C-0.67 4.02 -0.34 2.04 0 0 Z " fill="#7F0709" transform="translate(1059,491)"/>
<path d="M0 0 C8.79 3.68 11.94 10.79 15.69 19.12 C16.96 22.26 16.96 22.26 19.62 24.06 C22.41 25.5 23.12 27.45 24.69 30.12 C25.77 30.9 25.77 30.9 26.88 31.69 C27.47 32.16 28.07 32.64 28.69 33.12 C28.69 34.44 28.69 35.76 28.69 37.12 C29.32 37.38 29.95 37.63 30.59 37.89 C33.14 39.39 33.33 40.17 34.19 42.94 C36.4 48.52 40.27 52.25 44.54 56.34 C48.27 60.08 49.45 62.64 49.69 68.12 C44.81 65.68 42.07 62.26 38.69 58.12 C37.5 56.77 36.32 55.41 35.12 54.06 C34.54 53.39 33.96 52.72 33.36 52.03 C32.33 50.86 31.29 49.69 30.24 48.53 C27.59 45.54 26.12 42.78 24.68 39.09 C22.93 35.62 20.35 32.79 17.88 29.81 C13.42 24.35 9.2 18.63 5.5 12.62 C3.51 9.89 1.69 8.63 -1.31 7.12 C-3.97 10.33 -6.22 13.53 -8.31 17.12 C-12.58 24.43 -12.58 24.43 -15.81 27.5 C-18.81 30.64 -20.28 33.88 -22.13 37.77 C-23.53 40.57 -25.27 42.76 -27.31 45.12 C-28.09 46.27 -28.86 47.41 -29.62 48.56 C-31.92 51.84 -34.58 54.14 -37.68 56.64 C-40.05 58.8 -41.56 61.46 -43.31 64.12 C-45.56 65.5 -45.56 65.5 -47.31 66.12 C-47.75 64.06 -47.75 64.06 -47.31 61.12 C-44.33 57.23 -40.71 54.32 -36.56 51.75 C-32.79 49.23 -32.24 46.42 -31.12 42.18 C-30.31 40.12 -30.31 40.12 -27.31 38.19 C-23.35 35.46 -23.27 33.18 -22.16 28.68 C-20.86 24.75 -18.47 21.78 -15.31 19.12 C-14.65 19.12 -13.99 19.12 -13.31 19.12 C-13.04 18.4 -12.78 17.68 -12.5 16.94 C-11.32 14.14 -9.87 11.72 -8.31 9.12 C-8 8.28 -7.69 7.43 -7.38 6.56 C-5.8 2.94 -4.18 0.23 0 0 Z " fill="#7F0608" transform="translate(1104.3125,424.875)"/>
<path d="M0 0 C2.06 0.44 2.06 0.44 4 1 C4 1.57 4 2.15 3.99 2.74 C3.95 16.76 3.92 30.77 3.9 44.79 C3.89 51.56 3.87 58.34 3.85 65.12 C3.83 71.66 3.82 78.2 3.81 84.74 C3.81 87.24 3.8 89.73 3.79 92.23 C3.77 95.72 3.77 99.22 3.77 102.72 C3.77 103.75 3.76 104.77 3.75 105.83 C3.76 110.25 3.92 114.24 5.08 118.52 C6 122 6 122 5 125 C3.35 125 1.7 125 0 125 C-0.9 121.92 -1.13 119.17 -1.13 115.97 C-1.13 114.96 -1.13 113.94 -1.14 112.9 C-1.13 111.79 -1.13 110.69 -1.13 109.55 C-1.13 107.79 -1.13 107.79 -1.13 106 C-1.14 102.13 -1.14 98.26 -1.13 94.39 C-1.13 91.71 -1.13 89.03 -1.14 86.35 C-1.14 80.73 -1.14 75.1 -1.13 69.48 C-1.12 62.98 -1.13 56.47 -1.13 49.96 C-1.14 44.38 -1.14 38.8 -1.13 33.22 C-1.13 29.88 -1.13 26.54 -1.14 23.21 C-1.14 19.49 -1.13 15.78 -1.13 12.07 C-1.13 10.95 -1.13 9.84 -1.14 8.7 C-1.13 7.69 -1.13 6.68 -1.13 5.65 C-1.13 4.77 -1.13 3.89 -1.13 2.99 C-1 1 -1 1 0 0 Z " fill="#313236" transform="translate(116,416)"/>
<path d="M0 0 C1.32 0.66 2.64 1.32 4 2 C3.67 47.21 3.34 92.42 3 139 C1.68 138.67 0.36 138.34 -1 138 C-1.02 120.15 -1.04 102.31 -1.05 84.46 C-1.06 76.18 -1.06 67.89 -1.08 59.61 C-1.09 52.39 -1.09 45.17 -1.09 37.95 C-1.1 34.13 -1.1 30.3 -1.11 26.48 C-1.11 22.88 -1.11 19.29 -1.11 15.69 C-1.11 13.73 -1.12 11.78 -1.12 9.82 C-1.12 8.66 -1.12 7.51 -1.12 6.32 C-1.12 5.31 -1.12 4.3 -1.12 3.26 C-1 1 -1 1 0 0 Z " fill="#70686A" transform="translate(826,409)"/>
<path d="M0 0 C-15.04 7.52 -43 2.93 -59.36 2.37 C-60.25 2.34 -61.14 2.31 -62.06 2.28 C-63.74 2.22 -65.43 2.16 -67.11 2.09 C-71.18 1.83 -71.18 1.83 -75 3 C-77.41 3.15 -79.83 3.22 -82.25 3.25 C-83.55 3.28 -84.86 3.3 -86.2 3.33 C-90.18 2.98 -92.59 2.01 -96 0 C-92.99 -3.01 -89.61 -2.33 -85.57 -2.37 C-84.27 -2.39 -84.27 -2.39 -82.93 -2.41 C-80.04 -2.46 -77.15 -2.49 -74.26 -2.52 C-72.25 -2.55 -70.25 -2.57 -68.24 -2.6 C-64.03 -2.65 -59.83 -2.7 -55.62 -2.74 C-50.22 -2.8 -44.82 -2.88 -39.43 -2.96 C-35.29 -3.02 -31.14 -3.07 -27 -3.11 C-25.01 -3.13 -23.02 -3.16 -21.03 -3.19 C-18.25 -3.24 -15.47 -3.26 -12.68 -3.28 C-11.86 -3.3 -11.04 -3.31 -10.19 -3.33 C-5.86 -3.34 -3.12 -3.17 0 0 Z " fill="#313236" transform="translate(622,418)"/>
<path d="M0 0 C0.33 0.66 0.66 1.32 1 2 C1.66 2.33 2.32 2.66 3 3 C4.25 6.74 4.14 10.21 4.13 14.1 C4.13 14.92 4.13 15.75 4.13 16.59 C4.14 19.32 4.14 22.05 4.13 24.78 C4.13 26.68 4.13 28.57 4.14 30.46 C4.14 34.44 4.14 38.41 4.13 42.38 C4.12 47.47 4.13 52.57 4.13 57.66 C4.14 61.57 4.14 65.48 4.13 69.4 C4.13 71.28 4.13 73.15 4.14 75.03 C4.14 77.66 4.13 80.28 4.13 82.9 C4.13 83.68 4.13 84.46 4.14 85.27 C4.12 88.45 4.01 90.96 3 94 C3.88 96.66 3.88 96.66 5 99 C2.52 99.5 2.52 99.5 0 100 C-1.31 96.06 -1.14 92.3 -1.13 88.19 C-1.13 87.28 -1.13 86.38 -1.13 85.46 C-1.14 82.47 -1.14 79.49 -1.13 76.5 C-1.13 74.43 -1.13 72.36 -1.14 70.29 C-1.14 65.95 -1.14 61.6 -1.13 57.26 C-1.12 51.69 -1.13 46.12 -1.13 40.55 C-1.14 36.27 -1.14 31.99 -1.13 27.72 C-1.13 25.66 -1.13 23.61 -1.14 21.55 C-1.14 18.68 -1.13 15.81 -1.13 12.94 C-1.13 12.09 -1.13 11.24 -1.14 10.37 C-1.12 6.74 -0.98 3.49 0 0 Z " fill="#313236" transform="translate(289,441)"/>
<path d="M0 0 C0 40.59 0 81.18 0 123 C-0.99 123.5 -0.99 123.5 -2 124 C-2.98 121.05 -3.12 119.16 -3.12 116.08 C-3.12 115.07 -3.12 114.06 -3.12 113.01 C-3.12 111.9 -3.12 110.79 -3.11 109.64 C-3.11 108.47 -3.11 107.3 -3.11 106.1 C-3.11 102.89 -3.11 99.67 -3.1 96.46 C-3.1 93.11 -3.09 89.75 -3.09 86.4 C-3.09 80.05 -3.08 73.69 -3.07 67.34 C-3.06 60.1 -3.06 52.87 -3.05 45.64 C-3.04 30.76 -3.02 15.88 -3 1 C-1 0 -1 0 0 0 Z " fill="#030407" transform="translate(157,418)"/>
<path d="M0 0 C0.85 -0 1.69 -0.01 2.56 -0.01 C24.46 -0.06 24.46 -0.06 29.06 1.12 C30.05 2.61 30.05 2.61 31.06 4.12 C28.21 4.94 25.68 5.25 22.71 5.25 C21.85 5.25 20.98 5.25 20.09 5.25 C19.15 5.25 18.21 5.24 17.25 5.24 C16.25 5.24 15.25 5.24 14.23 5.24 C10.94 5.24 7.65 5.23 4.36 5.22 C2.08 5.22 -0.2 5.22 -2.48 5.22 C-8.49 5.21 -14.49 5.2 -20.5 5.19 C-26.62 5.18 -32.75 5.18 -38.88 5.17 C-50.9 5.16 -62.92 5.15 -74.94 5.12 C-74.94 4.13 -74.94 3.14 -74.94 2.12 C-72.65 0.98 -71.31 0.97 -68.77 0.92 C-67.47 0.89 -67.47 0.89 -66.13 0.86 C-65.18 0.84 -64.23 0.83 -63.25 0.81 C-62.25 0.79 -61.25 0.77 -60.23 0.75 C-56.94 0.68 -53.66 0.62 -50.38 0.56 C-48.7 0.53 -48.7 0.53 -46.99 0.5 C-31.33 0.21 -15.67 0.02 0 0 Z " fill="#313236" transform="translate(590.9375,535.875)"/>
<path d="M0 0 C0.33 0.66 0.66 1.32 1 2 C1.66 2.33 2.32 2.66 3 3 C3.02 14.6 3.04 26.2 3.05 37.79 C3.06 43.18 3.06 48.57 3.08 53.96 C3.09 59.18 3.09 64.4 3.09 69.62 C3.1 71.59 3.1 73.56 3.11 75.53 C3.14 89.71 2.73 103.84 2 118 C1.34 118 0.68 118 0 118 C-1.19 115.61 -1.13 114.15 -1.13 111.49 C-1.13 110.54 -1.13 109.59 -1.14 108.61 C-1.13 107.57 -1.13 106.52 -1.13 105.45 C-1.13 103.8 -1.13 103.8 -1.13 102.12 C-1.14 98.48 -1.14 94.83 -1.13 91.19 C-1.13 88.67 -1.13 86.14 -1.14 83.62 C-1.14 78.33 -1.14 73.03 -1.13 67.74 C-1.12 61.61 -1.13 55.49 -1.13 49.36 C-1.14 43.48 -1.14 37.59 -1.13 31.7 C-1.13 29.2 -1.13 26.69 -1.14 24.18 C-1.14 20.68 -1.13 17.18 -1.13 13.68 C-1.13 12.12 -1.13 12.12 -1.14 10.52 C-1.13 9.57 -1.13 8.62 -1.13 7.64 C-1.13 6.81 -1.13 5.98 -1.13 5.13 C-1 3 -1 3 0 0 Z " fill="#313236" transform="translate(506,414)"/>
<path d="M0 0 C0.8 0.25 0.8 0.25 1.62 0.5 C4.49 1.1 7.13 1.06 10.06 1 C13.46 0.93 15.76 0.92 19 2 C19.33 2.66 19.66 3.32 20 4 C20.99 4.33 21.98 4.66 23 5 C23.33 5.99 23.66 6.98 24 8 C22.21 8.22 22.21 8.22 20.38 8.44 C16.44 9.41 14.82 10.95 12.5 14.25 C10.29 17.95 9.33 20.62 10 25 C9.34 25 8.68 25 8 25 C8 24.34 8 23.68 8 23 C7.34 23 6.68 23 6 23 C5.67 22.34 5.34 21.68 5 21 C2.98 20.35 2.98 20.35 1 20 C1.01 18.81 1.02 17.62 1.04 16.39 C1.04 14.82 1.05 13.25 1.06 11.69 C1.07 10.9 1.08 10.12 1.09 9.31 C1.09 8.55 1.09 7.79 1.1 7.01 C1.1 6.32 1.11 5.62 1.11 4.9 C1.07 2.78 1.07 2.78 0 0 Z " fill="#17171B" transform="translate(507,414)"/>
<path d="M0 0 C1.68 -0 1.68 -0 3.4 -0.01 C6.27 0.11 8.84 0.47 11.62 1.12 C11.3 2.77 10.96 4.43 10.62 6.12 C9.71 6.19 8.79 6.25 7.85 6.31 C6.66 6.39 5.47 6.48 4.25 6.56 C2.47 6.68 2.47 6.68 0.66 6.81 C-2.29 6.94 -2.29 6.94 -4.38 8.12 C-4.7 16.05 -5.04 23.97 -5.38 32.12 C-6.69 32.78 -8.02 33.45 -9.38 34.12 C-10.04 33.47 -10.69 32.8 -11.38 32.12 C-11.05 31.79 -10.71 31.47 -10.38 31.12 C-10.22 28.91 -10.12 26.69 -10.06 24.46 C-10.04 23.8 -10.02 23.14 -10 22.45 C-9.93 20.32 -9.87 18.19 -9.81 16.06 C-9.77 14.62 -9.73 13.18 -9.68 11.74 C-9.57 8.2 -9.47 4.66 -9.38 1.12 C-6.05 0.02 -3.5 -0.01 0 0 Z " fill="#7D080B" transform="translate(1141.375,492.875)"/>
<path d="M0 0 C0.99 0.33 1.98 0.66 3 1 C2.99 2 2.98 3 2.96 4.03 C2.96 5.32 2.95 6.61 2.94 7.94 C2.93 9.23 2.91 10.51 2.9 11.84 C2.63 14.86 2.63 14.86 4 16 C6.31 16.11 8.61 16.16 10.92 16.18 C12.35 16.2 13.79 16.22 15.22 16.25 C17.48 16.28 19.74 16.31 22.01 16.33 C24.19 16.34 26.37 16.38 28.55 16.43 C29.85 16.44 31.16 16.45 32.51 16.47 C36.48 17.07 38.15 18.25 41 21 C35.34 21.05 29.68 21.09 24.02 21.11 C22.09 21.12 20.17 21.13 18.24 21.15 C15.48 21.18 12.71 21.19 9.95 21.2 C9.08 21.21 8.22 21.22 7.33 21.23 C5.22 21.23 3.11 21.12 1 21 C-1 19 -1 19 -1.24 17.14 C-1.24 16.4 -1.23 15.66 -1.23 14.9 C-1.23 14.1 -1.23 13.3 -1.22 12.47 C-1.21 11.64 -1.2 10.8 -1.19 9.94 C-1.19 9.1 -1.19 8.26 -1.19 7.39 C-1.14 1.14 -1.14 1.14 0 0 Z " fill="#6D6466" transform="translate(925,471)"/>
<path d="M0 0 C0.33 0 0.66 0 1 0 C1.75 4.66 2.13 9.13 2.13 13.85 C2.13 14.49 2.13 15.14 2.13 15.8 C2.14 17.91 2.14 20.02 2.13 22.13 C2.13 23.61 2.13 25.08 2.14 26.56 C2.14 29.65 2.14 32.74 2.13 35.82 C2.12 39.77 2.13 43.72 2.13 47.66 C2.14 50.71 2.14 53.76 2.13 56.81 C2.13 58.26 2.13 59.72 2.14 61.17 C2.14 63.21 2.13 65.24 2.13 67.28 C2.13 68.44 2.13 69.59 2.13 70.78 C2 73.94 1.59 76.9 1 80 C0.67 80 0.34 80 0 80 C-1.25 72.27 -1.15 64.55 -1.13 56.74 C-1.13 55.26 -1.13 53.78 -1.14 52.3 C-1.14 49.22 -1.14 46.13 -1.13 43.05 C-1.12 39.1 -1.13 35.15 -1.13 31.2 C-1.14 28.16 -1.14 25.11 -1.13 22.06 C-1.13 20.6 -1.13 19.15 -1.14 17.69 C-1.14 15.66 -1.13 13.62 -1.13 11.59 C-1.13 10.44 -1.13 9.28 -1.13 8.09 C-1.01 5.27 -0.65 2.74 0 0 Z " fill="#313236" transform="translate(334,448)"/>
<path d="M0 0 C0.33 0 0.66 0 1 0 C1.33 46.2 1.66 92.4 2 140 C-0.61 141.3 -2.53 141.11 -5.45 141.1 C-7.06 141.09 -7.06 141.09 -8.71 141.09 C-9.83 141.08 -10.96 141.07 -12.12 141.06 C-13.26 141.06 -14.4 141.05 -15.57 141.05 C-18.38 141.04 -21.19 141.02 -24 141 C-24 140.01 -24 139.02 -24 138 C-16.41 138 -8.82 138 -1 138 C-0.67 92.46 -0.34 46.92 0 0 Z " fill="#CFCED0" transform="translate(131,409)"/>
<path d="M0 0 C7.37 0.12 14.74 0.24 22.11 0.37 C24.62 0.42 27.12 0.46 29.63 0.5 C33.23 0.55 36.83 0.62 40.43 0.68 C42.12 0.71 42.12 0.71 43.85 0.73 C45.41 0.76 45.41 0.76 47 0.79 C47.92 0.81 48.84 0.83 49.79 0.84 C52 1 52 1 54 2 C54 2.66 54 3.32 54 4 C45.34 5.1 36.82 5.04 28.1 4.87 C23.41 4.82 19.11 4.79 14.57 6.07 C10.88 7.03 9.13 7.02 5.56 5.88 C4.72 5.62 3.87 5.37 3 5.12 C1 4 1 4 0.37 1.93 C0.25 1.29 0.13 0.66 0 0 Z " fill="#800608" transform="translate(1078,524)"/>
<path d="M0 0 C2.17 2.11 4.12 4.31 6.06 6.62 C9.51 10.59 13.28 14.01 17.22 17.48 C22.34 22.12 27.15 27.08 32 32 C31.5 32.99 31.5 32.99 31 34 C24.31 28.87 18.16 23.37 12.19 17.44 C11.57 16.83 10.94 16.21 10.3 15.58 C6.1 11.35 2.46 6.86 -1 2 C-0.67 1.34 -0.34 0.68 0 0 Z " fill="#6F6669" transform="translate(687,420)"/>
<path d="M0 0 C2.06 -0.03 4.12 -0.05 6.19 -0.06 C7.34 -0.07 8.48 -0.09 9.67 -0.1 C12.59 -0.01 15.16 0.32 18 1 C17.67 2.65 17.34 4.3 17 6 C12.05 6.33 7.1 6.66 2 7 C2.33 5.35 2.66 3.7 3 2 C2.01 2 1.02 2 0 2 C0 1.34 0 0.68 0 0 Z " fill="#800608" transform="translate(1135,493)"/>
<path d="M0 0 C3.85 2.31 6.83 4.75 9.94 8 C12.39 10.53 14.58 12.53 17.69 14.19 C21.18 16.1 23.3 18.1 26 21 C27.1 22.11 28.2 23.21 29.31 24.31 C30.2 25.2 31.09 26.09 32 27 C31.67 27.66 31.34 28.32 31 29 C30.41 28.44 29.81 27.89 29.2 27.31 C24.8 23.26 20.41 19.48 15.5 16.06 C9.76 11.99 4.59 7.35 0 2 C0 1.34 0 0.68 0 0 Z " fill="#6F6668" transform="translate(696,461)"/>
<path d="M0 0 C4.78 0.44 6.71 2.3 9.94 5.75 C12.71 8.65 15.4 11.46 18.56 13.94 C21 16 21 16 22 19 C19.06 18.19 19.06 18.19 16 17 C15.67 16.01 15.34 15.02 15 14 C13.69 13.3 12.35 12.64 11 12 C6.27 8.77 3.26 4.62 0 0 Z " fill="#030406" transform="translate(364,444)"/>
<path d="M0 0 C0 4.18 -2.22 6.13 -5 9 C-6.7 10.49 -8.44 11.93 -10.19 13.38 C-12.1 15.09 -13.72 16.91 -15.38 18.88 C-19.19 23.38 -23.52 27.18 -28 31 C-28.66 30.67 -29.32 30.34 -30 30 C-20 20 -10 10 0 0 Z " fill="#313236" transform="translate(435,434)"/>
<path d="M0 0 C0.33 0 0.66 0 1 0 C2.06 5.17 2.12 10.12 2.06 15.38 C2.06 16.21 2.05 17.04 2.05 17.89 C2.04 19.93 2.02 21.96 2 24 C1.01 24 0.02 24 -1 24 C-1.03 20.19 -1.05 16.38 -1.06 12.56 C-1.07 11.47 -1.08 10.39 -1.09 9.26 C-1.09 8.23 -1.09 7.19 -1.1 6.13 C-1.1 5.17 -1.11 4.21 -1.11 3.22 C-1 1 -1 1 0 0 Z " fill="#17171B" transform="translate(515,448)"/>
<path d="M0 0 C3.75 1.48 3.75 1.48 4.86 3.84 C5.01 4.53 5.16 5.22 5.31 5.94 C5.47 6.63 5.63 7.32 5.8 8.03 C6 10 6 10 5 13 C3.35 13 1.7 13 0 13 C-0.97 9.88 -0.99 7.48 -0.56 4.25 C-0.46 3.45 -0.36 2.65 -0.25 1.83 C-0.17 1.22 -0.09 0.62 0 0 Z " fill="#1F1F23" transform="translate(116,528)"/>
<path d="M0 0 C0.99 0.33 1.98 0.66 3 1 C2.89 3.29 2.76 5.58 2.62 7.88 C2.52 9.79 2.52 9.79 2.41 11.74 C2 15 2 15 0 17 C-1.12 11.7 -1.35 6.4 -1 1 C-0.67 0.67 -0.34 0.34 0 0 Z " fill="#7A777A" transform="translate(925,471)"/>
<path d="M0 0 C3.48 1.52 5.96 3.58 8.75 6.12 C9.95 7.21 9.95 7.21 11.17 8.32 C11.78 8.87 12.38 9.43 13 10 C12.34 10.66 11.68 11.32 11 12 C9.73 10.9 8.46 9.79 7.19 8.69 C6.48 8.07 5.77 7.46 5.04 6.82 C1.38 3.55 1.38 3.55 0 2 C0 1.34 0 0.68 0 0 Z " fill="#6E6567" transform="translate(678,442)"/>
<path d="M0 0 C1.15 0.93 2.3 1.87 3.44 2.81 C4.08 3.33 4.71 3.86 5.37 4.39 C7 6 7 6 8 9 C8.62 9.31 9.24 9.62 9.88 9.94 C12.41 11.2 13.45 12.67 15 15 C11.37 13.44 8.79 11.21 5.88 8.56 C5.01 7.78 4.14 7 3.24 6.19 C1 4 1 4 -1 1 C-0.67 0.67 -0.34 0.34 0 0 Z " fill="#424044" transform="translate(362,443)"/>
<path d="M0 0 C1.65 0.33 3.3 0.66 5 1 C2.09 4.01 -0.96 6.66 -4.25 9.25 C-5.14 9.96 -6.03 10.66 -6.95 11.39 C-7.63 11.92 -8.3 12.45 -9 13 C-9.66 12.67 -10.32 12.34 -11 12 C-10.37 11.47 -9.75 10.94 -9.1 10.39 C-8.28 9.68 -7.47 8.98 -6.62 8.25 C-5.81 7.55 -5 6.86 -4.16 6.14 C-2.14 4.14 -1.07 2.6 0 0 Z " fill="#6E6668" transform="translate(776,410)"/>
<path d="M0 0 C2.88 -0.12 2.88 -0.12 6 0 C8 2 8 2 8.12 4.62 C8.08 5.41 8.04 6.19 8 7 C5.12 6.31 5.12 6.31 2 5 C0.62 2.38 0.62 2.38 0 0 Z " fill="#030406" transform="translate(1069,493)"/>
<path d="M0 0 C1.51 0.02 1.51 0.02 3.06 0.04 C4.07 0.04 5.08 0.05 6.12 0.06 C7.3 0.08 7.3 0.08 8.5 0.1 C8.5 0.76 8.5 1.42 8.5 2.1 C5.48 3.61 2.82 3.27 -0.5 3.1 C-1.49 2.44 -2.48 1.78 -3.5 1.1 C-2.5 0.1 -2.5 0.1 0 0 Z " fill="#17171B" transform="translate(584.50390625,528.90234375)"/>
<path d="M0 0 C2.97 0.5 2.97 0.5 6 1 C6 2.32 6 3.64 6 5 C4.35 5.33 2.7 5.66 1 6 C0.67 4.02 0.34 2.04 0 0 Z " fill="#131317" transform="translate(1132,494)"/>
</svg>
