<?xml version="1.0" encoding="UTF-8"?>
<!-- Generator: visioncortex VTracer 0.6.3 -->
<svg version="1.1" xmlns="http://www.w3.org/2000/svg" width="1280" height="327">
<path d="M0 0 C9.22 -0.09 18.45 -0.16 27.67 -0.21 C31.96 -0.23 36.24 -0.26 40.53 -0.3 C44.68 -0.35 48.83 -0.37 52.98 -0.38 C54.55 -0.39 56.11 -0.4 57.68 -0.42 C76.39 -0.67 95.07 2.57 109.16 15.92 C111.88 19 113.59 22.16 115 26 C115.35 26.92 115.69 27.85 116.05 28.8 C119.02 38.79 118.67 49.27 115 59 C113.12 62.37 113.12 62.37 111 65 C110.3 65.99 109.6 66.98 108.88 68 C103.85 73.89 96.45 77.38 89 79 C89.57 82.61 90.51 85.24 92.38 88.38 C95.23 93.34 97.86 98.32 99 104 C99.66 104 100.32 104 101 104 C101.45 104.91 101.9 105.82 102.36 106.76 C106.44 114.99 110.62 123.17 114.88 131.31 C115.35 132.23 115.83 133.14 116.32 134.08 C116.77 134.94 117.22 135.79 117.68 136.68 C118.08 137.44 118.48 138.2 118.89 138.99 C120.08 141.21 120.08 141.21 122 144 C122.69 148.31 123.13 152.94 120.97 156.87 C118.19 159.59 115.32 160.39 111.56 160.38 C106.61 159.45 104.48 156.93 101.7 152.88 C93.27 138.62 93.27 138.62 92 132 C91.34 132 90.68 132 90 132 C89.77 131.47 89.54 130.93 89.3 130.38 C88.24 127.96 87.18 125.54 86.12 123.12 C85.76 122.28 85.4 121.44 85.02 120.57 C84.67 119.77 84.31 118.96 83.95 118.13 C83.62 117.39 83.3 116.65 82.96 115.88 C82.03 113.83 82.03 113.83 80 112 C80 111.01 80 110.02 80 109 C79.34 109 78.68 109 78 109 C77.75 108.46 77.5 107.92 77.24 107.37 C76.08 104.89 74.91 102.41 73.75 99.94 C73.35 99.09 72.96 98.24 72.55 97.37 C70.23 92.44 67.77 87.69 65 83 C58.65 82.44 52.51 83.72 47 87 C44.39 91.3 43.62 94.56 43.57 99.56 C43.55 100.84 43.53 102.12 43.51 103.44 C43.5 104.82 43.49 106.2 43.49 107.59 C43.47 109.01 43.45 110.44 43.43 111.86 C43.39 115.6 43.36 119.34 43.33 123.08 C43.3 126.9 43.25 130.72 43.21 134.54 C43.12 142.03 43.06 149.51 43 157 C41.06 157.03 39.13 157.05 37.19 157.06 C36.11 157.07 35.03 157.09 33.92 157.1 C30.57 156.99 28.7 156.67 26.25 154.33 C25.65 153.64 25.05 152.96 24.44 152.25 C23.84 151.57 23.24 150.9 22.62 150.2 C19.65 146.16 18.75 142.55 18.73 137.58 C18.72 135.97 18.72 135.97 18.71 134.32 C18.71 133.15 18.71 131.98 18.71 130.78 C18.71 129.54 18.7 128.3 18.69 127.02 C18.68 124.33 18.67 121.64 18.66 118.95 C18.66 114.69 18.64 110.44 18.61 106.18 C18.56 97.14 18.53 88.1 18.5 79.06 C18.47 69.31 18.43 59.55 18.38 49.8 C18.35 45.57 18.34 41.34 18.33 37.11 C18.33 33.86 18.31 30.6 18.29 27.35 C18.29 26.18 18.29 25.02 18.29 23.81 C18.31 16.19 18.31 16.19 16 9 C10.63 4.86 5.67 4.27 -1 4 C-0.67 2.68 -0.34 1.36 0 0 Z M43 9 C42.95 16.49 42.92 23.99 42.9 31.48 C42.89 34.96 42.87 38.44 42.85 41.92 C42.82 45.92 42.81 49.92 42.8 53.92 C42.79 55.17 42.78 56.42 42.77 57.7 C42.77 58.86 42.77 60.03 42.77 61.22 C42.77 62.24 42.76 63.26 42.76 64.32 C43.01 67.09 43.48 68.68 45 71 C49.92 74.32 54.16 74.4 59.88 74.25 C60.64 74.24 61.4 74.24 62.19 74.23 C72.82 74.09 81.13 72.57 89.31 65.31 C95.55 58.34 96.63 49.88 96.44 40.88 C96.44 39.94 96.45 39 96.46 38.04 C96.39 30.69 95.4 24.82 90.5 19.06 C88.11 16.84 88.11 16.84 85 16 C84.5 15.01 84.5 15.01 84 14 C81.74 12.93 81.74 12.93 79 12 C77.64 11.5 77.64 11.5 76.25 11 C68.75 8.69 61.91 7.7 54.06 7.81 C52.79 7.81 52.79 7.81 51.49 7.81 C47.09 7.71 47.09 7.71 43 9 Z M20 22 C20 61.93 20 101.86 20 143 C20.33 143 20.66 143 21 143 C21 103.07 21 63.14 21 22 C20.67 22 20.34 22 20 22 Z M97 36 C97 39.3 97 42.6 97 46 C97.33 46 97.66 46 98 46 C98 42.7 98 39.4 98 36 C97.67 36 97.34 36 97 36 Z " fill="#002851" transform="translate(485,56)"/>
<path d="M0 0 C7.95 2.87 14.63 12.29 20.28 18.33 C24.31 22.52 24.31 22.52 29.6 24.74 C30.42 24.74 31.25 24.75 32.1 24.76 C32.43 24.1 32.76 23.44 33.1 22.76 C33.76 22.76 34.42 22.76 35.1 22.76 C35.1 22.1 35.1 21.44 35.1 20.76 C35.76 20.76 36.42 20.76 37.1 20.76 C37.41 19.96 37.41 19.96 37.73 19.14 C39.64 15.84 42.15 13.17 45.1 10.76 C45.76 10.76 46.42 10.76 47.1 10.76 C47.31 10.2 47.52 9.65 47.73 9.07 C49.7 5.76 52 4.04 55.1 1.76 C56.09 1.76 57.08 1.76 58.1 1.76 C58.1 1.1 58.1 0.44 58.1 -0.24 C61.59 0.41 64.17 1.78 67.1 3.76 C68.77 7.09 68.96 10.2 68.1 13.76 C66.56 15.67 64.82 17 62.88 18.51 C59.09 21.59 55.64 24.96 52.17 28.39 C51.49 29.03 50.82 29.68 50.12 30.34 C49.49 30.97 48.86 31.59 48.2 32.24 C47.63 32.79 47.06 33.35 46.47 33.93 C44.78 36.2 44.38 37.96 44.1 40.76 C47.31 46.41 52.39 49.96 58.1 52.76 C58.1 52.1 58.1 51.44 58.1 50.76 C59.77 49.75 61.44 48.76 63.1 47.76 C64.7 46.26 66.25 44.72 67.76 43.13 C68.62 42.24 69.48 41.35 70.36 40.44 C72.15 38.57 73.93 36.69 75.71 34.81 C76.57 33.93 77.43 33.04 78.32 32.13 C79.48 30.91 79.48 30.91 80.67 29.66 C83.56 27.4 85.46 26.9 89.1 26.76 C91.85 28.53 93.64 29.82 95.1 32.76 C95.6 36.63 95.53 38.21 93.12 41.35 C92.21 42.2 91.3 43.04 90.36 43.91 C89.88 44.38 89.4 44.84 88.9 45.32 C87.36 46.79 85.8 48.25 84.23 49.7 C82.67 51.15 81.12 52.6 79.58 54.07 C78.19 55.41 76.77 56.72 75.35 58.04 C72.69 61.26 71.72 63.64 71.1 67.76 C72.03 69.99 72.03 69.99 73.93 71.65 C74.58 72.32 75.24 72.99 75.92 73.68 C76.64 74.37 77.36 75.05 78.1 75.76 C79.18 76.82 79.18 76.82 80.27 77.91 C83.25 80.86 86.27 83.78 89.32 86.67 C90.05 87.38 90.78 88.1 91.53 88.83 C92.53 89.79 92.53 89.79 93.54 90.76 C95.4 93.14 95.89 94.76 96.1 97.76 C93.66 101.8 91.45 103.18 87.1 104.76 C72.67 93.47 72.67 93.47 71.1 88.76 C70.15 88.3 70.15 88.3 69.17 87.82 C66.6 86.5 66.36 85.28 65.1 82.76 C63.36 81.47 63.36 81.47 61.1 80.76 C60.2 80.41 59.29 80.06 58.35 79.7 C53.85 79.78 52.06 81.67 48.87 84.7 C46.41 87.57 45.28 90.18 44.1 93.76 C49.82 100.51 55.98 106.69 62.32 112.84 C63.05 113.57 63.78 114.29 64.53 115.03 C65.2 115.68 65.86 116.32 66.54 116.99 C68.1 118.76 68.1 118.76 69.1 121.76 C68.37 124.69 67.5 127.12 65.92 129.7 C62.85 131.49 60.46 130.56 57.1 129.76 C54.28 127.55 54.28 127.55 51.57 124.67 C51.08 124.16 50.59 123.65 50.08 123.13 C48.53 121.52 47.01 119.89 45.48 118.26 C43.95 116.63 42.41 115 40.85 113.39 C39.45 111.93 38.06 110.45 36.67 108.97 C33.97 106.64 32.66 105.76 29.1 105.76 C27.07 106.83 27.07 106.83 25.33 108.64 C24.64 109.29 23.95 109.94 23.25 110.6 C18.87 115.01 14.57 119.49 10.37 124.06 C5.02 129.61 5.02 129.61 0.26 130.37 C-3.53 129.64 -5.26 128.55 -7.9 125.76 C-8.96 123.89 -8.96 123.89 -8.9 121.76 C-4.87 114.33 2.04 108.93 8.19 103.28 C13.83 98.23 13.83 98.23 15.85 91.3 C14.93 86.94 13.56 85.51 10.1 82.76 C9.44 82.14 8.78 81.52 8.1 80.89 C6.14 79.54 6.14 79.54 3.76 79.96 C0.57 80.92 -0.97 82.23 -3.4 84.51 C-4.25 85.31 -5.11 86.11 -6 86.94 C-8.12 88.98 -10.2 91.07 -12.26 93.18 C-12.83 93.76 -13.4 94.34 -13.99 94.94 C-15.12 96.09 -16.23 97.25 -17.34 98.42 C-20.25 101.42 -22.67 103.86 -26.9 104.76 C-29.81 103.8 -31.88 102.05 -33.9 99.76 C-34.83 95.95 -34.83 95.95 -34.9 92.76 C-34.24 92.76 -33.58 92.76 -32.9 92.76 C-32.79 92 -32.69 91.23 -32.58 90.45 C-31.85 87.58 -31.22 86.53 -28.9 84.76 C-28.24 84.76 -27.58 84.76 -26.9 84.76 C-26.69 84.22 -26.48 83.69 -26.27 83.14 C-24.36 79.84 -21.85 77.17 -18.9 74.76 C-18.24 74.76 -17.58 74.76 -16.9 74.76 C-16.65 74.16 -16.4 73.56 -16.15 72.95 C-14.73 70.47 -13.24 69.33 -10.9 67.76 C-10.8 62.46 -12.11 60.11 -15.79 56.28 C-17.41 54.7 -19.05 53.13 -20.71 51.57 C-21.53 50.78 -22.35 49.99 -23.19 49.17 C-24.72 47.69 -26.26 46.22 -27.8 44.76 C-28.49 44.1 -29.18 43.44 -29.9 42.76 C-30.62 42.09 -31.35 41.41 -32.09 40.72 C-34.79 37.79 -35.03 35.69 -34.9 31.76 C-32.27 28.76 -32.27 28.76 -28.9 26.76 C-21.68 27.12 -16.5 33.88 -11.94 38.92 C-10.81 40.25 -9.68 41.57 -8.55 42.9 C-5.24 46.62 -1.87 49.91 2.73 51.89 C7.36 51.64 9.8 48.07 12.92 44.95 C15.52 41.16 15.79 39.27 15.1 34.76 C13.71 32.95 13.71 32.95 12.1 31.76 C12.1 31.1 12.1 30.44 12.1 29.76 C11.52 29.5 10.94 29.25 10.35 28.98 C6.23 26.74 3.2 23.18 -0.08 19.89 C-0.82 19.16 -1.56 18.44 -2.31 17.7 C-3.02 17 -3.72 16.3 -4.44 15.58 C-5.08 14.94 -5.72 14.31 -6.38 13.65 C-8.01 11.62 -8.61 10.34 -8.9 7.76 C-7.18 4.06 -4.63 -0.59 0 0 Z M17.1 37.76 C18.1 40.76 18.1 40.76 18.1 40.76 Z M24.1 55.76 C22.74 57.4 21.41 59.07 20.1 60.76 C19.53 61.26 18.95 61.75 18.35 62.26 C16.91 63.73 16.91 63.73 16.74 66.02 C17.25 69.87 18.97 71.39 21.67 74.14 C22.51 75.03 23.36 75.92 24.23 76.85 C27.02 79.08 27.02 79.08 30.64 78.81 C36.31 77.09 39.65 73.47 43.1 68.76 C44.04 64.45 43.78 62.85 41.48 59.14 C38.77 56.42 36.21 54.03 33.1 51.76 C28.32 51.76 27.52 52.6 24.1 55.76 Z M29.1 78.76 C33.1 79.76 33.1 79.76 33.1 79.76 Z M17.1 91.76 C18.1 93.76 18.1 93.76 18.1 93.76 Z " fill="#002D5B" transform="translate(59.89501953125,76.23974609375)"/>
<path d="M0 0 C1.21 -0.02 2.42 -0.03 3.67 -0.05 C17.78 -0.06 31.63 4.37 42.06 14.31 C42.06 14.97 42.06 15.63 42.06 16.31 C43.55 16.81 43.55 16.81 45.06 17.31 C46.77 19.56 48.3 21.76 49.81 24.12 C50.45 25.07 50.45 25.07 51.1 26.03 C54.16 30.78 54.16 30.78 53.67 33.53 C53.47 34.12 53.27 34.71 53.06 35.31 C54.55 35.81 54.55 35.81 56.06 36.31 C57.58 40.48 58.06 43.94 58.06 48.31 C58.94 51.7 59.96 54.99 61.06 58.31 C61.13 61.83 61.06 65.35 61 68.87 C61.05 71.89 61.47 74.37 62.06 77.31 C62.82 93.64 62.53 114.38 55.06 129.31 C54.4 129.31 53.74 129.31 53.06 129.31 C53.27 129.88 53.47 130.46 53.68 131.05 C54.16 133.91 53.51 135.05 52.12 137.56 C51.74 138.27 51.36 138.98 50.97 139.7 C50.67 140.23 50.37 140.77 50.06 141.31 C49.4 141.31 48.74 141.31 48.06 141.31 C47.9 141.99 47.73 142.67 47.56 143.38 C43.72 150.91 34.82 156.39 27.12 159.5 C23.84 160.37 20.54 161.14 17.21 161.85 C15.87 162.14 14.53 162.46 13.2 162.82 C-2.17 166.34 -21.34 163.1 -34.88 155.19 C-36.25 154.26 -37.61 153.31 -38.94 152.31 C-39.68 151.8 -40.43 151.29 -41.19 150.76 C-41.77 150.28 -42.34 149.8 -42.94 149.31 C-42.94 148.65 -42.94 147.99 -42.94 147.31 C-43.93 146.98 -44.92 146.65 -45.94 146.31 C-45.94 145.65 -45.94 144.99 -45.94 144.31 C-46.6 144.31 -47.26 144.31 -47.94 144.31 C-55.73 135.29 -59.12 122.87 -60.94 111.31 C-60.44 110.32 -60.44 110.32 -59.94 109.31 C-60.6 109.31 -61.26 109.31 -61.94 109.31 C-61.94 106.34 -61.94 103.37 -61.94 100.31 C-62.27 100.31 -62.6 100.31 -62.94 100.31 C-62.96 95.37 -62.98 90.42 -62.99 85.48 C-63 83.8 -63 82.13 -63.01 80.45 C-63.13 57.76 -63.13 57.76 -60.06 46.75 C-59.88 46.11 -59.71 45.47 -59.52 44.81 C-57.52 37.66 -55.47 30.87 -51.94 24.31 C-51.28 24.31 -50.62 24.31 -49.94 24.31 C-49.86 23.75 -49.78 23.19 -49.69 22.61 C-47.31 15.35 -39.44 10.28 -32.95 6.85 C-32.27 6.51 -31.58 6.17 -30.88 5.81 C-30.23 5.49 -29.58 5.16 -28.91 4.83 C-19.46 0.36 -10.35 -0.03 0 0 Z M-24.94 18.31 C-27.33 20.97 -27.33 20.97 -27.94 24.31 C-28.6 24.31 -29.26 24.31 -29.94 24.31 C-30.63 25.92 -31.33 27.52 -32.01 29.13 C-32.65 30.64 -33.32 32.15 -33.99 33.65 C-36.23 38.82 -37.44 43.36 -37.76 48.99 C-37.94 51.31 -37.94 51.31 -38.44 53.63 C-38.95 56.36 -39.05 58.84 -39.04 61.61 C-39.03 62.59 -39.03 63.57 -39.03 64.57 C-39.02 65.58 -39.01 66.59 -39 67.62 C-39 68.65 -38.99 69.68 -38.99 70.74 C-38.97 73.26 -38.96 75.79 -38.94 78.31 C-39.6 78.31 -40.26 78.31 -40.94 78.31 C-40.7 79.7 -40.7 79.7 -40.46 81.12 C-39.74 86.19 -39.67 91.27 -39.5 96.38 C-38.8 114.23 -37.01 132.17 -24.33 146.08 C-22.65 147.56 -22.65 147.56 -19.94 149.31 C-19.15 149.87 -18.37 150.43 -17.56 151 C-11.4 154.08 -5.67 154.5 1.12 154.56 C1.8 154.57 2.47 154.58 3.16 154.59 C7.78 154.56 11.69 153.77 16.06 152.31 C16.95 152.02 17.83 151.72 18.74 151.42 C24.8 148.52 29.75 142.54 32.06 136.31 C32.06 135.32 32.06 134.33 32.06 133.31 C32.72 133.31 33.38 133.31 34.06 133.31 C35.53 127.35 36.4 121.63 36.82 115.5 C37.06 113.31 37.06 113.31 38.06 112.31 C38.16 110.38 38.18 108.44 38.18 106.51 C38.18 105.27 38.18 104.03 38.18 102.75 C38.17 101.38 38.17 100.02 38.16 98.65 C38.16 97.26 38.16 95.88 38.16 94.49 C38.15 90.83 38.14 87.16 38.13 83.5 C38.12 79.77 38.12 76.04 38.11 72.3 C38.1 64.97 38.08 57.64 38.06 50.31 C37.73 50.31 37.4 50.31 37.06 50.31 C37.06 47.67 37.06 45.03 37.06 42.31 C36.4 42.31 35.74 42.31 35.06 42.31 C35.06 40 35.06 37.69 35.06 35.31 C34.4 35.31 33.74 35.31 33.06 35.31 C33.02 34.2 32.98 33.09 32.94 31.94 C32.24 26.35 29.56 21.66 26.06 17.31 C24.42 16.27 22.76 15.26 21.06 14.31 C20.06 13.31 19.06 12.31 18.06 11.31 C4.23 3.58 -13.88 8.1 -24.94 18.31 Z M-60.94 54.31 C-59.94 56.31 -59.94 56.31 -59.94 56.31 Z M-61.94 64.31 C-60.94 67.31 -60.94 67.31 -60.94 67.31 Z M39.06 82.31 C39.06 84.29 39.06 86.27 39.06 88.31 C39.39 88.31 39.72 88.31 40.06 88.31 C40.06 86.33 40.06 84.35 40.06 82.31 C39.73 82.31 39.4 82.31 39.06 82.31 Z M37.06 113.31 C37.06 114.96 37.06 116.61 37.06 118.31 C37.39 118.31 37.72 118.31 38.06 118.31 C38.06 116.66 38.06 115.01 38.06 113.31 C37.73 113.31 37.4 113.31 37.06 113.31 Z " fill="#002851" transform="translate(407.9375,52.6875)"/>
<path d="M0 0 C0 0.66 0 1.32 0 2 C0.99 2.33 1.98 2.66 3 3 C5 6 5 6 4.73 7.96 C1.79 16.19 -3.21 24.05 -8.5 30.96 C-11.06 34.44 -13.06 38.27 -15.18 42.03 C-17 45 -17 45 -19.04 47.54 C-21.04 50.05 -22.47 52.53 -23.94 55.38 C-25.67 58.63 -27.39 61.69 -29.62 64.62 C-30.43 65.74 -31.22 66.87 -32 68 C-32.47 68.67 -32.93 69.35 -33.41 70.04 C-34.79 72.43 -35.59 74.26 -36 77 C-34.77 81.11 -32.32 84.43 -30 88 C-28.73 90.17 -27.49 92.35 -26.24 94.54 C-22.84 100.51 -19.35 106.43 -15.8 112.32 C-15.27 113.2 -14.74 114.07 -14.19 114.98 C-13.18 116.64 -12.17 118.31 -11.15 119.97 C-6.85 127.05 -3.01 134.28 0 142 C0.66 142 1.32 142 2 142 C4.23 147.55 5.94 152.07 4 158 C1 161.36 -0.95 162.79 -5.38 163.69 C-10.45 162.73 -13.46 160.74 -17 157 C-19.32 153.49 -21.12 149.76 -23 146 C-24.24 143.8 -25.49 141.62 -26.75 139.44 C-30.43 133.04 -34.02 126.59 -37.59 120.13 C-39.27 117.08 -40.96 114.06 -42.79 111.1 C-44 109 -44 109 -44 107 C-44.66 107 -45.32 107 -46 107 C-49.47 100.07 -49.47 100.07 -53 93 C-55.24 95.99 -57.09 98.85 -58.91 102.09 C-60.8 105.41 -62.84 108.64 -64.88 111.88 C-65.32 112.58 -65.76 113.28 -66.21 114.01 C-68.5 117.65 -70.82 121.26 -73.25 124.81 C-76 128.86 -78.26 133.12 -80.56 137.44 C-82.12 140.22 -83.88 142.71 -85.79 145.25 C-87.2 147.28 -88.34 149.38 -89.5 151.56 C-91.7 155.55 -93.64 158.88 -97 162 C-100.69 162.56 -100.69 162.56 -104 162 C-106.34 158.49 -106.5 157.14 -106 153 C-104 150.25 -104 150.25 -102 148 C-102 147.34 -102 146.68 -102 146 C-101.02 144.98 -100.01 143.99 -99 143 C-98.09 141.71 -97.21 140.4 -96.38 139.06 C-95.95 138.39 -95.52 137.72 -95.09 137.04 C-93.91 135.06 -93.91 135.06 -93.54 132.87 C-93 131 -93 131 -90 129 C-89.3 127.35 -88.64 125.68 -88 124 C-87.01 122.66 -86.01 121.32 -85 120 C-82.83 116.43 -80.81 112.77 -79 109 C-78.34 109 -77.68 109 -77 109 C-76.9 108.44 -76.79 107.89 -76.69 107.32 C-75.86 104.52 -74.55 102.4 -73 99.94 C-71.31 97.24 -70.01 95.03 -69 92 C-68.34 92 -67.68 92 -67 92 C-66.86 91.4 -66.71 90.8 -66.56 90.19 C-66.11 88.44 -65.57 86.71 -65 85 C-64.34 85 -63.68 85 -63 85 C-62.83 80.08 -62.75 76.5 -65 72 C-65.66 72 -66.32 72 -67 72 C-67.41 71.21 -67.82 70.42 -68.25 69.61 C-71.96 62.61 -75.9 55.84 -80.1 49.12 C-82.35 45.43 -84.38 41.66 -86.41 37.85 C-88.92 33.34 -91.7 29.01 -94.46 24.65 C-96 22 -96 22 -96 20 C-96.66 19.67 -97.32 19.34 -98 19 C-98.56 18.07 -99.11 17.14 -99.69 16.19 C-103.24 11.29 -106.56 9.5 -112.34 8.31 C-115.56 7.81 -118.77 7.37 -122 7 C-121.67 5.68 -121.34 4.36 -121 3 C-115.54 2.85 -110.08 2.74 -104.61 2.67 C-102.75 2.64 -100.9 2.6 -99.04 2.55 C-96.37 2.47 -93.69 2.44 -91.02 2.41 C-89.78 2.37 -89.78 2.37 -88.51 2.32 C-82.86 2.32 -82.86 2.32 -80.39 4.29 C-77.87 7.25 -75.91 10.63 -74 14 C-73.22 15.25 -73.22 15.25 -72.43 16.54 C-71.92 17.37 -71.4 18.2 -70.88 19.06 C-70.1 20.32 -70.1 20.32 -69.3 21.6 C-68.12 23.78 -67.46 25.58 -67 28 C-66.34 28 -65.68 28 -65 28 C-64.04 29.75 -63.08 31.5 -62.12 33.25 C-61.59 34.22 -61.06 35.2 -60.51 36.2 C-60.01 37.13 -59.51 38.05 -59 39 C-58.58 39.74 -58.17 40.47 -57.74 41.23 C-57.5 41.82 -57.25 42.4 -57 43 C-57.5 43.99 -57.5 43.99 -58 45 C-57.01 45 -56.02 45 -55 45 C-54.37 46.12 -53.75 47.24 -53.1 48.39 C-52.28 49.87 -51.45 51.34 -50.62 52.81 C-50.21 53.55 -49.8 54.29 -49.38 55.05 C-48.98 55.76 -48.58 56.47 -48.16 57.21 C-47.8 57.86 -47.43 58.52 -47.05 59.19 C-46.1 60.83 -45.05 62.42 -44 64 C-39.65 58.06 -35.79 52.06 -32.36 45.54 C-30.38 41.85 -28.23 38.34 -25.88 34.88 C-23.89 32.1 -23.89 32.1 -23 29 C-22.34 29 -21.68 29 -21 29 C-20.59 27.91 -20.59 27.91 -20.17 26.79 C-19.05 24.13 -17.77 21.82 -16.25 19.38 C-13.44 14.82 -10.97 10.14 -8.59 5.35 C-6.47 2.22 -3.91 0 0 0 Z " fill="#002851" transform="translate(320,53)"/>
<path d="M0 0 C1.09 -0 1.09 -0 2.2 -0 C3.73 -0 5.26 -0 6.8 0 C9.15 0.01 11.5 0 13.85 -0 C15.34 -0 16.82 -0 18.31 0 C19.02 -0 19.72 -0 20.45 -0.01 C25.43 0.02 25.43 0.02 27.66 1.13 C27.66 47.99 27.66 94.85 27.66 143.13 C23.7 143.46 19.74 143.79 15.66 144.13 C12.77 145.06 10.25 145.95 7.53 147.2 C0.81 150.13 0.81 150.13 -1.34 150.13 C-1.34 150.79 -1.34 151.45 -1.34 152.13 C-11.47 158.19 -20.32 161.66 -32.34 160.13 C-36.83 158.78 -41.08 157.09 -45.34 155.13 C-45.34 154.47 -45.34 153.81 -45.34 153.13 C-45.94 153.03 -46.53 152.93 -47.14 152.83 C-53.55 150.8 -57.2 142.97 -60.16 137.45 C-63.05 131.67 -64.38 126.09 -65.05 119.68 C-65.19 117.14 -65.19 117.14 -66.34 115.13 C-66.44 113.62 -66.47 112.11 -66.48 110.6 C-66.48 109.71 -66.48 108.81 -66.48 107.9 C-66.48 106.96 -66.47 106.03 -66.47 105.07 C-66.47 104.13 -66.48 103.2 -66.48 102.23 C-66.48 101.34 -66.48 100.45 -66.48 99.54 C-66.48 98.72 -66.47 97.9 -66.47 97.05 C-66.34 95.13 -66.34 95.13 -65.34 94.13 C-64.97 92.14 -64.65 90.14 -64.34 88.13 C-63.45 82.24 -63.45 82.24 -62.34 81.13 C-61.95 79.62 -61.6 78.1 -61.28 76.57 C-61.1 75.74 -60.93 74.92 -60.75 74.07 C-60.61 73.43 -60.48 72.79 -60.34 72.13 C-59.68 72.13 -59.02 72.13 -58.34 72.13 C-58.24 71.2 -58.14 70.28 -58.03 69.32 C-57.29 65.86 -56.81 65.41 -54.34 63.13 C-53.33 61.98 -52.33 60.81 -51.34 59.63 C-47.22 54.73 -47.22 54.73 -45.34 53.13 C-44.35 53.13 -43.36 53.13 -42.34 53.13 C-42.01 52.14 -41.68 51.15 -41.34 50.13 C-34.44 46.55 -25.9 45.97 -18.34 47.13 C-8.97 50.19 -2.85 54.82 2.89 62.78 C4.61 65.34 4.61 65.34 7.66 67.13 C7.33 66.47 7 65.81 6.66 65.13 C6.56 63.67 6.53 62.21 6.53 60.75 C6.53 59.84 6.52 58.93 6.52 58 C6.52 57.01 6.52 56.02 6.52 55.01 C6.5 52.92 6.48 50.83 6.46 48.74 C6.43 45.44 6.41 42.15 6.41 38.86 C6.4 35.68 6.37 32.5 6.33 29.32 C6.34 28.35 6.34 27.38 6.35 26.38 C6.23 19.4 4.58 13.96 0.66 8.13 C-1.88 6.17 -1.88 6.17 -4.66 5.51 C-5.54 5.23 -6.42 4.95 -7.33 4.66 C-8 4.48 -8.66 4.31 -9.34 4.13 C-9.34 3.14 -9.34 2.15 -9.34 1.13 C-6.35 -0.36 -3.28 -0.01 0 0 Z M-34.34 64.13 C-36.59 67.34 -38.51 70.68 -40.34 74.13 C-40.89 75.12 -40.89 75.12 -41.45 76.14 C-48.52 91.92 -46.99 118.4 -41.12 134.34 C-40.87 134.93 -40.61 135.52 -40.34 136.13 C-40.05 136.81 -39.76 137.48 -39.46 138.17 C-38.2 140.38 -36.87 141.65 -34.91 143.26 C-34.31 143.76 -33.71 144.25 -33.1 144.77 C-29.8 147.34 -28.68 148.13 -24.34 148.13 C-24.34 148.79 -24.34 149.45 -24.34 150.13 C-12.21 149.91 -12.21 149.91 -1.63 144.66 C-0.13 143.21 -0.13 143.21 -0.34 141.13 C0.25 140.91 0.85 140.68 1.47 140.45 C4.68 138.52 6.08 135.9 7.23 132.38 C7.79 129.41 7.79 126.58 7.79 123.56 C7.79 122.26 7.79 120.96 7.79 119.62 C7.79 118.23 7.79 116.84 7.78 115.45 C7.78 114.75 7.78 114.05 7.78 113.33 C7.76 102.91 7.52 92.53 6.66 82.13 C6 82.13 5.34 82.13 4.66 82.13 C4.87 81.43 5.09 80.73 5.31 80 C5.98 74.43 2.62 69.68 -0.34 65.13 C-4.69 60.71 -8.77 58.36 -14.96 57.96 C-15.89 57.96 -16.82 57.95 -17.78 57.95 C-18.71 57.93 -19.63 57.92 -20.59 57.9 C-25.94 58.35 -30.24 60.78 -34.34 64.13 Z M7.66 94.13 C7.66 95.78 7.66 97.43 7.66 99.13 C7.99 99.13 8.32 99.13 8.66 99.13 C8.66 97.48 8.66 95.83 8.66 94.13 C8.33 94.13 8 94.13 7.66 94.13 Z M-65.34 97.13 C-65.34 100.1 -65.34 103.07 -65.34 106.13 C-65.01 106.13 -64.68 106.13 -64.34 106.13 C-64.34 103.16 -64.34 100.19 -64.34 97.13 C-64.67 97.13 -65 97.13 -65.34 97.13 Z M-65.34 108.13 C-65.34 110.44 -65.34 112.75 -65.34 115.13 C-65.01 115.13 -64.68 115.13 -64.34 115.13 C-64.34 112.82 -64.34 110.51 -64.34 108.13 C-64.67 108.13 -65 108.13 -65.34 108.13 Z " fill="#002851" transform="translate(1042.34375,55.8671875)"/>
<path d="M0 0 C1.57 1.42 1.57 1.42 3 3 C4.57 3.7 4.57 3.7 6.16 4.42 C9 7 9 7 9.48 9.57 C9.59 12.81 9.52 16.01 9.38 19.25 C9.33 20.94 9.33 20.94 9.29 22.66 C9.22 25.44 9.12 28.22 9 31 C7.02 30.5 7.02 30.5 5 30 C4.5 25.55 4.5 25.55 4 21 C3.34 21 2.68 21 2 21 C1.41 19.67 1.41 19.67 0.81 18.31 C-3.65 10.16 -10.06 7.86 -18.31 4.75 C-29.42 2.49 -38.24 4.35 -47.95 10.16 C-52.11 13.24 -54.04 17.36 -56 22 C-56.66 22 -57.32 22 -58 22 C-57.67 22.66 -57.34 23.32 -57 24 C-56.63 27.29 -56.28 30.58 -56.01 33.88 C-55.49 38.89 -54.14 41.92 -51 46 C-50.42 46.85 -49.85 47.69 -49.25 48.56 C-42.74 55.61 -32.78 59.25 -24.26 63.3 C-19.7 65.68 -15.33 68.34 -10.94 71 C-10.05 71.53 -9.17 72.07 -8.26 72.62 C-6.56 73.64 -4.87 74.66 -3.18 75.69 C-1.5 76.7 0.2 77.68 1.91 78.64 C4.19 80.12 5.7 81.67 7.44 83.75 C8.32 84.81 8.32 84.81 9.23 85.88 C10.1 86.93 10.1 86.93 11 88 C11.56 88.62 12.13 89.23 12.71 89.87 C15.96 93.43 17.85 96.22 19 101 C19.18 101.68 19.37 102.36 19.55 103.06 C22.44 114.47 21 125.08 15.64 135.69 C9.1 146.08 -1.23 152.91 -13 156 C-13.77 156.21 -14.55 156.41 -15.35 156.62 C-33.35 160.63 -52.19 158.45 -68.19 149.19 C-73.32 145.78 -77.36 141.97 -81 137 C-79.12 132.12 -79.12 132.12 -78 131 C-76.33 130.96 -74.67 130.96 -73 131 C-73 131.66 -73 132.32 -73 133 C-72.41 133.13 -71.83 133.26 -71.22 133.39 C-68.43 134.16 -66.02 135.48 -63.47 136.83 C-49.74 144.08 -34.76 146.65 -19.33 143.17 C-15.62 141.86 -12.8 140.8 -10 138 C-9.01 138 -8.02 138 -7 138 C-6.86 137.4 -6.71 136.8 -6.56 136.19 C-6.11 134.44 -5.57 132.71 -5 131 C-4.34 130.67 -3.68 130.34 -3 130 C-2.75 126.96 -2.52 123.92 -2.31 120.88 C-2.24 120.02 -2.17 119.16 -2.09 118.28 C-1.74 112.9 -2.19 109.76 -5 105 C-5 104.01 -5 103.02 -5 102 C-5.66 102 -6.32 102 -7 102 C-8.69 100.35 -10.35 98.69 -12 97 C-12.66 96.67 -13.32 96.34 -14 96 C-14 95.34 -14 94.68 -14 94 C-14.7 93.74 -15.4 93.48 -16.12 93.22 C-19.28 91.88 -22.12 90.26 -25.06 88.5 C-29.03 86.12 -29.03 86.12 -33.11 83.95 C-35.25 82.87 -37.15 81.6 -39.12 80.25 C-42.27 78.12 -45.45 76.14 -48.75 74.25 C-60.77 67.08 -73.99 58.2 -77.72 44.07 C-78 42 -78 42 -77 40 C-77.66 40 -78.32 40 -79 40 C-79.32 32.23 -79.3 26.1 -76 19 C-75.65 18.03 -75.3 17.06 -74.94 16.06 C-74 14 -74 14 -72 13 C-71.55 12.17 -71.09 11.35 -70.62 10.5 C-69 8 -69 8 -66.88 7.38 C-66.26 7.25 -65.64 7.13 -65 7 C-64.67 6.01 -64.34 5.02 -64 4 C-61.34 2.01 -58.39 0 -55 0 C-54.67 -0.66 -54.34 -1.32 -54 -2 C-37.83 -8.57 -15.75 -6.89 0 0 Z M-78 27 C-77 29 -77 29 -77 29 Z M-1 116 C-1 118.31 -1 120.62 -1 123 C-0.67 123 -0.34 123 0 123 C0 120.69 0 118.38 0 116 C-0.33 116 -0.66 116 -1 116 Z " fill="#002851" transform="translate(745,58)"/>
<path d="M0 0 C4.97 -0.02 9.93 -0.04 14.9 -0.05 C16.59 -0.06 18.28 -0.07 19.97 -0.08 C22.4 -0.09 24.82 -0.09 27.25 -0.1 C28.39 -0.11 28.39 -0.11 29.55 -0.11 C31.37 -0.11 33.18 -0.06 35 0 C36.88 1.88 36.13 5.11 36.14 7.61 C36.15 8.3 36.15 8.99 36.15 9.7 C36.16 11.21 36.17 12.72 36.17 14.23 C36.18 16.63 36.19 19.02 36.21 21.42 C36.26 28.24 36.31 35.06 36.33 41.89 C36.34 46.06 36.37 50.23 36.41 54.4 C36.42 55.98 36.42 57.56 36.42 59.14 C36.41 70.82 37.32 81.99 44 92 C46.86 93.95 49.12 94.24 52.55 94.2 C53.39 94.19 54.24 94.18 55.11 94.18 C55.98 94.16 56.85 94.14 57.75 94.12 C58.64 94.12 59.53 94.11 60.44 94.1 C62.63 94.07 64.81 94.04 67 94 C67.5 92.51 67.5 92.51 68 91 C68.78 90.55 69.56 90.11 70.36 89.65 C73.53 87.67 74.5 85.92 76.19 82.62 C76.68 81.69 77.16 80.75 77.67 79.79 C80.92 72.97 82.11 67.05 82.17 59.48 C82.19 58.2 82.2 56.93 82.21 55.61 C82.22 54.94 82.22 54.27 82.23 53.57 C82.25 51.46 82.27 49.34 82.29 47.22 C82.37 41.2 82.43 35.18 82.48 29.17 C82.51 25.48 82.55 21.79 82.6 18.1 C82.61 16.69 82.63 15.29 82.63 13.88 C82.65 11.92 82.67 9.96 82.7 8.01 C82.71 6.89 82.72 5.78 82.73 4.63 C83 2 83 2 85 0 C87.86 -0.23 90.58 -0.32 93.44 -0.31 C94.6 -0.34 94.6 -0.34 95.79 -0.36 C101.4 -0.37 101.4 -0.37 103.73 1.06 C105.67 4.02 105.39 6.99 105.34 10.41 C105.34 11.54 105.34 11.54 105.34 12.69 C105.34 15.17 105.32 17.65 105.29 20.14 C105.29 21.86 105.28 23.58 105.28 25.3 C105.27 29.84 105.24 34.37 105.21 38.9 C105.18 43.53 105.16 48.15 105.15 52.78 C105.11 61.85 105.06 70.93 105 80 C104.11 80.2 103.21 80.4 102.29 80.61 C101.12 80.87 99.95 81.14 98.74 81.41 C97.58 81.67 96.42 81.93 95.22 82.2 C91.48 83.13 88.44 84.28 85 86 C84.37 86.31 83.74 86.62 83.1 86.94 C79.5 88.71 79.5 88.71 77.11 91.79 C73.07 99.86 64.5 106.3 56.18 109.26 C47.89 111.19 39.5 111.27 31.89 107.18 C24.06 102.3 19.73 95.74 17.4 86.66 C17.12 84.75 17.12 84.75 17 82 C16.67 82 16.34 82 16 82 C15.99 81.39 15.98 80.77 15.97 80.14 C15.86 73.7 15.75 67.26 15.63 60.81 C15.58 58.42 15.54 56.02 15.5 53.62 C15.44 50.16 15.38 46.69 15.32 43.23 C15.3 42.17 15.28 41.11 15.27 40.02 C15.07 30.15 14.86 21.17 11 12 C10.86 11.29 10.72 10.58 10.58 9.85 C10.39 9.24 10.2 8.63 10 8 C7.21 6.79 7.21 6.79 4 6 C2.33 5.35 0.66 4.68 -1 4 C-0.67 2.68 -0.34 1.36 0 0 Z M16 27 C17 31 17 31 17 31 Z M74 91 C73.67 91.66 73.34 92.32 73 93 C73.99 92.67 74.98 92.34 76 92 C75.34 91.67 74.68 91.34 74 91 Z " fill="#002851" transform="translate(849,106)"/>
<path d="M0 0 C1.32 -0 2.64 -0.01 4 -0.01 C9.56 0.2 13.49 1.91 18.44 4.38 C19.04 4.66 19.64 4.95 20.25 5.25 C24.56 7.38 28.08 9.79 31.56 13.12 C31.56 14.11 31.56 15.11 31.56 16.12 C32.22 16.12 32.88 16.12 33.56 16.12 C33.56 16.78 33.56 17.44 33.56 18.12 C34.22 18.12 34.88 18.12 35.56 18.12 C38.5 23.69 41.11 28.96 42.56 35.12 C42.9 36.38 43.25 37.64 43.6 38.94 C45.03 45.43 44.85 51.94 44.81 58.56 C44.82 60.45 44.82 60.45 44.84 62.38 C44.81 75.34 43.03 89.53 34.29 99.79 C33.45 100.62 32.61 101.46 31.75 102.31 C30.92 103.15 30.09 103.99 29.23 104.86 C26.46 107.21 23.91 108.73 20.56 110.12 C18.19 109.81 18.19 109.81 16.56 109.12 C16.56 109.78 16.56 110.44 16.56 111.12 C11.54 112.75 6.92 113.54 1.62 113.56 C0.9 113.57 0.17 113.57 -0.57 113.57 C-8.68 113.41 -15.91 110.96 -23.44 108.12 C-23.44 107.47 -23.44 106.81 -23.44 106.12 C-24.12 105.96 -24.8 105.8 -25.5 105.62 C-33.51 101.54 -37.51 93.27 -40.44 85.12 C-41.34 81.95 -42.14 78.78 -42.86 75.56 C-43.34 73.14 -43.34 73.14 -44.44 71.12 C-44.53 69.03 -44.57 66.94 -44.57 64.84 C-44.57 63.59 -44.57 62.34 -44.57 61.04 C-44.57 59.73 -44.57 58.42 -44.56 57.06 C-44.57 55.74 -44.57 54.43 -44.57 53.07 C-44.57 51.82 -44.57 50.57 -44.57 49.28 C-44.57 48.12 -44.57 46.97 -44.57 45.78 C-44.44 43.12 -44.44 43.12 -43.44 42.12 C-42.93 38.67 -42.54 35.21 -42.13 31.74 C-41.43 28.07 -40.26 25.37 -38.44 22.12 C-37.78 22.12 -37.12 22.12 -36.44 22.12 C-36.4 21.44 -36.36 20.76 -36.31 20.06 C-34.18 12.89 -28.3 8.96 -22.04 5.41 C-18.28 3.55 -14.46 2.27 -10.44 1.12 C-6.9 -0.06 -3.68 -0.02 0 0 Z M-13.44 11.12 C-13.77 12.11 -14.1 13.11 -14.44 14.12 C-15.43 14.45 -16.42 14.78 -17.44 15.12 C-18.33 17.7 -19.02 20.11 -19.62 22.75 C-19.8 23.45 -19.98 24.15 -20.16 24.87 C-21.25 29.4 -21.61 33.47 -21.44 38.12 C-22.1 38.12 -22.76 38.12 -23.44 38.12 C-23.34 43.17 -23.24 48.22 -23.12 53.27 C-23.08 54.99 -23.05 56.7 -23.02 58.41 C-23.21 82.23 -23.21 82.23 -13.02 102.72 C-7.71 107.45 -2.54 107.7 4.35 107.55 C8.8 106.96 12.46 105.45 15.56 102.12 C15.56 101.13 15.56 100.14 15.56 99.12 C16.22 99.12 16.88 99.12 17.56 99.12 C18.21 97.23 18.86 95.33 19.5 93.44 C19.86 92.38 20.22 91.33 20.59 90.24 C21.94 85.91 22.69 81.94 22.69 77.4 C22.7 76.04 22.7 76.04 22.7 74.65 C22.7 73.68 22.7 72.71 22.7 71.71 C22.7 70.69 22.7 69.68 22.7 68.64 C22.7 66.5 22.7 64.36 22.69 62.22 C22.69 58.97 22.69 55.72 22.7 52.47 C22.7 50.38 22.7 48.29 22.7 46.21 C22.7 45.25 22.7 44.29 22.7 43.3 C22.68 37.18 22.29 31.19 21.56 25.12 C20.9 25.12 20.24 25.12 19.56 25.12 C19.48 23.93 19.4 22.73 19.31 21.5 C18.75 17.17 17.41 14.51 14.56 11.12 C11.64 8.84 11.64 8.84 8.56 7.12 C7.92 6.71 7.28 6.3 6.62 5.88 C-0.91 3.14 -7.31 6.77 -13.44 11.12 Z M-43.44 43.12 C-42.44 47.12 -42.44 47.12 -42.44 47.12 Z M23.56 49.12 C23.56 55.4 23.56 61.66 23.56 68.12 C23.89 68.12 24.22 68.12 24.56 68.12 C24.56 61.86 24.56 55.59 24.56 49.12 C24.23 49.12 23.9 49.12 23.56 49.12 Z " fill="#002851" transform="translate(1202.4375,102.875)"/>
<path d="M0 0 C2.62 0.33 4.64 0.82 7 2 C7.33 17.84 7.66 33.68 8 50 C21.86 50.5 21.86 50.5 36 51 C38 56 38 56 37 59 C27.1 59 17.2 59 7 59 C7.01 61.59 7.01 64.19 7.02 66.86 C7.03 75.42 7.04 83.98 7.05 92.54 C7.06 97.73 7.06 102.92 7.08 108.11 C7.09 113.11 7.09 118.12 7.09 123.12 C7.1 125.04 7.1 126.95 7.11 128.86 C7.11 131.53 7.11 134.21 7.11 136.88 C7.12 137.68 7.12 138.47 7.12 139.29 C7.11 144.77 7.11 144.77 6 147 C6.66 147 7.32 147 8 147 C8.62 147.93 8.62 147.93 9.25 148.88 C13.04 153.48 20.38 153.83 26 155 C25.67 155.99 25.34 156.98 25 158 C20.84 157.98 16.67 157.93 12.51 157.85 C11.1 157.82 9.68 157.81 8.27 157.8 C-5 157.74 -5 157.74 -8.84 154.75 C-10.87 152.16 -12.03 150.34 -12.88 147.19 C-13.21 146 -13.21 146 -13.55 144.79 C-13.78 143.91 -13.78 143.91 -14 143 C-14.33 143 -14.66 143 -15 143 C-15.33 115.61 -15.66 88.22 -16 60 C-20.95 59.67 -25.9 59.34 -31 59 C-31.99 58.01 -32.98 57.02 -34 56 C-33.69 53.81 -33.69 53.81 -33 52 C-32.12 51.82 -31.24 51.64 -30.33 51.45 C-28.59 51.07 -28.59 51.07 -26.81 50.69 C-25.66 50.44 -24.52 50.2 -23.33 49.95 C-20.08 49.02 -17.74 47.95 -15 46 C-14.67 45.34 -14.34 44.68 -14 44 C-13.34 44 -12.68 44 -12 44 C-12 43.34 -12 42.68 -12 42 C-11.34 42 -10.68 42 -10 42 C-9.88 41.42 -9.75 40.84 -9.62 40.25 C-9 38 -9 38 -8.03 36.25 C-6.74 33.44 -6.34 30.8 -5.88 27.75 C-5.71 26.67 -5.54 25.59 -5.37 24.48 C-5.25 23.66 -5.12 22.84 -5 22 C-4.34 22 -3.68 22 -3 22 C-3.01 21.14 -3.02 20.29 -3.04 19.4 C-3.13 7.1 -3.13 7.1 -2 2 C-1.34 1.34 -0.68 0.68 0 0 Z " fill="#002953" transform="translate(809,56)"/>
<path d="M0 0 C5.09 -0.05 10.18 -0.09 15.27 -0.11 C17 -0.12 18.74 -0.13 20.47 -0.15 C22.96 -0.18 25.44 -0.19 27.93 -0.2 C28.71 -0.21 29.48 -0.22 30.28 -0.23 C32.19 -0.23 34.1 -0.12 36 0 C38 2 38 2 38.22 5.6 C38.22 7.18 38.2 8.76 38.18 10.35 C38.17 11.21 38.17 12.07 38.17 12.96 C38.15 14.84 38.14 16.72 38.12 18.6 C38.09 21.58 38.07 24.57 38.06 27.55 C38.02 36.02 37.96 44.5 37.88 52.98 C37.84 58.16 37.81 63.34 37.79 68.53 C37.78 70.5 37.77 72.47 37.74 74.44 C37.71 77.21 37.7 79.98 37.69 82.75 C37.68 83.55 37.66 84.36 37.65 85.19 C37.66 90.7 38.36 96.07 41 101 C44.2 102.62 44.2 102.62 48 103 C49.48 103.36 50.96 103.74 52.44 104.12 C53.61 104.41 54.79 104.7 56 105 C55.51 106.49 55.51 106.49 55 108 C50.92 107.91 46.85 107.8 42.77 107.68 C41.39 107.64 40 107.61 38.62 107.58 C36.62 107.53 34.63 107.47 32.64 107.41 C30.84 107.37 30.84 107.37 29 107.32 C26 107 26 107 23 105 C23 104.34 23 103.68 23 103 C21.52 102.5 21.52 102.5 20 102 C16.49 96.98 15.5 93.64 15.55 87.41 C15.55 86.69 15.54 85.97 15.54 85.22 C15.55 82.86 15.58 80.49 15.61 78.13 C15.62 76.48 15.62 74.83 15.63 73.18 C15.64 68.86 15.68 64.54 15.73 60.22 C15.77 55.8 15.78 51.38 15.8 46.96 C15.85 38.31 15.92 29.65 16 21 C15.67 21 15.34 21 15 21 C14.96 20.41 14.93 19.82 14.89 19.21 C14.49 14.49 14.17 10.74 11 7 C7.21 4.9 3.27 4.5 -1 4 C-0.67 2.68 -0.34 1.36 0 0 Z " fill="#002851" transform="translate(1092,106)"/>
<path d="M0 0 C1.65 0.66 3.3 1.32 5 2 C4.96 2.7 4.92 3.4 4.88 4.12 C5.02 7.4 5.91 9.91 7 13 C7.34 14.67 7.68 16.33 8 18 C8.33 18.66 8.66 19.32 9 20 C9.66 19.67 10.32 19.34 11 19 C11.21 17.42 11.41 15.84 11.58 14.25 C12.43 9.66 14.31 5.34 16 1 C17.32 1 18.64 1 20 1 C18.77 6.75 17.44 12.47 16.06 18.19 C15.9 18.86 15.75 19.54 15.58 20.24 C14.55 24.49 13.1 28.16 11 32 C9.33 32.04 7.67 32.04 6 32 C5 31 5 31 4.94 27.94 C4.96 26.97 4.98 26 5 25 C4.34 25 3.68 25 3 25 C2.34 21.37 1.68 17.74 1 14 C0.35 16.25 -0.29 18.5 -0.94 20.75 C-1.3 22 -1.66 23.26 -2.03 24.55 C-2.73 27.03 -3.4 29.5 -4 32 C-5.98 32 -7.96 32 -10 32 C-12.93 23.81 -14.95 15.45 -17 7 C-17.34 5.83 -17.34 5.83 -17.68 4.64 C-18 3 -18 3 -17 1 C-15.35 1.33 -13.7 1.66 -12 2 C-10.23 8.98 -8.52 15.96 -7 23 C-6.08 19.39 -5.29 15.76 -4.5 12.12 C-4 10 -4 10 -3 7 C-2.67 5.97 -2.34 4.94 -2 3.88 C-1 1 -1 1 0 0 Z " fill="#002D5A" transform="translate(232,241)"/>
<path d="M0 0 C3.67 3.33 4.49 5.43 5.06 10.44 C5.04 13.96 4.27 15.55 1.81 18.06 C-2.28 21.77 -5.98 21.81 -11.38 21.62 C-14.98 21.41 -15.49 20.49 -18.06 17.69 C-21.75 12.81 -21.72 9.56 -21.19 3.5 C-19.67 -0.01 -16.95 -2.64 -13.5 -4.25 C-7.77 -4.59 -4.37 -3.71 0 0 Z " fill="#002851" transform="translate(1127.375,59.375)"/>
<path d="M0 0 C2.47 0.5 2.47 0.5 5 1 C7.93 1.22 7.93 1.22 10 0 C12.09 0.05 12.09 0.05 14.5 0.31 C15.29 0.39 16.09 0.47 16.91 0.55 C19 1 19 1 21 3 C21.37 2.5 21.74 2.01 22.12 1.5 C24 0 24 0 26.94 -0.38 C30.3 0.04 31.63 0.63 34 3 C34.92 5.77 35.12 7.38 35.1 10.23 C35.09 11.03 35.09 11.84 35.09 12.66 C35.08 13.91 35.08 13.91 35.06 15.19 C35.06 16.03 35.05 16.88 35.05 17.75 C35.04 19.83 35.02 21.92 35 24 C33.68 24 32.36 24 31 24 C31 23.34 31 22.68 31 22 C30.34 22 29.68 22 29 22 C29 16.06 29 10.12 29 4 C25.04 5.98 25.04 5.98 21 8 C20.18 11.02 19.91 12.75 20 15.75 C19.99 16.45 19.98 17.14 19.96 17.86 C19.94 19.58 19.97 21.29 20 23 C19.01 23.33 18.02 23.66 17 24 C17 23.34 17 22.68 17 22 C16.34 22 15.68 22 15 22 C14.67 16.06 14.34 10.12 14 4 C7.28 6.98 7.28 6.98 6 10 C5.77 12.37 5.59 14.75 5.44 17.12 C5.35 18.41 5.27 19.69 5.18 21.01 C5.09 22.49 5.09 22.49 5 24 C2.53 23.01 2.53 23.01 0 22 C0 14.74 0 7.48 0 0 Z " fill="#002E5C" transform="translate(1028,250)"/>
<path d="M0 0 C7.04 0.05 12.63 1.2 17.88 6.25 C21 12.67 20.91 20.02 18.75 26.75 C16.13 30.24 13.26 32.88 8.79 33.57 C6.52 33.64 4.28 33.6 2 33.5 C1.22 33.48 0.43 33.46 -0.38 33.45 C-2.29 33.4 -4.21 33.33 -6.12 33.25 C-6.29 28.71 -6.45 24.17 -6.61 19.63 C-6.66 18.09 -6.72 16.54 -6.77 15 C-6.85 12.78 -6.93 10.56 -7 8.35 C-7.03 7.65 -7.06 6.96 -7.09 6.24 C-7.14 4.58 -7.14 2.91 -7.12 1.25 C-5.29 -0.59 -2.47 0.03 0 0 Z M-1.12 5.25 C-1.18 8.87 -1.22 12.5 -1.25 16.12 C-1.27 17.16 -1.28 18.19 -1.3 19.25 C-1.31 20.24 -1.31 21.23 -1.32 22.24 C-1.33 23.15 -1.34 24.06 -1.35 25 C-1.34 27.45 -1.34 27.45 0.88 29.25 C4.87 30.23 4.87 30.23 8.88 30.25 C11.38 28.16 11.38 28.16 12.88 25.25 C13.49 24.32 13.49 24.32 14.12 23.38 C15.7 18.91 15.28 14.77 13.56 10.44 C12.09 7.05 12.09 7.05 8.88 5.25 C3.78 4.07 3.78 4.07 -1.12 5.25 Z " fill="#002F5D" transform="translate(407.125,240.75)"/>
<path d="M0 0 C5 0 5 0 8 1 C8.33 0.67 8.66 0.34 9 0 C12.5 -0.12 12.5 -0.12 16 0 C16.33 0.33 16.66 0.66 17 1 C20.28 0.78 23.53 0.41 26.8 0.06 C29.99 0 31.46 0.12 34 2 C34.92 4.77 35.12 6.38 35.1 9.23 C35.09 10.03 35.09 10.84 35.09 11.66 C35.08 12.91 35.08 12.91 35.06 14.19 C35.06 15.03 35.05 15.88 35.05 16.75 C35.04 18.83 35.02 20.92 35 23 C33.35 22.67 31.7 22.34 30 22 C29.94 20.94 29.88 19.88 29.82 18.79 C29.73 17.4 29.65 16.01 29.56 14.62 C29.52 13.93 29.48 13.23 29.44 12.51 C29.26 8.63 29.26 8.63 28 5 C26.02 5.33 24.04 5.66 22 6 C21.67 11.94 21.34 17.88 21 24 C19.35 23.34 17.7 22.68 16 22 C15.94 21.04 15.88 20.07 15.82 19.08 C15.73 17.81 15.65 16.55 15.56 15.25 C15.48 14 15.4 12.74 15.32 11.45 C15.07 8.82 14.76 6.52 14 4 C12.87 4.62 11.73 5.24 10.56 5.88 C9.92 6.22 9.29 6.57 8.63 6.93 C6.83 7.91 6.83 7.91 6 10 C5.77 12.2 5.59 14.41 5.44 16.62 C5.35 17.81 5.27 19 5.18 20.23 C5.12 21.14 5.06 22.06 5 23 C2 23 2 23 0 22 C0 14.74 0 7.48 0 0 Z " fill="#002E5D" transform="translate(709,250)"/>
<path d="M0 0 C3.04 0.61 6.01 1.22 9 2 C9.33 1.34 9.66 0.68 10 0 C14.42 -0.52 16.35 -0.5 19.94 2.25 C22.79 6.19 22.52 10.4 22.47 15.1 C21.94 18.4 20.97 20.32 19 23 C15.51 25.33 14.1 25.25 10 25 C7.62 24.5 7.62 24.5 6 24 C5.67 26.64 5.34 29.28 5 32 C3.35 31.67 1.7 31.34 0 31 C0 20.77 0 10.54 0 0 Z M6 8 C4.8 10.41 4.9 11.95 4.94 14.62 C4.95 15.44 4.96 16.26 4.96 17.1 C4.98 17.73 4.99 18.35 5 19 C6.62 19.34 8.25 19.67 9.88 20 C10.78 20.19 11.68 20.37 12.62 20.56 C14.92 21.06 14.92 21.06 17 21 C17.05 18.54 17.09 16.08 17.12 13.62 C17.14 12.93 17.16 12.23 17.18 11.51 C17.19 9.67 17.1 7.83 17 6 C16.34 5.34 15.68 4.68 15 4 C10.3 4 9.36 4.92 6 8 Z " fill="#003160" transform="translate(1089,250)"/>
<path d="M0 0 C1.32 0.33 2.64 0.66 4 1 C4.9 3.69 5.28 5.89 5.56 8.69 C5.65 9.5 5.73 10.3 5.82 11.14 C5.88 11.75 5.94 12.37 6 13 C6.66 12.01 7.32 11.02 8 10 C11.03 9.35 13.95 9.5 17 10 C20.03 12.2 20.82 13.45 22 17 C23 26.08 23 26.08 20.95 30.02 C19.19 32.15 17.48 33.76 15 35 C13 35.04 11 35.04 9 35 C7.68 35 6.36 35 5 35 C3.68 34.67 2.36 34.34 1 34 C0.67 22.78 0.34 11.56 0 0 Z M5 18 C4.3 22.05 4.14 26.27 6 30 C8.36 30.47 8.36 30.47 11.06 30.62 C11.98 30.7 12.9 30.77 13.85 30.85 C14.56 30.9 15.27 30.95 16 31 C16.03 28.54 16.05 26.08 16.06 23.62 C16.07 22.93 16.08 22.23 16.09 21.51 C16.18 17.63 16.18 17.63 15 14 C10.11 14 8.53 14.63 5 18 Z " fill="#002C59" transform="translate(320,240)"/>
<path d="M0 0 C4.75 -0.12 4.75 -0.12 7 1 C7.33 1.33 7.66 1.66 8 2 C8.33 1.34 8.66 0.68 9 0 C12.85 -0.31 15.7 -0.1 19.38 1.12 C23.18 5.29 23.13 9.12 23.31 14.63 C23.01 17.89 22.73 19.33 20.69 21.81 C16.81 24.97 14.95 25.2 10 25 C7.62 24.5 7.62 24.5 6 24 C5.67 26.64 5.34 29.28 5 32 C4.01 32 3.02 32 2 32 C1.97 31.14 1.95 30.27 1.92 29.39 C1.83 26.18 1.73 22.98 1.63 19.77 C1.58 18.39 1.54 17 1.5 15.62 C1.44 13.62 1.38 11.63 1.32 9.64 C1.28 8.44 1.24 7.24 1.21 6 C1.12 2.95 1.12 2.95 0 0 Z M6 8 C6.33 11.96 6.66 15.92 7 20 C11.53 20.93 11.53 20.93 16 20 C17.03 16.9 17.13 14.69 17.12 11.44 C17.13 10.47 17.13 9.5 17.13 8.5 C17.17 6 17.17 6 16 4 C11.28 4 9.73 5.29 6 8 Z M5 10 C5 13.3 5 16.6 5 20 C5.33 20 5.66 20 6 20 C6 16.7 6 13.4 6 10 C5.67 10 5.34 10 5 10 Z " fill="#002A54" transform="translate(662,250)"/>
<path d="M0 0 C2.36 2.03 2.36 2.03 4 4 C3.34 4.66 2.68 5.32 2 6 C0.66 5.7 -0.67 5.36 -2 5 C-6.76 4.74 -10.65 4.93 -15 7 C-16.33 10.4 -16.17 13.96 -16.19 17.56 C-16.2 18.7 -16.22 19.83 -16.23 21 C-16.23 24.18 -16.23 24.18 -14 27 C-8.52 28.87 -2.75 29.25 3 29 C2.69 30.94 2.69 30.94 2 33 C-2.97 34.66 -7.83 34.8 -13 34 C-17.16 31.69 -19.93 28.65 -22.5 24.69 C-23.81 17.63 -23.62 11.33 -20.31 4.85 C-18.67 2.53 -16.92 1.23 -14.2 0.37 C-9.49 -0.42 -4.71 -0.84 0 0 Z " fill="#002D59" transform="translate(953,241)"/>
<path d="M0 0 C3.12 1.58 5.32 3.6 6.88 6.81 C6.92 7.53 6.96 8.26 7 9 C7.12 10.92 7.12 10.92 7.25 12.88 C7.18 16.89 6.32 19.64 4 23 C0.26 25.53 -3.52 25.22 -7.84 24.61 C-11.3 23.63 -12.92 21.86 -15 19 C-15.75 16.44 -15.75 16.44 -16 14 C-16.25 13.38 -16.5 12.76 -16.75 12.12 C-17.17 8.55 -15.64 6.11 -14 3 C-9.78 -0.93 -5.5 -0.94 0 0 Z M-8.75 5.12 C-10.51 7.77 -11.39 9.87 -12 13 C-11.17 16.33 -11.17 16.33 -9 19 C-5.94 20.44 -5.94 20.44 -3 21 C-0.25 19.09 -0.25 19.09 2 16 C2.38 11.34 1.59 7.88 -1 4 C-4.07 3.61 -6.09 3.42 -8.75 5.12 Z M-16 10 C-15 12 -15 12 -15 12 Z " fill="#00305F" transform="translate(996,250)"/>
<path d="M0 0 C3.13 0.14 5.45 0.44 8.44 1.44 C12.04 6.28 13.08 10.03 12.83 16.06 C12.24 19.6 10.81 21.8 8.44 24.44 C3.54 26.07 -0.12 26.13 -4.81 23.88 C-8.18 20.89 -9.34 18.77 -10.56 14.44 C-10.76 10.18 -9.74 6.88 -8.19 2.94 C-5.08 -0.02 -4.16 0.05 0 0 Z M-2.81 6.62 C-5.18 10.42 -5.92 12.72 -5 17.12 C-3.69 19.69 -3.69 19.69 -0.69 20.88 C2.33 21.66 2.33 21.66 4.75 20.75 C6.74 19.45 6.74 19.45 7.44 16.44 C7.85 10.99 7.85 10.99 6.25 5.94 C4.5 4.26 4.5 4.26 2 3.88 C-0.76 4.24 -0.76 4.24 -2.81 6.62 Z " fill="#002B56" transform="translate(624.5625,249.5625)"/>
<path d="M0 0 C2.5 1.5 2.5 1.5 4 4 C4.61 7.04 4.82 9.89 5 13 C0.38 13 -4.24 13 -9 13 C-9 14.65 -9 16.3 -9 18 C-7.86 18.09 -7.86 18.09 -6.7 18.18 C-5.71 18.27 -4.71 18.35 -3.69 18.44 C-2.7 18.52 -1.72 18.6 -0.7 18.68 C2 19 2 19 5 20 C5 20.99 5 21.98 5 23 C1.24 24.2 -2.07 24.47 -6 24 C-10.06 21.49 -13.27 18.51 -15 14 C-14.67 13.34 -14.34 12.68 -14 12 C-14.66 12 -15.32 12 -16 12 C-15.36 7.52 -14.77 3.98 -11.94 0.38 C-7.73 -1.59 -4.42 -1.25 0 0 Z M-7 3 C-8.39 5.91 -8.39 5.91 -9 9 C-6.03 9 -3.06 9 0 9 C-0.66 7.02 -1.32 5.04 -2 3 C-3.65 3 -5.3 3 -7 3 Z M-15 9 C-14 11 -14 11 -14 11 Z " fill="#00366A" transform="translate(466,251)"/>
<path d="M0 0 C2.61 0.67 2.61 0.67 5 2 C6.14 4.6 6.14 4.6 6.81 7.62 C7.05 8.63 7.28 9.63 7.52 10.66 C7.68 11.43 7.84 12.21 8 13 C7 14 7 14 3.62 14.1 C2.23 14.09 0.83 14.08 -0.56 14.06 C-1.27 14.06 -1.98 14.05 -2.72 14.05 C-4.48 14.04 -6.24 14.02 -8 14 C-7.34 14.33 -6.68 14.66 -6 15 C-6 16.32 -6 17.64 -6 19 C-4.86 19.09 -4.86 19.09 -3.7 19.18 C-2.71 19.27 -1.71 19.35 -0.69 19.44 C0.3 19.52 1.28 19.6 2.3 19.68 C5 20 5 20 8 21 C8 21.99 8 22.98 8 24 C3.3 25.5 -1.25 25.84 -5.75 23.69 C-10.26 20.31 -11.76 17.88 -12.85 12.35 C-13.14 7.8 -11.18 4.83 -8.75 1.06 C-5.85 -0.7 -3.31 -0.28 0 0 Z M-4.06 4.5 C-5.16 4.92 -5.16 4.92 -6.29 5.34 C-6.85 5.56 -7.42 5.78 -8 6 C-7.67 6.66 -7.34 7.32 -7 8 C-6.67 8.66 -6.34 9.32 -6 10 C-3.36 10 -0.72 10 2 10 C1.67 7.69 1.34 5.38 1 3 C-0.79 3 -2.41 3.87 -4.06 4.5 Z " fill="#002F5D" transform="translate(287,250)"/>
<path d="M0 0 C3.01 2.01 3.66 4.1 4.87 7.43 C5.25 9.5 5.25 9.5 4.25 13.5 C-0.7 13.5 -5.65 13.5 -10.75 13.5 C-10.09 13.83 -9.43 14.16 -8.75 14.5 C-8.75 15.82 -8.75 17.14 -8.75 18.5 C-4.13 19.16 0.49 19.82 5.25 20.5 C5.25 21.49 5.25 22.48 5.25 23.5 C0.44 25.04 -4.08 25.28 -8.69 23.12 C-9.37 22.59 -10.05 22.05 -10.75 21.5 C-10.75 20.84 -10.75 20.18 -10.75 19.5 C-11.41 19.5 -12.07 19.5 -12.75 19.5 C-15.6 14.35 -16.15 11.22 -14.54 5.52 C-11.74 -1.64 -6.8 -1.24 0 0 Z M-7.75 3.5 C-8.45 6.48 -8.45 6.48 -8.75 9.5 C-6.11 9.5 -3.47 9.5 -0.75 9.5 C-0.71 7.83 -0.71 6.17 -0.75 4.5 C-1.88 3.14 -1.88 3.14 -4.81 3.44 C-5.78 3.46 -6.75 3.48 -7.75 3.5 Z " fill="#002850" transform="translate(552.75,250.5)"/>
<path d="M0 0 C3.76 2.71 4.51 7.18 5.25 11.62 C4.92 12.29 4.59 12.94 4.25 13.62 C0.63 14.02 -2.98 14.13 -6.62 14.28 C-8.17 14.45 -8.17 14.45 -9.75 14.62 C-10.08 15.29 -10.41 15.94 -10.75 16.62 C-10.09 16.62 -9.43 16.62 -8.75 16.62 C-8.75 17.29 -8.75 17.94 -8.75 18.62 C-4.13 19.29 0.49 19.94 5.25 20.62 C4.92 21.62 4.59 22.61 4.25 23.62 C-0.21 25.11 -4.05 25.34 -8.44 23.5 C-12.17 20.48 -14.23 17.25 -15.69 12.69 C-15.78 7.99 -14.01 4.58 -11.5 0.69 C-7.93 -1.48 -3.96 -0.54 0 0 Z M-2.75 2.62 C-6.22 4.11 -6.22 4.11 -9.75 5.62 C-9.42 6.94 -9.09 8.26 -8.75 9.62 C-6.11 9.62 -3.47 9.62 -0.75 9.62 C-0.42 8.63 -0.09 7.64 0.25 6.62 C-1.12 4.43 -1.12 4.43 -2.75 2.62 Z " fill="#003365" transform="translate(784.75,250.375)"/>
<path d="M0 0 C2.47 0.5 2.47 0.5 5 1 C7.93 1.22 7.93 1.22 10 0 C13.86 -0.51 15.47 -0.37 18.68 1.91 C21.93 6.24 21.57 9.56 21.31 14.81 C21.29 15.7 21.27 16.58 21.24 17.49 C21.19 19.66 21.1 21.83 21 24 C19.68 24 18.36 24 17 24 C17 23.34 17 22.68 17 22 C16.34 22 15.68 22 15 22 C15 16.06 15 10.12 15 4 C8.44 6.15 8.44 6.15 6.6 8.77 C5.79 11.77 5.56 14.65 5.38 17.75 C5.26 19.51 5.26 19.51 5.15 21.3 C5.07 22.63 5.07 22.63 5 24 C2.53 23.01 2.53 23.01 0 22 C0 14.74 0 7.48 0 0 Z " fill="#002F5E" transform="translate(1180,250)"/>
<path d="M0 0 C2.75 1.02 3.82 1.67 5.27 4.28 C5.59 5.16 5.92 6.03 6.25 6.94 C6.59 7.81 6.92 8.69 7.27 9.59 C8 12 8 12 8 15 C8.99 15 9.98 15 11 15 C11.12 13.76 11.12 13.76 11.25 12.5 C12.15 8.29 13.69 4.65 16 1 C16.66 0.67 17.32 0.34 18 0 C18.66 0.66 19.32 1.32 20 2 C19.72 6.06 18.47 9.3 16.85 13 C15.96 15.1 15.15 17.23 14.35 19.37 C14.07 20.11 13.78 20.85 13.49 21.61 C12.91 23.14 12.34 24.67 11.78 26.21 C10.97 28.28 10.21 30.14 9 32 C6.27 33.01 6.27 33.01 4 33 C3.83 30.05 3.85 28.3 5.19 25.62 C6.18 22.42 5.44 21.04 4.01 18.09 C2.79 15.56 1.76 13 0.75 10.38 C0.22 9.03 0.22 9.03 -0.33 7.65 C-1.08 4.7 -0.82 2.9 0 0 Z " fill="#002D5B" transform="translate(1226,250)"/>
<path d="M0 0 C1.58 -0.11 3.17 -0.19 4.75 -0.25 C5.63 -0.3 6.51 -0.34 7.42 -0.39 C10 0 10 0 12.32 1.58 C14.6 4.87 14.37 7.03 14.19 11 C13.91 16.58 13.91 16.58 15 22 C15.66 22 16.32 22 17 22 C17 22.99 17 23.98 17 25 C14.49 25.07 12.31 25.08 9.88 24.44 C7.79 23.78 7.79 23.78 5 25 C1.63 24.79 -0.33 24.6 -2.88 22.31 C-4.36 19.25 -4.57 17.36 -4 14 C-0.19 10.54 4.07 10.42 9 10 C8.67 8.35 8.34 6.7 8 5 C5.03 5 2.06 5 -1 5 C-0.67 3.35 -0.34 1.7 0 0 Z M2 15 C1.11 17.04 1.11 17.04 1 19 C3.47 19.99 3.47 19.99 6 21 C8.08 19.25 8.08 19.25 10 17 C10 15.68 10 14.36 10 13 C6.72 13 4.89 13.48 2 15 Z M-1 15 C-0.67 15.66 -0.34 16.32 0 17 C0.33 16.34 0.66 15.68 1 15 C0.34 15 -0.32 15 -1 15 Z " fill="#002D5B" transform="translate(1139,250)"/>
<path d="M0 0 C2.31 0.33 4.62 0.66 7 1 C7.33 0.67 7.66 0.34 8 0 C9.96 -0.27 9.96 -0.27 12.38 -0.38 C13.17 -0.42 13.96 -0.47 14.77 -0.52 C17 0 17 0 18.78 1.94 C20.46 6.14 20.33 9.84 20.19 14.31 C20.17 15.57 20.17 15.57 20.15 16.85 C20.11 18.9 20.06 20.95 20 23 C18.35 22.67 16.7 22.34 15 22 C14.67 16.06 14.34 10.12 14 4 C11.69 4.66 9.38 5.32 7 6 C6.86 6.64 6.71 7.28 6.56 7.94 C6 10 6 10 5 11 C4.77 13.02 4.59 15.04 4.44 17.06 C4.35 18.17 4.27 19.27 4.18 20.41 C4.12 21.26 4.06 22.12 4 23 C3.01 23.33 2.02 23.66 1 24 C0.67 16.08 0.34 8.16 0 0 Z " fill="#002F5E" transform="translate(815,250)"/>
<path d="M0 0 C2.94 1.04 3.85 1.69 5.27 4.53 C5.59 5.51 5.92 6.49 6.25 7.5 C6.59 8.48 6.92 9.46 7.27 10.47 C8 13 8 13 8 15 C8.99 15 9.98 15 11 15 C11.12 13.72 11.25 12.44 11.38 11.12 C11.75 7.25 11.75 7.25 14 5 C14.7 3.68 15.37 2.35 16 1 C17.32 1 18.64 1 20 1 C19.42 6.31 18.19 10.91 16.25 15.88 C15.89 16.89 15.89 16.89 15.52 17.92 C14.3 21.06 13.63 22.72 10.48 24.13 C8 24 8 24 6.28 22.82 C4.9 20.86 4.23 19.23 3.56 16.94 C1.99 11.84 0.03 6.93 -2 2 C-1.34 1.34 -0.68 0.68 0 0 Z " fill="#002F5D" transform="translate(495,250)"/>
<path d="M0 0 C3 1 3 1 5 4 C5.99 4.66 6.98 5.32 8 6 C8 6.99 8 7.98 8 9 C6.68 9.33 5.36 9.66 4 10 C4 14.62 4 19.24 4 24 C4.66 24.33 5.32 24.66 6 25 C6 25.66 6 26.32 6 27 C6.99 27.33 7.98 27.66 9 28 C8.67 28.66 8.34 29.32 8 30 C1.57 29.51 1.57 29.51 -0.72 27.44 C-2.49 24.07 -2.32 20.96 -2.19 17.25 C-2.17 16.55 -2.16 15.86 -2.15 15.14 C-2.11 13.42 -2.06 11.71 -2 10 C-2.66 9.67 -3.32 9.34 -4 9 C-4.62 6.94 -4.62 6.94 -5 5 C-4.01 5 -3.02 5 -2 5 C-2 3.68 -2 2.36 -2 1 C-1.34 0.67 -0.68 0.34 0 0 Z " fill="#002E5C" transform="translate(865,245)"/>
<path d="M0 0 C3.88 0.88 3.88 0.88 5 2 C5.09 4.38 5.12 6.72 5.1 9.1 C5.1 9.81 5.09 10.52 5.09 11.25 C5.09 13.52 5.08 15.79 5.06 18.06 C5.06 19.6 5.05 21.14 5.05 22.67 C5.04 26.45 5.02 30.22 5 34 C3.68 34 2.36 34 1 34 C-0.48 31.04 -0.12 28.05 -0.1 24.8 C-0.1 24.1 -0.09 23.39 -0.09 22.66 C-0.09 20.4 -0.08 18.14 -0.06 15.88 C-0.06 14.34 -0.05 12.81 -0.05 11.28 C-0.04 7.52 -0.02 3.76 0 0 Z " fill="#002E5D" transform="translate(583,240)"/>
<path d="M0 0 C3.77 3.99 3.51 8.27 3.48 13.51 C2.92 17.78 1.27 19.4 -1.88 22.25 C-4.58 23.6 -6.88 23.32 -9.88 23.25 C-9.21 22.59 -8.56 21.93 -7.88 21.25 C-8.54 20.59 -9.19 19.93 -9.88 19.25 C-7.8 18.7 -6.03 18.25 -3.88 18.25 C-3.88 12.97 -3.88 7.69 -3.88 2.25 C-4.87 1.92 -5.86 1.59 -6.88 1.25 C-7.87 0.59 -8.86 -0.07 -9.88 -0.75 C-3.64 -2.22 -3.64 -2.22 0 0 Z " fill="#003160" transform="translate(338.875,251.75)"/>
<path d="M0 0 C7.26 -0.36 7.26 -0.36 10.2 1.09 C13.5 4.59 13.02 8.98 13.24 13.59 C13.01 16.91 12.77 18.3 10.69 20.81 C6.81 23.97 4.94 24.11 0 24 C0.33 22.35 0.66 20.7 1 19 C2.65 19 4.3 19 6 19 C6.03 16.71 6.05 14.42 6.06 12.12 C6.07 10.85 6.09 9.57 6.1 8.26 C6.23 5.11 6.23 5.11 5 3 C2.47 2.34 2.47 2.34 0 2 C0 1.34 0 0.68 0 0 Z " fill="#002C59" transform="translate(672,251)"/>
<path d="M0 0 C0.87 0 1.74 0.01 2.63 0.01 C4.88 0.31 4.88 0.31 6.88 2.31 C6.27 2.46 5.67 2.61 5.05 2.76 C0.8 3.95 -1.68 4.85 -4.81 8.06 C-6.44 11.31 -6.44 11.31 -5.62 15 C-4.13 18.3 -3.22 19.56 -0.12 21.31 C-2.43 21.97 -4.75 22.63 -7.12 23.31 C-12.02 15.42 -12.02 15.42 -12.12 10.31 C-9.93 3.51 -7.42 -0.14 0 0 Z M-11.12 10.31 C-10.12 12.31 -10.12 12.31 -10.12 12.31 Z " fill="#002D5A" transform="translate(991.125,249.6875)"/>
<path d="M0 0 C0.99 0.33 1.98 0.66 3 1 C2.32 2.01 1.64 3.02 0.94 4.06 C-1.33 7.95 -1.08 10.61 0 15 C4.07 16.41 4.07 16.41 8.25 17.44 C10 18 10 18 12 21 C7.1 22.63 3.45 22.69 -1.25 20.44 C-4.62 17.45 -5.77 15.33 -7 11 C-7.03 8.11 -6.63 5.87 -6 3 C-5.34 2.34 -4.68 1.68 -4 1 C-4 1.66 -4 2.32 -4 3 C-3.4 2.48 -2.8 1.97 -2.19 1.44 C-1.47 0.96 -0.74 0.49 0 0 Z " fill="#002F5E" transform="translate(621,253)"/>
<path d="M0 0 C2.5 1.56 2.5 1.56 4 4 C4.6 6.7 4.81 9.22 5 12 C0.05 12 -4.9 12 -10 12 C-10 11.01 -10 10.02 -10 9 C-5.55 8.5 -5.55 8.5 -1 8 C-1.33 6.68 -1.66 5.36 -2 4 C-3.65 4 -5.3 4 -7 4 C-7.33 5.32 -7.66 6.64 -8 8 C-9.32 8 -10.64 8 -12 8 C-12 7.34 -12 6.68 -12 6 C-12.66 6 -13.32 6 -14 6 C-13.65 3.49 -13.13 2.15 -11.5 0.19 C-7.59 -1.67 -4.11 -1.09 0 0 Z " fill="#002B57" transform="translate(466,251)"/>
<path d="M0 0 C4.35 0.87 7.16 1.95 11 4 C9.79 5.05 9.79 5.05 8.56 6.12 C4.35 11.03 5.09 17.86 5 24 C2.53 23.01 2.53 23.01 0 22 C0 14.74 0 7.48 0 0 Z " fill="#003060" transform="translate(1028,250)"/>
<path d="M0 0 C5 0 5 0 7.81 2.5 C8.53 3.32 9.26 4.15 10 5 C9.36 5.68 8.71 6.37 8.05 7.07 C5.62 10.55 5.42 12.62 5.25 16.81 C5.19 17.97 5.14 19.14 5.08 20.33 C5.05 21.21 5.03 22.09 5 23 C2 23 2 23 0 22 C0 14.74 0 7.48 0 0 Z M9 0 C11.31 0 13.62 0 16 0 C16 0.33 16 0.66 16 1 C14.02 1 12.04 1 10 1 C9.67 1.66 9.34 2.32 9 3 C9 2.01 9 1.02 9 0 Z " fill="#002D5A" transform="translate(709,250)"/>
<path d="M0 0 C2.44 0.38 2.44 0.38 5 1 C6.34 3.68 6.21 5.82 6.25 8.81 C6.29 10.37 6.29 10.37 6.33 11.96 C5.95 15.43 5.08 17.22 3 20 C-0.45 22.3 -1.95 22.34 -6 22 C-6.66 21.34 -7.32 20.68 -8 20 C-8 19.01 -8 18.02 -8 17 C-1.25 16.88 -1.25 16.88 1 18 C0.82 17.47 0.65 16.93 0.47 16.38 C-0.12 13.41 0.17 10.88 0.5 7.88 C1.11 3.79 1.11 3.79 0 0 Z " fill="#002E5C" transform="translate(1105,253)"/>
<path d="M0 0 C2.47 0.5 2.47 0.5 5 1 C5.99 1 6.98 1 8 1 C8.99 1.33 9.98 1.66 11 2 C10.69 3.88 10.69 3.88 10 6 C9.01 6.66 8.02 7.32 7 8 C5.89 11.32 5.68 14.2 5.44 17.69 C5.35 18.87 5.27 20.05 5.18 21.26 C5.12 22.17 5.06 23.07 5 24 C2.53 23.01 2.53 23.01 0 22 C0 14.74 0 7.48 0 0 Z " fill="#002D5B" transform="translate(1180,250)"/>
<path d="M0 0 C2.31 0.33 4.62 0.66 7 1 C7.33 0.67 7.66 0.34 8 0 C9.52 -0.07 11.04 -0.08 12.56 -0.06 C13.39 -0.05 14.22 -0.04 15.07 -0.04 C15.7 -0.02 16.34 -0.01 17 0 C17 0.33 17 0.66 17 1 C14.36 1 11.72 1 9 1 C9.33 2.32 9.66 3.64 10 5 C9.01 5.33 8.02 5.66 7 6 C6.34 7.98 6.34 7.98 6 10 C5.67 10.33 5.34 10.66 5 11 C4.77 13.02 4.59 15.04 4.44 17.06 C4.35 18.17 4.27 19.27 4.18 20.41 C4.12 21.26 4.06 22.12 4 23 C3.01 23.33 2.02 23.66 1 24 C0.67 16.08 0.34 8.16 0 0 Z " fill="#002C59" transform="translate(815,250)"/>
<path d="M0 0 C6.15 0.31 6.15 0.31 8.75 2.19 C10.09 5.45 10.97 8.75 11.75 12.19 C6.6 12.28 1.83 12.03 -3.25 11.19 C-3.25 10.86 -3.25 10.53 -3.25 10.19 C-0.17 9.89 -0.17 9.89 2.9 9.6 C3.82 9.4 3.82 9.4 4.75 9.19 C5.08 8.53 5.41 7.87 5.75 7.19 C5.09 6.2 4.43 5.21 3.75 4.19 C2.11 4.71 2.11 4.71 0.44 5.25 C-3.25 6.19 -3.25 6.19 -6.25 5.19 C-3.85 0.22 -3.85 0.22 0 0 Z " fill="#00305F" transform="translate(778.25,249.8125)"/>
<path d="M0 0 C0.99 0 1.98 0 3 0 C3.33 0.66 3.66 1.32 4 2 C9.56 3.73 15.21 4.25 21 4 C20.69 5.94 20.69 5.94 20 8 C15.09 9.64 10.12 9.63 5 9 C2.35 7.6 1.03 6.26 -1 4 C-0.67 2.68 -0.34 1.36 0 0 Z " fill="#003161" transform="translate(935,266)"/>
<path d="M0 0 C32.67 0.49 32.67 0.49 66 1 C66 1.33 66 1.66 66 2 C47.85 2 29.7 2 11 2 C10.67 2.99 10.34 3.98 10 5 C6.37 4.67 2.74 4.34 -1 4 C-0.67 2.68 -0.34 1.36 0 0 Z " fill="#002E5C" transform="translate(485,56)"/>
<path d="M0 0 C1.55 2.54 2.51 5.07 3 8 C2.67 9.32 2.34 10.64 2 12 C-2.62 12 -7.24 12 -12 12 C-12 11.01 -12 10.02 -12 9 C-8.37 9 -4.74 9 -1 9 C-1.66 8.67 -2.32 8.34 -3 8 C-3.62 5.44 -3.62 5.44 -4 3 C-4.78 2.9 -5.57 2.79 -6.38 2.69 C-9 2 -9 2 -11 -1 C-6.72 -2.26 -3.95 -2.15 0 0 Z " fill="#003567" transform="translate(555,252)"/>
<path d="M0 0 C11.88 0 23.76 0 36 0 C36 0.66 36 1.32 36 2 C26.1 2 16.2 2 6 2 C6 2.66 6 3.32 6 4 C3.69 4 1.38 4 -1 4 C-0.67 2.68 -0.34 1.36 0 0 Z " fill="#00305F" transform="translate(1092,106)"/>
<path d="M0 0 C0.99 0.33 1.98 0.66 3 1 C3 1.66 3 2.32 3 3 C3.66 3 4.32 3 5 3 C5 3.66 5 4.32 5 5 C9.62 5.66 14.24 6.32 19 7 C18.67 7.99 18.34 8.98 18 10 C13.54 11.49 9.7 11.71 5.31 9.88 C2.5 7.6 0.85 5.09 -1 2 C-0.67 1.34 -0.34 0.68 0 0 Z " fill="#003161" transform="translate(771,264)"/>
<path d="M0 0 C1.26 -0.02 2.52 -0.04 3.81 -0.06 C4.52 -0.07 5.23 -0.09 5.96 -0.1 C8 0 8 0 11 1 C11.95 3.5 11.95 3.5 12.69 6.56 C13.06 8.08 13.06 8.08 13.45 9.63 C13.63 10.41 13.81 11.19 14 12 C13 13 13 13 10.28 13.1 C8.62 13.08 8.62 13.08 6.94 13.06 C5.28 13.05 5.28 13.05 3.59 13.04 C2.74 13.02 1.88 13.01 1 13 C1 12.67 1 12.34 1 12 C2.65 11.67 4.3 11.34 6 11 C3.69 10.67 1.38 10.34 -1 10 C-1 9.67 -1 9.34 -1 9 C1.97 9 4.94 9 8 9 C7.67 6.36 7.34 3.72 7 1 C4.69 1 2.38 1 0 1 C0 0.67 0 0.34 0 0 Z " fill="#003365" transform="translate(281,251)"/>
<path d="M0 0 C0.33 1.32 0.66 2.64 1 4 C5.62 4.66 10.24 5.32 15 6 C15 6.99 15 7.98 15 9 C10.27 10.51 5.77 10.69 1.12 8.88 C-1.65 6.42 -1.76 4.62 -2 1 C-1.34 0.67 -0.68 0.34 0 0 Z " fill="#003363" transform="translate(543,265)"/>
<path d="M0 0 C1.65 0 3.3 0 5 0 C4.52 5.77 2.82 9.96 0 15 C-1.32 14.67 -2.64 14.34 -4 14 C-3.25 6.25 -3.25 6.25 -1 4 C-0.36 1.93 -0.36 1.93 0 0 Z " fill="#002D5A" transform="translate(510,251)"/>
<path d="M0 0 C0.33 0 0.66 0 1 0 C1 1.65 1 3.3 1 5 C2.25 5.09 2.25 5.09 3.52 5.18 C5.15 5.31 5.15 5.31 6.81 5.44 C7.89 5.52 8.97 5.6 10.08 5.68 C13 6 13 6 16 7 C16 7.99 16 8.98 16 10 C11.79 11.35 7.27 12.13 3.18 10.09 C1.5 8.88 1.5 8.88 -1 6 C-0.88 2.69 -0.88 2.69 0 0 Z " fill="#003160" transform="translate(455,264)"/>
<path d="M0 0 C0.99 0.66 1.98 1.32 3 2 C2.43 7.54 0.37 12.04 -2 17 C-2.66 17 -3.32 17 -4 17 C-4 16.34 -4 15.68 -4 15 C-4.66 15 -5.32 15 -6 15 C-5.49 9.86 -3.78 3.78 0 0 Z " fill="#002C58" transform="translate(1243,250)"/>
<path d="M0 0 C1.86 0.3 1.86 0.3 4.19 0.88 C7.78 1.72 11.35 2.44 15 3 C15 3.99 15 4.98 15 6 C10.21 7.53 5.69 7.75 1.06 5.69 C0.38 5.13 -0.3 4.57 -1 4 C-1 1 -1 1 0 0 Z " fill="#00305F" transform="translate(280,268)"/>
<path d="M0 0 C1.32 0 2.64 0 4 0 C2.67 6 1.33 12 0 18 C-1.98 15.79 -2.97 14.57 -3.14 11.56 C-3.03 10.72 -2.93 9.87 -2.81 9 C-2.72 8.15 -2.62 7.31 -2.52 6.44 C-2 4.01 -1.21 2.16 0 0 Z " fill="#002F5E" transform="translate(248,242)"/>
<path d="M0 0 C1.62 -0.03 3.25 -0.05 4.88 -0.06 C5.78 -0.07 6.68 -0.09 7.62 -0.1 C10 0 10 0 12 1 C12 2.65 12 4.3 12 6 C11.01 5.67 10.02 5.34 9 5 C7.27 4.93 5.54 4.92 3.81 4.94 C2.91 4.95 2.01 4.96 1.08 4.96 C0.05 4.98 0.05 4.98 -1 5 C-0.67 3.35 -0.34 1.7 0 0 Z " fill="#00264B" transform="translate(1139,250)"/>
<path d="M0 0 C0.66 0.66 1.32 1.32 2 2 C1.67 2.66 1.34 3.32 1 4 C-1.56 4.62 -1.56 4.62 -4 5 C-4.33 6.32 -4.66 7.64 -5 9 C-6.32 9 -7.64 9 -9 9 C-9 8.34 -9 7.68 -9 7 C-9.66 7 -10.32 7 -11 7 C-10.64 4.38 -10.17 3.18 -8.31 1.25 C-5.34 -0.36 -3.33 -0.36 0 0 Z " fill="#002F5B" transform="translate(463,250)"/>
<path d="M0 0 C1.94 0.38 1.94 0.38 4 1 C5.53 4.05 4.84 6.76 4.56 10.12 C4.46 11.41 4.36 12.69 4.25 14.01 C4.17 15 4.09 15.98 4 17 C3.34 17 2.68 17 2 17 C0 15 0 15 -0.2 11.52 C-0.18 10.14 -0.16 8.76 -0.12 7.38 C-0.12 6.67 -0.11 5.96 -0.1 5.23 C-0.07 3.49 -0.04 1.74 0 0 Z " fill="#002852" transform="translate(583,240)"/>
<path d="M0 0 C4.29 0.99 8.58 1.98 13 3 C12.67 3.99 12.34 4.98 12 6 C8.7 6 5.4 6 2 6 C1.34 4.02 0.68 2.04 0 0 Z " fill="#002143" transform="translate(822,208)"/>
<path d="M0 0 C6.62 -0.25 6.62 -0.25 10 2 C10 2.66 10 3.32 10 4 C7.24 5.38 5.05 5.19 2 5 C1.34 4.34 0.68 3.68 0 3 C0 2.01 0 1.02 0 0 Z " fill="#00305D" transform="translate(1097,270)"/>
<path d="M0 0 C1.13 0.02 2.27 0.04 3.44 0.06 C3.77 1.05 4.1 2.04 4.44 3.06 C-0.85 6.14 -0.85 6.14 -4.44 5.75 C-5.14 5.52 -5.84 5.3 -6.56 5.06 C-4.15 0.07 -4.15 0.07 0 0 Z " fill="#001A34" transform="translate(778.5625,249.9375)"/>
<path d="M0 0 C1.07 0.1 2.14 0.21 3.25 0.31 C3.58 1.3 3.91 2.29 4.25 3.31 C0.8 5.37 -1.07 6.38 -5.12 6 C-5.99 5.77 -6.86 5.55 -7.75 5.31 C-5.37 1.5 -4.62 0.38 0 0 Z " fill="#001933" transform="translate(283.75,249.6875)"/>
<path d="M0 0 C2.31 -0.25 2.31 -0.25 5 0 C6.81 2 6.81 2 8 4 C4.53 5.16 1.64 5.07 -2 5 C-2.33 4.01 -2.66 3.02 -3 2 C-2.01 2 -1.02 2 0 2 C0 1.34 0 0.68 0 0 Z " fill="#003262" transform="translate(625,270)"/>
<path d="M0 0 C1.62 -0.05 3.25 -0.09 4.88 -0.12 C5.78 -0.15 6.68 -0.17 7.62 -0.2 C10 0 10 0 12 2 C10.56 2.51 9.13 3 7.69 3.5 C6.49 3.92 6.49 3.92 5.26 4.34 C3 5 3 5 0 5 C0 3.33 0 1.67 0 0 Z " fill="#002547" transform="translate(986,250)"/>
<path d="M0 0 C7.75 -0.12 7.75 -0.12 10 1 C9.67 2.65 9.34 4.3 9 6 C8.01 5.67 7.02 5.34 6 5 C5.67 4.34 5.34 3.68 5 3 C2.47 2.34 2.47 2.34 0 2 C0 1.34 0 0.68 0 0 Z " fill="#003160" transform="translate(672,251)"/>
<path d="M0 0 C0.99 0.99 1.98 1.98 3 3 C-0.3 3.33 -3.6 3.66 -7 4 C-7.33 3.01 -7.66 2.02 -8 1 C-5.2 -0.4 -3.1 -0.25 0 0 Z " fill="#00305F" transform="translate(1058,250)"/>
<path d="M0 0 C0.33 0 0.66 0 1 0 C1 9.57 1 19.14 1 29 C0.67 29 0.34 29 0 29 C0 19.43 0 9.86 0 0 Z " fill="#002E5C" transform="translate(399,243)"/>
<path d="M0 0 C0.33 0 0.66 0 1 0 C1 9.57 1 19.14 1 29 C0.67 29 0.34 29 0 29 C0 19.43 0 9.86 0 0 Z " fill="#002E5C" transform="translate(319,243)"/>
<path d="M0 0 C0.33 0.66 0.66 1.32 1 2 C4.47 1.5 4.47 1.5 8 1 C7 4 7 4 5 5 C3 5.04 1 5.04 -1 5 C-0.67 3.35 -0.34 1.7 0 0 Z " fill="#003567" transform="translate(673,270)"/>
<path d="M0 0 C0 1.65 0 3.3 0 5 C-0.66 4.67 -1.32 4.34 -2 4 C-1.67 3.34 -1.34 2.68 -1 2 C-1.66 2 -2.32 2 -3 2 C-3.33 2.66 -3.66 3.32 -4 4 C-4.33 2.68 -4.66 1.36 -5 0 C-7.31 0 -9.62 0 -12 0 C-12 -0.33 -12 -0.66 -12 -1 C-3.43 -2.43 -3.43 -2.43 0 0 Z " fill="#002245" transform="translate(469,253)"/>
<path d="M0 0 C1.65 0 3.3 0 5 0 C5.66 1.32 6.32 2.64 7 4 C4.36 4 1.72 4 -1 4 C-0.67 2.68 -0.34 1.36 0 0 Z " fill="#002952" transform="translate(485,56)"/>
<path d="M0 0 C2.97 0.5 2.97 0.5 6 1 C6 1.99 6 2.98 6 4 C2.33 5.18 -1.17 5.07 -5 5 C-5 4.67 -5 4.34 -5 4 C-3.35 3.67 -1.7 3.34 0 3 C0 2.01 0 1.02 0 0 Z " fill="#003D75" transform="translate(289,270)"/>
<path d="M0 0 C0.33 0 0.66 0 1 0 C1 8.91 1 17.82 1 27 C0.67 27 0.34 27 0 27 C0 18.09 0 9.18 0 0 Z " fill="#002E5C" transform="translate(662,253)"/>
<path d="M0 0 C2 2 2 2 2 5 C-1.63 4.01 -5.26 3.02 -9 2 C-5.26 0.13 -3.96 -0.42 0 0 Z " fill="#003160" transform="translate(999,252)"/>
<path d="M0 0 C0.33 0 0.66 0 1 0 C1 5.94 1 11.88 1 18 C0.67 18 0.34 18 0 18 C0 12.06 0 6.12 0 0 Z " fill="#002E5C" transform="translate(814,254)"/>
<path d="M0 0 C0.33 0 0.66 0 1 0 C1 4.62 1 9.24 1 14 C0.67 14 0.34 14 0 14 C0 9.38 0 4.76 0 0 Z " fill="#000002" transform="translate(715,260)"/>
<path d="M0 0 C0.33 0 0.66 0 1 0 C1 4.29 1 8.58 1 13 C0.67 13 0.34 13 0 13 C0 8.71 0 4.42 0 0 Z " fill="#000002" transform="translate(820,261)"/>
<path d="M0 0 C0.33 0 0.66 0 1 0 C1 4.29 1 8.58 1 13 C0.67 13 0.34 13 0 13 C0 8.71 0 4.42 0 0 Z " fill="#000002" transform="translate(1153,255)"/>
<path d="M0 0 C0.33 0 0.66 0 1 0 C1 2.97 1 5.94 1 9 C0.67 9 0.34 9 0 9 C0 6.03 0 3.06 0 0 Z " fill="#000002" transform="translate(668,274)"/>
<path d="M0 0 C0.33 0 0.66 0 1 0 C1 2.64 1 5.28 1 8 C0.67 8 0.34 8 0 8 C0 5.36 0 2.72 0 0 Z " fill="#000002" transform="translate(685,258)"/>
<path d="M0 0 C0.33 0 0.66 0 1 0 C1 1.98 1 3.96 1 6 C0.67 6 0.34 6 0 6 C0 4.02 0 2.04 0 0 Z " fill="#000002" transform="translate(325,244)"/>
<path d="M0 0 C1.65 0 3.3 0 5 0 C5 0.33 5 0.66 5 1 C3.35 1 1.7 1 0 1 C0 0.67 0 0.34 0 0 Z " fill="#000002" transform="translate(718,62)"/>
<path d="M0 0 C1.65 0 3.3 0 5 0 C5 0.33 5 0.66 5 1 C3.35 1 1.7 1 0 1 C0 0.67 0 0.34 0 0 Z " fill="#000002" transform="translate(711,62)"/>
<path d="M0 0 C4 1 4 1 4 1 Z " fill="#000002" transform="translate(831,274)"/>
<path d="M0 0 C4 1 4 1 4 1 Z " fill="#000002" transform="translate(740,274)"/>
<path d="M0 0 C4 1 4 1 4 1 Z " fill="#000002" transform="translate(239,274)"/>
<path d="M0 0 C4 1 4 1 4 1 Z " fill="#000002" transform="translate(223,274)"/>
<path d="M0 0 C3 1 3 1 3 1 Z " fill="#000002" transform="translate(817,274)"/>
<path d="M0 0 C3 1 3 1 3 1 Z " fill="#000002" transform="translate(726,274)"/>
<path d="" fill="#002E5C" transform="translate(0,0)"/>
<path d="M0 0 C3 1 3 1 3 1 Z " fill="#000002" transform="translate(1058,200)"/>
<path d="M0 0 C0.99 0.5 0.99 0.5 2 1 C1.01 1.5 1.01 1.5 0 2 C0 1.34 0 0.68 0 0 Z " fill="#002851" transform="translate(986,119)"/>
<path d="M0 0 C3 1 3 1 3 1 Z " fill="#000002" transform="translate(1204,109)"/>
<path d="M0 0 C3 1 3 1 3 1 Z " fill="#000002" transform="translate(1200,109)"/>
<path d="M0 0 C3 1 3 1 3 1 Z " fill="#000002" transform="translate(414,62)"/>
<path d="M0 0 C2 1 2 1 2 1 Z " fill="#000002" transform="translate(1198,274)"/>
<path d="M0 0 C2 1 2 1 2 1 Z " fill="#000002" transform="translate(1182,274)"/>
<path d="M0 0 C2 1 2 1 2 1 Z " fill="#000002" transform="translate(1060,274)"/>
<path d="M0 0 C2 1 2 1 2 1 Z " fill="#000002" transform="translate(1046,274)"/>
<path d="M0 0 C2 1 2 1 2 1 Z " fill="#000002" transform="translate(1030,274)"/>
<path d="M0 0 C2 1 2 1 2 1 Z " fill="#000002" transform="translate(713,274)"/>
<path d="M0 0 C2 1 2 1 2 1 Z " fill="#000002" transform="translate(504,274)"/>
<path d="" fill="#000002" transform="translate(0,0)"/>
<path d="" fill="#000002" transform="translate(0,0)"/>
<path d="" fill="#000002" transform="translate(0,0)"/>
<path d="" fill="#000002" transform="translate(0,0)"/>
<path d="" fill="#000002" transform="translate(0,0)"/>
<path d="" fill="#000002" transform="translate(0,0)"/>
<path d="" fill="#001429" transform="translate(0,0)"/>
<path d="" fill="#001429" transform="translate(0,0)"/>
<path d="M0 0 C2 1 2 1 2 1 Z " fill="#000002" transform="translate(390,214)"/>
<path d="M0 0 C2 1 2 1 2 1 Z " fill="#000002" transform="translate(59,207)"/>
<path d="" fill="#000002" transform="translate(0,0)"/>
<path d="M0 0 C2 1 2 1 2 1 Z " fill="#000002" transform="translate(548,139)"/>
<path d="M0 0 C2 1 2 1 2 1 Z " fill="#000002" transform="translate(543,139)"/>
<path d="M0 0 C2 1 2 1 2 1 Z " fill="#000002" transform="translate(549,65)"/>
<path d="M0 0 C2 1 2 1 2 1 Z " fill="#000002" transform="translate(401,62)"/>
<path d="" fill="#000002" transform="translate(0,0)"/>
<path d="" fill="#000002" transform="translate(0,0)"/>
<path d="" fill="#000002" transform="translate(0,0)"/>
<path d="" fill="#000002" transform="translate(0,0)"/>
<path d="" fill="#000002" transform="translate(0,0)"/>
<path d="" fill="#000002" transform="translate(0,0)"/>
<path d="" fill="#002E5C" transform="translate(0,0)"/>
<path d="" fill="#000002" transform="translate(0,0)"/>
<path d="" fill="#000002" transform="translate(0,0)"/>
<path d="" fill="#000002" transform="translate(0,0)"/>
<path d="" fill="#002851" transform="translate(0,0)"/>
<path d="" fill="#002851" transform="translate(0,0)"/>
<path d="" fill="#000002" transform="translate(0,0)"/>
<path d="" fill="#002E5C" transform="translate(0,0)"/>
<path d="" fill="#000002" transform="translate(0,0)"/>
<path d="" fill="#000002" transform="translate(0,0)"/>
<path d="" fill="#000002" transform="translate(0,0)"/>
<path d="" fill="#0075D7" transform="translate(0,0)"/>
<path d="" fill="#0075D7" transform="translate(0,0)"/>
<path d="" fill="#0075D7" transform="translate(0,0)"/>
<path d="" fill="#0075D7" transform="translate(0,0)"/>
<path d="" fill="#0075D7" transform="translate(0,0)"/>
<path d="" fill="#000002" transform="translate(0,0)"/>
<path d="" fill="#000002" transform="translate(0,0)"/>
<path d="" fill="#000002" transform="translate(0,0)"/>
<path d="" fill="#000002" transform="translate(0,0)"/>
<path d="" fill="#000002" transform="translate(0,0)"/>
<path d="" fill="#0075D7" transform="translate(0,0)"/>
<path d="" fill="#000002" transform="translate(0,0)"/>
<path d="" fill="#0075D7" transform="translate(0,0)"/>
<path d="" fill="#0075D7" transform="translate(0,0)"/>
<path d="" fill="#0075D7" transform="translate(0,0)"/>
<path d="" fill="#0075D7" transform="translate(0,0)"/>
<path d="" fill="#000002" transform="translate(0,0)"/>
<path d="" fill="#000002" transform="translate(0,0)"/>
<path d="" fill="#0075D7" transform="translate(0,0)"/>
<path d="" fill="#0075D7" transform="translate(0,0)"/>
<path d="" fill="#0075D7" transform="translate(0,0)"/>
<path d="" fill="#000002" transform="translate(0,0)"/>
</svg>
